<mxfile host="Electron" modified="2023-08-15T11:11:37.695Z" agent="Mozilla/5.0 (Macintosh; Intel Mac OS X 10_15_7) AppleWebKit/537.36 (KHTML, like Gecko) draw.io/21.6.1 Chrome/112.0.5615.204 Electron/24.6.1 Safari/537.36" etag="E6NVyMbFIyBzPg45VElP" version="21.6.1" type="device">
  <diagram name="architecture" id="s60DYnes5c7OE7m-FFTM">
    <mxGraphModel dx="794" dy="574" grid="1" gridSize="10" guides="1" tooltips="1" connect="1" arrows="1" fold="1" page="1" pageScale="1" pageWidth="827" pageHeight="1169" math="0" shadow="0">
      <root>
        <mxCell id="0" />
        <mxCell id="1" parent="0" />
        <mxCell id="HKS1n0-_ATYg36Mik8ny-39" value="&lt;font style=&quot;font-size: 20px;&quot;&gt;Iced Architecture (based on ELM)&lt;/font&gt;" style="swimlane;whiteSpace=wrap;html=1;startSize=40;swimlaneFillColor=#E6E6E6;" parent="1" vertex="1">
          <mxGeometry x="30" y="60" width="930" height="500" as="geometry" />
        </mxCell>
        <mxCell id="HKS1n0-_ATYg36Mik8ny-6" value="&lt;font style=&quot;font-size: 15px;&quot;&gt;Rust code&lt;/font&gt;" style="swimlane;whiteSpace=wrap;html=1;swimlaneFillColor=default;fillColor=#f8cecc;strokeColor=#b85450;" parent="HKS1n0-_ATYg36Mik8ny-39" vertex="1">
          <mxGeometry x="40" y="140" width="160" height="260" as="geometry" />
        </mxCell>
        <mxCell id="HKS1n0-_ATYg36Mik8ny-18" value="new&lt;br&gt;&lt;font style=&quot;font-size: 10px;&quot;&gt;(function)&lt;/font&gt;" style="whiteSpace=wrap;html=1;rounded=1;arcSize=50;align=center;verticalAlign=middle;strokeWidth=1;autosize=1;spacing=4;treeFolding=1;treeMoving=1;newEdgeStyle={&quot;edgeStyle&quot;:&quot;entityRelationEdgeStyle&quot;,&quot;startArrow&quot;:&quot;none&quot;,&quot;endArrow&quot;:&quot;none&quot;,&quot;segment&quot;:10,&quot;curved&quot;:1,&quot;sourcePerimeterSpacing&quot;:0,&quot;targetPerimeterSpacing&quot;:0};fillColor=#fff2cc;strokeColor=#d6b656;" parent="HKS1n0-_ATYg36Mik8ny-6" vertex="1">
          <mxGeometry x="10" y="30" width="130" height="40" as="geometry" />
        </mxCell>
        <mxCell id="HKS1n0-_ATYg36Mik8ny-19" value="update&lt;br&gt;&lt;font style=&quot;font-size: 10px;&quot;&gt;(function)&lt;/font&gt;" style="whiteSpace=wrap;html=1;rounded=1;arcSize=50;align=center;verticalAlign=middle;strokeWidth=1;autosize=1;spacing=4;treeFolding=1;treeMoving=1;newEdgeStyle={&quot;edgeStyle&quot;:&quot;entityRelationEdgeStyle&quot;,&quot;startArrow&quot;:&quot;none&quot;,&quot;endArrow&quot;:&quot;none&quot;,&quot;segment&quot;:10,&quot;curved&quot;:1,&quot;sourcePerimeterSpacing&quot;:0,&quot;targetPerimeterSpacing&quot;:0};fillColor=#e1d5e7;strokeColor=#9673a6;" parent="HKS1n0-_ATYg36Mik8ny-6" vertex="1">
          <mxGeometry x="11" y="150" width="129" height="40" as="geometry" />
        </mxCell>
        <mxCell id="HKS1n0-_ATYg36Mik8ny-26" style="rounded=0;orthogonalLoop=1;jettySize=auto;html=1;startArrow=oval;endArrow=oval;segment=10;sourcePerimeterSpacing=0;targetPerimeterSpacing=0;startFill=1;endFill=1;exitX=1;exitY=0.5;exitDx=0;exitDy=0;" parent="HKS1n0-_ATYg36Mik8ny-6" source="HKS1n0-_ATYg36Mik8ny-20" edge="1">
          <mxGeometry relative="1" as="geometry">
            <mxPoint x="286" y="117" as="targetPoint" />
          </mxGeometry>
        </mxCell>
        <mxCell id="HKS1n0-_ATYg36Mik8ny-20" value="message&lt;br&gt;&lt;font style=&quot;font-size: 10px;&quot;&gt;(enum)&lt;/font&gt;" style="whiteSpace=wrap;html=1;rounded=1;arcSize=50;align=center;verticalAlign=middle;strokeWidth=1;autosize=1;spacing=4;treeFolding=1;treeMoving=1;newEdgeStyle={&quot;edgeStyle&quot;:&quot;entityRelationEdgeStyle&quot;,&quot;startArrow&quot;:&quot;none&quot;,&quot;endArrow&quot;:&quot;none&quot;,&quot;segment&quot;:10,&quot;curved&quot;:1,&quot;sourcePerimeterSpacing&quot;:0,&quot;targetPerimeterSpacing&quot;:0};fillColor=#FFCC99;strokeColor=#d79b00;" parent="HKS1n0-_ATYg36Mik8ny-6" vertex="1">
          <mxGeometry x="10" y="90" width="130" height="40" as="geometry" />
        </mxCell>
        <mxCell id="HKS1n0-_ATYg36Mik8ny-21" value="view&lt;br&gt;&lt;font style=&quot;font-size: 10px;&quot;&gt;(function)&lt;/font&gt;" style="whiteSpace=wrap;html=1;rounded=1;arcSize=50;align=center;verticalAlign=middle;strokeWidth=1;autosize=1;spacing=4;treeFolding=1;treeMoving=1;newEdgeStyle={&quot;edgeStyle&quot;:&quot;entityRelationEdgeStyle&quot;,&quot;startArrow&quot;:&quot;none&quot;,&quot;endArrow&quot;:&quot;none&quot;,&quot;segment&quot;:10,&quot;curved&quot;:1,&quot;sourcePerimeterSpacing&quot;:0,&quot;targetPerimeterSpacing&quot;:0};fillColor=#d5e8d4;strokeColor=#82b366;" parent="HKS1n0-_ATYg36Mik8ny-6" vertex="1">
          <mxGeometry x="10" y="210" width="130" height="40" as="geometry" />
        </mxCell>
        <mxCell id="HKS1n0-_ATYg36Mik8ny-22" style="edgeStyle=orthogonalEdgeStyle;rounded=0;orthogonalLoop=1;jettySize=auto;html=1;startArrow=none;endArrow=classicThin;segment=10;sourcePerimeterSpacing=0;targetPerimeterSpacing=0;endFill=1;entryX=0.5;entryY=1;entryDx=0;entryDy=0;exitX=0.5;exitY=1;exitDx=0;exitDy=0;" parent="HKS1n0-_ATYg36Mik8ny-39" source="HKS1n0-_ATYg36Mik8ny-21" target="HKS1n0-_ATYg36Mik8ny-2" edge="1">
          <mxGeometry relative="1" as="geometry">
            <mxPoint x="806" y="430" as="targetPoint" />
            <Array as="points">
              <mxPoint x="115" y="430" />
              <mxPoint x="744" y="430" />
            </Array>
          </mxGeometry>
        </mxCell>
        <mxCell id="HKS1n0-_ATYg36Mik8ny-23" value="&lt;font style=&quot;font-size: 24px;&quot;&gt;HTML&lt;/font&gt;" style="edgeLabel;html=1;align=center;verticalAlign=middle;resizable=0;points=[];" parent="HKS1n0-_ATYg36Mik8ny-22" vertex="1" connectable="0">
          <mxGeometry x="0.0718" relative="1" as="geometry">
            <mxPoint x="-12" as="offset" />
          </mxGeometry>
        </mxCell>
        <mxCell id="HKS1n0-_ATYg36Mik8ny-24" style="edgeStyle=orthogonalEdgeStyle;rounded=0;orthogonalLoop=1;jettySize=auto;html=1;entryX=1;entryY=0.5;entryDx=0;entryDy=0;" parent="HKS1n0-_ATYg36Mik8ny-39" source="HKS1n0-_ATYg36Mik8ny-2" target="HKS1n0-_ATYg36Mik8ny-19" edge="1">
          <mxGeometry relative="1" as="geometry">
            <Array as="points">
              <mxPoint x="500" y="305" />
            </Array>
          </mxGeometry>
        </mxCell>
        <mxCell id="HKS1n0-_ATYg36Mik8ny-25" value="&lt;font style=&quot;font-size: 19px;&quot;&gt;Event as &lt;span style=&quot;background-color: rgb(255, 204, 153);&quot;&gt;`&lt;font style=&quot;font-size: 19px;&quot; face=&quot;Courier New&quot;&gt;Message`&lt;/font&gt;&lt;/span&gt;&lt;/font&gt;" style="edgeLabel;html=1;align=center;verticalAlign=middle;resizable=0;points=[];" parent="HKS1n0-_ATYg36Mik8ny-24" vertex="1" connectable="0">
          <mxGeometry x="0.3407" y="-2" relative="1" as="geometry">
            <mxPoint as="offset" />
          </mxGeometry>
        </mxCell>
        <mxCell id="HKS1n0-_ATYg36Mik8ny-2" value="" style="shape=image;verticalLabelPosition=bottom;labelBackgroundColor=default;verticalAlign=top;aspect=fixed;imageAspect=0;image=data:image/png,iVBORw0KGgoAAAANSUhEUgAAAU4AAAEOCAYAAADmC/4FAAABdWlDQ1BrQ0dDb2xvclNwYWNlRGlzcGxheVAzAAAokXWQvUvDUBTFT6tS0DqIDh0cMolD1NIKdnFoKxRFMFQFq1OafgltfCQpUnETVyn4H1jBWXCwiFRwcXAQRAcR3Zw6KbhoeN6XVNoi3sfl/Ticc7lcwBtQGSv2AijplpFMxKS11Lrke4OHnlOqZrKooiwK/v276/PR9d5PiFlNu3YQ2U9cl84ul3aeAlN//V3Vn8maGv3f1EGNGRbgkYmVbYsJ3iUeMWgp4qrgvMvHgtMunzuelWSc+JZY0gpqhrhJLKc79HwHl4plrbWD2N6f1VeXxRzqUcxhEyYYilBRgQQF4X/8044/ji1yV2BQLo8CLMpESRETssTz0KFhEjJxCEHqkLhz634PrfvJbW3vFZhtcM4v2tpCAzidoZPV29p4BBgaAG7qTDVUR+qh9uZywPsJMJgChu8os2HmwiF3e38M6Hvh/GMM8B0CdpXzryPO7RqFn4Er/QcXKWq8UwZBywAAAGxlWElmTU0AKgAAAAgABAEaAAUAAAABAAAAPgEbAAUAAAABAAAARgEoAAMAAAABAAIAAIdpAAQAAAABAAAATgAAAAAAAACQAAAAAQAAAJAAAAABAAKgAgAEAAAAAQAAAU6gAwAEAAAAAQAAAQ4AAAAArpLQTAAAAAlwSFlzAAAWJQAAFiUBSVIk8AAADnxJREFUeAHt3U2PW2cZBuDMRyAKaaWmTAtIiCKEVBblQ4INC6gEf4NfkE7UXbfZdlUpbip1kSU/gjULFi0LKEJICKkbkKgqJEoqqmQ6w+tSj5zJzLiJH885732uSFPPHNvP+z7Xc3rHsR3n0iW/CBAgQIAAAQIECGxSYOuc4luz2eyFdv2L7esb7etq+/KLAAECsQJbW1sHh4eHH7XL94+Ojt67efPmR6c1e2pwvvHGG1/f2dl5ud35q6fdyTECBAhMQODT7e3td27cuPHOyV4fCc72KPOlFpg/a2m7ffLGfiZAgMDUBFp4/rWF529a30eL3h8Kx/ZI83vtipeF5oLHJQECUxdof3T/bntA+dNlh+PgvHv37lO7u7s/X77S9wQIECBw6VJ71Pmj27dv7y0sjoPz448//mE7eHlxhUsCBAgQ+L9Ae9S51cLz+wuP4+BsB769OOiSAAECBB4WaK/9fHNxZHfxTUvTp9pzm4sfXRIYTKCdoH9u7+r4y8HBQTslj77Tvv/B/Hf8wTZkYQJNoJ2LX1lAHAdnO7j86HNxvUsCFyrQQvPdV1555XdLi/7jrbfe+nf72fPvSyi+vXiB5YwUlhfvb8UzBNqJefThhx/+/uTVH3zwwZ/aVfdPHvczgaEEBOdQ8tZ9RKA9XXT/1q1bjwRkO3bYbvzfR+7gAIGBBATnQPCWfVSgPar88ptvvvnsyWvu3LlzrT3P+fTJ434mMJSA4BxK3rpnCfyiPcK8srjy7bffvtxeGPqlF4cWIi7HIHD84tAYNmMPBNqjzuf39vZ+1R55vt/C8uj+/fvfaio+YMapMSoBwTmqcdjMXKAF5vwR54vtFXYgBEYp4I/qoxyLTREgMGYBwTnm6dgbAQKjFBCcoxyLTREgMGYBwTnm6dgbAQKjFBCcoxyLTREgMGYBwTnm6dgbAQKjFNjY25Ha+/H+1TreWdV1+xsh596k1VnrPSmr3ji9av1V9z9381/gyvaWm7X6W9dn3fVXtbjKb5X/uv2tu/66/a26/7r+6/q0v+Z67hbXrb+u/6r7n7v5DV65seBs/zrcrze4b6UJECCwUqD9kxf7K2/0BDc4/7ebJyjoLgQIEEgXEJzpE9YfAQLlAoKznFRBAgTSBQRn+oT1R4BAuYDgLCdVkACBdAHBmT5h/REgUC4gOMtJFSRAIF1AcKZPWH8ECJQLCM5yUgUJEEgXEJzpE9YfAQLlAoKznFRBAgTSBQRn+oT1R4BAuYDgLCdVkACBdAHBmT5h/REgUC4gOMtJFSRAIF1AcKZPWH8ECJQLCM5yUgUJEEgXEJzpE9YfAQLlAoKznFRBAgTSBQRn+oT1R4BAuYDgLCdVkACBdAHBmT5h/REgUC4gOMtJFSRAIF1AcKZPWH8ECJQLCM5yUgUJEEgXEJzpE9YfAQLlAoKznFRBAgTSBQRn+oT1R4BAuYDgLCdVkACBdAHBmT5h/REgUC4gOMtJFSRAIF1AcKZPWH8ECJQLCM5yUgUJEEgXEJzpE9YfAQLlAoKznFRBAgTSBQRn+oT1R4BAuYDgLCdVkACBdAHBmT5h/REgUC4gOMtJFSRAIF1AcKZPWH8ECJQLCM5yUgUJEEgXEJzpE9YfAQLlAoKznFRBAgTSBQRn+oT1R4BAuYDgLCdVkACBdAHBmT5h/REgUC4gOMtJFSRAIF1AcKZPWH8ECJQLCM5yUgUJEEgXEJzpE9YfAQLlAoKznFRBAgTSBQRn+oT1R4BAuYDgLCdVkACBdAHBmT5h/REgUC4gOMtJFSRAIF1AcKZPWH8ECJQLCM5yUgUJEEgXEJzpE9YfAQLlAoKznFRBAgTSBQRn+oT1R4BAuYDgLCdVkACBdAHBmT5h/REgUC4gOMtJFSRAIF1AcKZPWH8ECJQLCM5yUgUJEEgXEJzpE9YfAQLlAoKznFRBAgTSBQRn+oT1R4BAuYDgLCdVkACBdAHBmT5h/REgUC4gOMtJFSRAIF1AcKZPWH8ECJQLCM5yUgUJEEgXEJzpE9YfAQLlAoKznFRBAgTSBQRn+oT1R4BAuYDgLCdVkACBdAHBmT5h/REgUC4gOMtJFSRAIF1AcKZPWH8ECJQLCM5yUgUJEEgXEJzpE9YfAQLlAoKznFRBAgTSBQRn+oT1R4BAuYDgLCdVkACBdAHBmT5h/REgUC4gOMtJFSRAIF1AcKZPWH8ECJQLCM5yUgUJEEgXEJzpE9YfAQLlAoKznFRBAgTSBQRn+oT1R4BAuYDgLCdVkACBdAHBmT5h/REgUC4gOMtJFSRAIF1AcKZPWH8ECJQLCM5yUgUJEEgXEJzpE9YfAQLlAoKznFRBAgTSBQRn+oT1R4BAuYDgLCdVkACBdAHBmT5h/REgUC4gOMtJFSRAIF1AcKZPWH8ECJQLCM5yUgUJEEgXEJzpE9YfAQLlAoKznFRBAgTSBQRn+oT1R4BAuYDgLCdVkACBdAHBmT5h/REgUC4gOMtJFSRAIF1AcKZPWH8ECJQLCM5yUgUJEEgXEJzpE9YfAQLlAoKznFRBAgTSBQRn+oT1R4BAuYDgLCdVkACBdAHBmT5h/REgUC4gOMtJFSRAIF1AcKZPWH8ECJQLCM5yUgUJEEgXEJzpE9YfAQLlAoKznFRBAgTSBQRn+oT1R4BAuYDgLCdVkACBdAHBmT5h/REgUC4gOMtJFSRAIF1AcKZPWH8ECJQLCM5yUgUJEEgXEJzpE9YfAQLlAoKznFRBAgTSBQRn+oT1R4BAuYDgLCdVkACBdAHBmT5h/REgUC4gOMtJFSRAIF1AcKZPWH8ECJQLCM5yUgUJEEgXEJzpE9YfAQLlAoKznFRBAgTSBQRn+oT1R4BAuYDgLCdVkACBdAHBmT5h/REgUC4gOMtJFSRAIF1AcKZPWH8ECJQLCM5yUgUJEEgXEJzpE9YfAQLlAoKznFRBAgTSBQRn+oT1R4BAuYDgLCdVkACBdAHBmT5h/REgUC4gOMtJFSRAIF1AcKZPWH8ECJQLCM5yUgUJEEgXEJzpE9YfAQLlAoKznFRBAgTSBQRn+oT1R4BAuYDgLCdVkACBdAHBmT5h/REgUC4gOMtJFSRAIF1AcKZPWH8ECJQLCM5yUgUJEEgXEJzpE9YfAQLlAoKznFRBAgTSBQRn+oT1R4BAuYDgLCdVkACBdIHdTTU4m832N1VbXQIECAwp4BHnkPrWJkCgSwHB2eXYbJoAgSEFBOeQ+tYmQKBLAcHZ5dhsmgCBIQUE55D61iZAoEsBwdnl2GyaAIEhBQTnkPrWJkCgSwHB2eXYbJoAgSEFBOeQ+tYmQKBLAcHZ5dhsmgCBIQUE55D61iZAoEsBwdnl2GyaAIEhBQTnkPrWJkCgSwHB2eXYbJoAgSEFBOeQ+tYmQKBLAcHZ5dhsmgCBIQUE55D61iZAoEsBwdnl2GyaAIEhBQTnkPrWJkCgSwHB2eXYbJoAgSEFBOeQ+tYmQKBLAcHZ5dhsmgCBIQUE55D61iZAoEsBwdnl2GyaAIEhBQTnkPrWJkCgSwHB2eXYbJoAgSEFBOeQ+tYmQKBLAcHZ5dhsmgCBIQUE55D61iZAoEuB4+A8ar+67MCmCRAgcAECyxl5HJw7Ozv3LmBtSxAgQKBLgeWMPA7OlqZ/77IbmyZAgMAFCCxn5HFwHhwc/PEC1rYEAQIEuhRYzsjj4Hz11Vf/ubW19YcuO7JpAgQIbFBgno3zjFwscRyc8wM3btz4bbvB3xZXuiRAgMDUBeaZOM/GZYet5R8+/37r9u3bP2k3/nH7eeeU6x0iQIDAFAQ+bc9rvnvz5s13WrMPvevotOD8DOT1119/6sqVKy9tb2+/0A483b4uf3aF/xAgQCBX4EFr7aPDw8P3P/nkk/dee+21/5zW6pnBedqNHSOwEJjNZvuL73u+3N/fn/W8f3sfRuCh5ziH2YJVexO4detWzHmT1Etv51HP+435H6DnIfS29+vXrz/b257P2m9SL2f16Hi9gOCsN42vePny5edTmmwvgn4tpRd9XJyA4Lw465iVHjx4EBM27a/RxfwmEHOCddCI4OxgSGPbYlLYtLebCM6xnWAd7EdwdjCkMW2xvZjypfZWjetj2tM6e5n3Mu9pnRruOz0BwTm9ma/V8d7eXtwjtMSe1hqyO68UEJwridxgWaA9QosLzqTnbJdn5fvNCQjOzdlGVk58FXp3dzfuN4PIk29ETQnOEQ2jh60kvpiS2FMP51LPexScPU/vgvc+//yCtuTVC172Ipa7evfu3XlvfhH4QgKC8wsxudFc4Nq1a7F/pL13717Me1OdrZsXEJybN05aITZcPM+ZdJpuvhfBuXnjmBUSX1FfDCe5t0WPLusEBGedZXSl+acItVfUn0ttct6bT0pKnW59X4Kz3jSy4vxThNqrz7uRzbWm5r35pKTU6db3JTjrTSMrTuEtO1PoMfLkHKApwTkAeo9LJr7x/eQcptDjyZ79/GQCgvPJ3CZ3r6RPRDpreFPo8azeHX88AcH5eF6TvPXnnx70zASaf8YnJU1gygUtCs4CxPQS7UWT59rbdeL/Yb95j/Ne0+epv/UFBOf6hvEVpvTc35R6jT9xN9ig4NwgbkrpKb3aPKVeU87PIfoQnEOod7bmlB6FTanXzk7DUW1XcI5qHOPbTPAnIp2FffXOnTvXzrrScQJzAcHpPDhXIPkTkc5pPPbDTM7p2VWPISA4HwNrijed4odfTLHnKZ7b6/QsONfRm8Z9p/joa4o9T+NsLupScBZBJpZprzC310pyPxHprJnNe573ftb1jhNwcoSfA7PZbD+8xVG2t7+/PxvlxmyqRMAjzhJGRQgQmJKA4JzStPVKgECJgOAsYVSEAIEpCQjOKU1brwQIlAgIzhJGRQgQmJKA4JzStPVKgECJgOAsYVSEAIEpCQjOKU1brwQIlAgIzhJGRQgQIECAAAECBAgQIECAQJXA/wAsx1wHzK+APwAAAABJRU5ErkJggg==;container=0;" parent="HKS1n0-_ATYg36Mik8ny-39" vertex="1">
          <mxGeometry x="626.31" y="190.36" width="234.58" height="189.64" as="geometry" />
        </mxCell>
        <mxCell id="HKS1n0-_ATYg36Mik8ny-32" style="edgeStyle=entityRelationEdgeStyle;rounded=0;orthogonalLoop=1;jettySize=auto;html=1;startArrow=none;endArrow=none;segment=10;curved=1;sourcePerimeterSpacing=0;targetPerimeterSpacing=0;entryX=0.016;entryY=0.144;entryDx=0;entryDy=0;entryPerimeter=0;" parent="HKS1n0-_ATYg36Mik8ny-39" source="HKS1n0-_ATYg36Mik8ny-18" target="HKS1n0-_ATYg36Mik8ny-30" edge="1">
          <mxGeometry relative="1" as="geometry" />
        </mxCell>
        <mxCell id="HKS1n0-_ATYg36Mik8ny-33" value="&lt;font style=&quot;font-size: 16px;&quot;&gt;new state: 0&lt;/font&gt;" style="edgeLabel;html=1;align=center;verticalAlign=middle;resizable=0;points=[];" parent="HKS1n0-_ATYg36Mik8ny-32" vertex="1" connectable="0">
          <mxGeometry x="0.8395" y="2" relative="1" as="geometry">
            <mxPoint x="-35" y="3" as="offset" />
          </mxGeometry>
        </mxCell>
        <mxCell id="HKS1n0-_ATYg36Mik8ny-30" value="" style="shape=image;verticalLabelPosition=bottom;labelBackgroundColor=default;verticalAlign=top;aspect=fixed;imageAspect=0;image=data:image/png,iVBORw0KGgoAAAANSUhEUgAACfQAAAYGCAYAAADs6LhTAAAMQGlDQ1BJQ0MgUHJvZmlsZQAASImVVwdYU8kWnluSkJAQIICAlNCbIFIDSAmhhd4RbIQkQCgxBoKKHV1UcO1iARu6KqJgBcSO2FkUe18sqCjrYsGuvEkBXfeV7833zZ3//nPmP2fOnbn3DgD04zyJJA/VBCBfXCiNDw1kjkpNY5KeAiIwBnRABZ48foGEHRsbCWAZaP9e3l0HiLy94ijX+mf/fy1aAmEBHwAkFuIMQQE/H+L9AOBVfIm0EACinLeYVCiRY1iBjhQGCPF8Oc5S4io5zlDi3QqbxHgOxK0AqFF5PGkWABqXIM8s4mdBDY1eiJ3FApEYADoTYr/8/AkCiNMhtoU2Eojl+qyMH3Sy/qaZMajJ42UNYuVcFEUtSFQgyeNN+T/T8b9Lfp5swIc1rNRsaVi8fM4wbzdzJ0TIMRXiHnFGdAzE2hB/EAkU9hCjlGxZWJLSHjXiF3BgzoAexM4CXlAExEYQh4jzoiNVfEamKIQLMVwh6GRRITcRYn2I5wsLghNUNhulE+JVvtCGTCmHreLP8qQKv3Jf92W5SWyV/utsIVelj2kUZyemQEyB2LJIlBwNsQbETgW5CREqm5HF2ZzoARupLF4evyXE8UJxaKBSHyvKlIbEq+zL8gsG5ottzBZxo1V4b2F2YpgyP1grn6eIH84FuyQUs5MGdIQFoyIH5iIQBgUr5449E4qTElQ6HySFgfHKsThFkherssfNhXmhct4cYreCogTVWDy5EC5IpT6eKSmMTVTGiRfn8MJjlfHgS0Ak4IAgwAQyWDPABJADRO09jT3wTtkTAnhACrKAEDiqmIERKYoeMbwmgGLwJ0RCUDA4LlDRKwRFkP86yCqvjiBT0VukGJELnkCcDyJAHryXKUaJB70lg8eQEf3DOw9WPow3D1Z5/7/nB9jvDBsykSpGNuCRSR+wJAYTg4hhxBCiHW6I++E+eCS8BsDqgrNwr4F5fLcnPCF0EB4SrhE6CbfGi0qkP0UZBTqhfogqFxk/5gK3hprueCDuC9WhMq6HGwJH3A36YeP+0LM7ZDmquOVZYf6k/bcZ/PA0VHZkZzJKHkIOINv+PFLDXsN9UEWe6x/zo4w1YzDfnMGen/1zfsi+ALYRP1ti87F92BnsBHYOO4w1AiZ2DGvC2rAjcjy4uh4rVteAt3hFPLlQR/QPfwNPVp7JAuda527nL8q+QuFk+TsacCZIpkhFWdmFTDb8IgiZXDHfaRjTxdnFFQD590X5+noTp/huIHpt37k5fwDge6y/v//Qdy78GAB7POH2P/ids2XBT4c6AGcP8mXSIiWHyy8E+Jagw51mAEyABbCF83EBHsAHBIBgEA5iQCJIBeNg9NlwnUvBJDANzAaloBwsASvBWrABbAbbwS6wFzSCw+AEOA0ugEvgGrgDV08XeAF6wTvwGUEQEkJDGIgBYopYIQ6IC8JC/JBgJBKJR1KRdCQLESMyZBoyBylHliFrkU1IDbIHOYicQM4hHcgt5AHSjbxGPqEYSkV1UGPUGh2OslA2GoEmomPRLHQiWozORRehq9FqdCfagJ5AL6DX0E70BdqHAUwd08PMMEeMhXGwGCwNy8Sk2AysDKvAqrE6rBk+5ytYJ9aDfcSJOANn4o5wBYfhSTgfn4jPwBfia/HteAPeil/BH+C9+DcCjWBEcCB4E7iEUYQswiRCKaGCsJVwgHAK7qUuwjsikahHtCF6wr2YSswhTiUuJK4j1hOPEzuIj4h9JBLJgORA8iXFkHikQlIpaQ1pJ+kY6TKpi/RBTV3NVM1FLUQtTU2sVqJWobZD7ajaZbWnap/JmmQrsjc5hiwgTyEvJm8hN5MvkrvInylaFBuKLyWRkkOZTVlNqaOcotylvFFXVzdX91KPUxepz1Jfrb5b/az6A/WPVG2qPZVDHUOVURdRt1GPU29R39BoNGtaAC2NVkhbRKuhnaTdp33QYGg4aXA1BBozNSo1GjQua7ykk+lWdDZ9HL2YXkHfR79I79Eka1prcjR5mjM0KzUPat7Q7NNiaI3QitHK11qotUPrnNYzbZK2tXawtkB7rvZm7ZPajxgYw4LBYfAZcxhbGKcYXTpEHRsdrk6OTrnOLp12nV5dbV033WTdybqVukd0O/UwPWs9rl6e3mK9vXrX9T4NMR7CHiIcsmBI3ZDLQ97rD9UP0Bfql+nX61/T/2TANAg2yDVYatBocM8QN7Q3jDOcZLje8JRhz1CdoT5D+UPLhu4detsINbI3ijeaarTZqM2oz9jEONRYYrzG+KRxj4meSYBJjskKk6Mm3aYMUz9TkekK02Omz5m6TDYzj7ma2crsNTMyCzOTmW0yazf7bG5jnmReYl5vfs+CYsGyyLRYYdFi0WtpahllOc2y1vK2FdmKZZVttcrqjNV7axvrFOt51o3Wz2z0bbg2xTa1Nndtabb+thNtq22v2hHtWHa5duvsLtmj9u722faV9hcdUAcPB5HDOoeOYYRhXsPEw6qH3XCkOrIdixxrHR846TlFOpU4NTq9HG45PG340uFnhn9zdnfOc97ifGeE9ojwESUjmke8drF34btUulx1pbmGuM50bXJ95ebgJnRb73bTneEe5T7PvcX9q4enh9SjzqPb09Iz3bPK8wZLhxXLWsg660XwCvSa6XXY66O3h3eh917vv3wcfXJ9dvg8G2kzUjhyy8hHvua+PN9Nvp1+TL90v41+nf5m/jz/av+HARYBgoCtAU/Zduwc9k72y0DnQGnggcD3HG/OdM7xICwoNKgsqD1YOzgpeG3w/RDzkKyQ2pDeUPfQqaHHwwhhEWFLw25wjbl8bg23N9wzfHp4awQ1IiFibcTDSPtIaWRzFBoVHrU86m60VbQ4ujEGxHBjlsfci7WJnRh7KI4YFxtXGfckfkT8tPgzCYyE8Qk7Et4lBiYuTryTZJskS2pJpiePSa5Jfp8SlLIspXPU8FHTR11INUwVpTalkdKS07am9Y0OHr1ydNcY9zGlY66PtRk7eey5cYbj8sYdGU8fzxu/L52QnpK+I/0LL4ZXzevL4GZUZfTyOfxV/BeCAMEKQbfQV7hM+DTTN3NZ5rMs36zlWd3Z/tkV2T0ijmit6FVOWM6GnPe5MbnbcvvzUvLq89Xy0/MPirXFueLWCSYTJk/okDhISiWdE70nrpzYK42Qbi1ACsYWNBXqwB/5Npmt7BfZgyK/osqiD5OSJ+2brDVZPLltiv2UBVOeFocU/zYVn8qf2jLNbNrsaQ+ms6dvmoHMyJjRMtNi5tyZXbNCZ22fTZmdO/v3EueSZSVv56TMaZ5rPHfW3Ee/hP5SW6pRKi29Mc9n3ob5+HzR/PYFrgvWLPhWJig7X+5cXlH+ZSF/4flfR/y6+tf+RZmL2hd7LF6/hLhEvOT6Uv+l25dpLSte9mh51PKGFcwVZSverhy/8lyFW8WGVZRVslWdqyNXN62xXLNkzZe12WuvVQZW1lcZVS2oer9OsO7y+oD1dRuMN5Rv+LRRtPHmptBNDdXW1RWbiZuLNj/ZkrzlzG+s32q2Gm4t3/p1m3hb5/b47a01njU1O4x2LK5Fa2W13TvH7Ly0K2hXU51j3aZ6vfry3WC3bPfzPel7ru+N2Nuyj7Wvbr/V/qoDjANlDUjDlIbexuzGzqbUpo6D4Qdbmn2aDxxyOrTtsNnhyiO6RxYfpRyde7T/WPGxvuOS4z0nsk48ahnfcufkqJNXW+Na209FnDp7OuT0yTPsM8fO+p49fM773MHzrPONFzwuNLS5tx343f33A+0e7Q0XPS82XfK61NwxsuPoZf/LJ64EXTl9lXv1wrXoax3Xk67fvDHmRudNwc1nt/JuvbpddPvznVl3CXfL7mneq7hvdL/6D7s/6js9Oo88CHrQ9jDh4Z1H/EcvHhc8/tI19wntScVT06c1z1yeHe4O6b70fPTzrheSF597Sv/U+rPqpe3L/X8F/NXWO6q365X0Vf/rhW8M3mx76/a2pS+27/67/Hef35d9MPiw/SPr45lPKZ+efp70hfRl9Ve7r83fIr7d7c/v75fwpDzFrwAGK5qZCcDrbQDQUgFgwPMZZbTy/KcoiPLMqkDgP2HlGVFRPACog//vcT3w7+YGALu3wOMX1KePASCWBkCiF0BdXQfrwFlNca6UFyI8B2yM/ZqRnwH+TVGeOX+I++cWyFXdwM/tvwCYCnx/IA4gRgAAAIplWElmTU0AKgAAAAgABAEaAAUAAAABAAAAPgEbAAUAAAABAAAARgEoAAMAAAABAAIAAIdpAAQAAAABAAAATgAAAAAAAACQAAAAAQAAAJAAAAABAAOShgAHAAAAEgAAAHigAgAEAAAAAQAACfSgAwAEAAAAAQAABgYAAAAAQVNDSUkAAABTY3JlZW5zaG90ywQ9qgAAAAlwSFlzAAAWJQAAFiUBSVIk8AAAAdhpVFh0WE1MOmNvbS5hZG9iZS54bXAAAAAAADx4OnhtcG1ldGEgeG1sbnM6eD0iYWRvYmU6bnM6bWV0YS8iIHg6eG1wdGs9IlhNUCBDb3JlIDYuMC4wIj4KICAgPHJkZjpSREYgeG1sbnM6cmRmPSJodHRwOi8vd3d3LnczLm9yZy8xOTk5LzAyLzIyLXJkZi1zeW50YXgtbnMjIj4KICAgICAgPHJkZjpEZXNjcmlwdGlvbiByZGY6YWJvdXQ9IiIKICAgICAgICAgICAgeG1sbnM6ZXhpZj0iaHR0cDovL25zLmFkb2JlLmNvbS9leGlmLzEuMC8iPgogICAgICAgICA8ZXhpZjpQaXhlbFlEaW1lbnNpb24+MTU0MjwvZXhpZjpQaXhlbFlEaW1lbnNpb24+CiAgICAgICAgIDxleGlmOlBpeGVsWERpbWVuc2lvbj4yNTQ4PC9leGlmOlBpeGVsWERpbWVuc2lvbj4KICAgICAgICAgPGV4aWY6VXNlckNvbW1lbnQ+U2NyZWVuc2hvdDwvZXhpZjpVc2VyQ29tbWVudD4KICAgICAgPC9yZGY6RGVzY3JpcHRpb24+CiAgIDwvcmRmOlJERj4KPC94OnhtcG1ldGE+Crfd0LMAAAAcaURPVAAAAAIAAAAAAAADAwAAACgAAAMDAAADAwAA312C5UrSAABAAElEQVR4Aezdd5wdVfkH4HdLeu8hIaEGCNJRQGkCFgTxJygqTUAEQYoUQUSaNAGVaqUoKCBFEURQlF5EBBEBSSDUkB7Se93fnNm9N3c3m2STbMKWZyD3Tjkz885z9q/5fO85ZR07dqy6554/xp577hkLFyyIxYsXhYUAAQIECBAgQIAAAQIECBAgQIAAAQIECBAgQIAAAQIECBAgQIAAAQIECBBYswLl5ZVRXl4Wjz72WOy//wFR9vxz/6raZputY0EW5quqqlqzd3d1AgQIECBAgAABAgQIECBAgAABAgQIECBAgAABAgQIECBAgAABAgQIECBAoChQVlYWFRUV8dLL/4uyBfPnVS1YML940AoBAgQIECBAgAABAgQIECBAgAABAgQIECBAgAABAgQIECBAgAABAgQIECCw9gTKy8ujsrJNlM2eNcOwfGvP3Z0IECBAgAABAgQIECBAgAABAgQIECBAgAABAgQIECBAgAABAgQIECBAgEC9AgJ99bLYSYAAAQIECBAgQIAAAQIECBAgQIAAAQIECBAgQIAAAQIECBAgQIAAAQIE1q6AQN/a9XY3AgQIECBAgAABAgQIECBAgAABAgQIECBAgAABAgQIECBAgAABAgQIECBQr4BAX70sdhIgQIAAAQIECBAgQIAAAQIECBAgQIAAAQIECBAgQIAAAQIECBAgQIAAgbUrINC3dr3djQABAgQIECBAgAABAgQIECBAgAABAgQIECBAgAABAgQIECBAgAABAgQI1Csg0Fcvi50ECBAgQIAAAQIECBAgQIAAAQIECBAgQIAAAQIECBAgQIAAAQIECBAgQGDtCgj0rV1vdyNAgAABAgQIECBAgAABAgQIECBAgAABAgQIECBAgAABAgQIECBAgAABAvUKCPTVy2InAQIECBAgQIAAAQIECBAgQIAAAQIECBAgQIAAAQIECBAgQIAAAQIECBBYuwICfWvX290IECBAgAABAgQIECBAgAABAgQIECBAgAABAgQIECBAgAABAgQIECBAgEC9Ao0S6Jvz2rCY87+XY94bw2LueyNj4aSJ+c3a9OobbQcNjvYbbxYdt9gy2m8ytN4i1vTO+ZNejTkT/hvzJg+PBVPejUVzJ0ZVVURlhz7Rpvt60a7X0OjQZ6to23vzNV1KvdcfMfnVeGXSf+ONKcPivWnvxvtzqv16Z/UN7rZ+bNRjs9ii19YxpOcHU1+9RdtJgAABAgQIECBAgAABAgQIEFgNgTlz5mTvZ6qiY8eOq3EVpxJYswKvvjosHnnkkeJNttxyi9h9992L21YIECBAgAABAgQIECBAgAABAgQINLbAagX65rz6Skx/8pGY8dTj0bVdu2jfvn1Utmkb0aYyyrJKqxYsjIUL5se8uXNj2vy50WXnj0fXXfeIDptv2djPUe/15k58KWa9+0jMfvfR6Nq1Kjq0bxtt2rWJqKisbr9oUSyYNz9mz10Q06dHdFpvj+g0eM9o33ereq/X2DuHTXopnnzvoXh69GMRnSuiXYfMr22bKK+s9lu0cGEsmL8g5md+MWNR7Dxwj9hl3b1i895rp77Gfl7XI0CAAAECBAgQIECAAAECBFqvwMyZM+Oxxx6LJ558KsaNHRezZ8/OMdpl75TWW3+92PljH40999wzOnTo0HqRWuiT/+pXv44U4CwsX/7Sl6J3n96FzSb9/bcH/xbXXX9Dsca99tozjjvu2OK2FQIECBAgQIAAAQIECBAgQIAAAQKNLbDKgb6pf70vpt5/T3RbuCDade6aheSyCF826l3pkof60o60smhxzJs5I6ZVto3u+/5fdN97v9Kmjb4+4417Y/rwP0aPztOjQ+eOUVaeikj/sjKzX3/na0s+omrx4pgzc3ZMmdU1um66f3TZ+P/ytmvq48G3743737g7ZnWaEx26dIryivKsrlRQhpiGD8yWsrLy/DvKqmJx5jdn5qzoNLND7LvxAfHpDdZsfdU39kmAAAECBAgQIECAAAECBAgQWH2B5557Pq6++pqYm360uJxl8OBBcdZ3v9tswl7LeZSlDo0aNSruvfdPxf0DBgyI/ff/fHG7Ja8cfviRMWvWrOIjXnbZD2KjjTYqbjflFYG+ptw7aiNAgAABAgQIECBAgAABAgQItEyBVQr0Tb77jph05y0xcJ2BUZaNKFcdP8tCcimLljtVB+eqybI9JcG5bMi5GD1mdPQ88NDo9YWvrBHVacN+F1Nevjn7dXfPKKusqM7HpcLSv5rMXPHG2XaxvGylauGiGPnO5Oi+5eHRbehBxWaNuXL3iNvirldvjh7r9ctH5KtanF09C/HV5PiWvlWqsawsCyVGLJw/P6aMnBAHDj08Dhhy8NJt7SFAgAABAgQIECBAgAABAgQINCGBhx56KH75y+uW/d6jTq3duneNM79zRgwZskmdI81788X/vBgXXXxJ8SE22XSTuOTii4rbLXlFoK8l965nI0CAAAECBAgQIECAAAECBAgQaGyBlQ70pZH5Jt50XQwcuG5EzdSw1SPelWV5uRTqS58lubkshZaOpKUqC6XlSxaaGz36vehzxDGNPlJfGplv8gs/j/U27BVRno16l4XlUtAwlVBTRUrHVdeRf6YDWVguhflScC4bya8qm4o3hfp6bntso4/Ul0bmu+nln0fP9ftlo/JlYchsZMCawqq/Mr9CdaneFOTLD6Sd2XoK9S1etDAmvz0ujtjqm0bqK+lJqwQIECBAgAABAgQIECBAgEDTEhg7dmycetq3s993LqhVWPv27WObbbaOTp06xfDhr2XviUbXOt62Xdv4ybXXRM+ePWvtb84bAn1G6GvOf79qJ0CAAAECBAgQIECAAAECBAgQWHsCKxXomzPslRj3syujX2WbiGxkvnypGVauOsiXUmfVgbTCZ3WjbH86lD7y72w1e5E7IZuut99xp0SHzbeobraan/Mmvhzv/+vHMaDP/GxkvsosLFeT4suTcdXBvbRaSNAVSsliclnV2ZEUmEs7U6hv4cIYM6Ft9Nrx1GjfZ6v8rNX9GPb+y/Gz//woFvZZHG3atM3ry0fny+6ZQpH5kn/XVJZ2ZQG+fKsQ7Evb2fqizK5yYlkcu+1psXnvxqlvdZ/P+QQIECBAgAABAgQIECBAgACBUoGLsxHp/pONTFe6HHjgF+ILBxwQlW1q3i1lB++999645ZZba43i95nP7B1HHfW10lOL62+/9XYMf214TJo0ORZnP5bs1atnbLDBhrH55kOLbUpXJk2aFO+NfK+4q2+/vpGmvC1d6rbp3ad3rLtu9oPWbJkxY0a8+cabxebdu3eP9TdYP59CePiw4fHqsFfzdz2DBg3Kg4opsFhYCtcd8cYbcccddxZ2xzoD1omjjjwy3071Dxo8uHissDJz5sz497//HePHT8inrO3Ro3uke2y7zTbZD0UrCs2K38uqM013+8or/4uRI0dmz71O7LzzzsVz1sbKyozQN2zYsHjrrbdi8uQp0TZ7/5j6daMNN4hevXuvsNThw4fHm2++Ge+/Pynrj8ro3at3bLvtttGnb58Vnpvum3xmzpyV/20M3WzT6N6jR5hyd4V0GhAgQIAAAQIECBAgQIAAAQIECDSywEoF+sb/8ppo++Lz0a5bt+qR+FIGLgug1UTRakpL8bPqPUvWSqquCc2l0frmTZsWC7b5cPT9xkklDVZ9ddLzV0aHmU9Gx66dsmHsqsuozsdlNZYUuaSuQpQvfdcsaSX7l0bCmz19ZszpvHv0+vDJhaOr9X3di1fEs3OeiU5du2Yvm7OCUk3ZdxoZsA5izX1Sg+xg+srqSUs+9W6qr6IsZk2dETt2/Ggcs80p1Qd9EiBAgAABAgQIECBAgAABAgSaiMC07L3P0UcfU/0OpKamrbfeKs4++3v5+426Zd5882/ivvv+XNzdp0+f+PnPf1rcTiuTJ0+Oyy7/Ya1wXWmDFJL7zhmnF4N4hWN/+ctf4sYbf13YjE9/+pNZbUcXt9PK8oJbzz//fFx66eXF9ttuu03sv//+ceFFFy01+mC//v3ilJNPio03HpK3f+CBB+JXv7qpeG59Kx/72Efj1FNrv9+5++4/xl2///1S10/n9+jZI07+1knxoQ99qNbl6qtzl112jp/+9GfFfkhG115zda3z1vRGQwJ9o0aNiksvuzzGjR1XbzlpiuIzTv92pDBl3WXihIlx6eWXxbvvjKx7KP/x7q677honHP/NekOQ6e/04kt+EG+9+Vatc9MokQd95cvRrm27uO76G4rH9tprzzjuuGOL21YIECBAgAABAgQIECBAgAABAgQINLZAgwN9c0cMj1EXnBUD+68TVdlUtsWEXJaUK+TRCt/VRRa2lnznU+9mQb78jGx3WfYL6tHjx8W6Z18U7Tep/xfUDX3g+e+/GuOf+G6sO7hL/lI4H/kuBeGypTpyWB3eq97OdxfrTlvpaLG+VFtedlWMfHdG9N/9B9G29+bVJ63i54jJr8ZFz5wZXQb3yq5dnr9Erb5FVmRNnfl32lnfktpk7CnQl6/mXVAVM96bFGfvdGkM6bl69dV3S/sIECBAgAABAgQIECBAgAABAqsq8PDDD2eBvF/WOv2G63+Zj3pWa2fNxvjx4+OEE04svnJKu2+++df5tLxpffr06XHuuedHCn4tb0lht4suvCD69etXbNbYgb4BAwfEjKyeGTNmFu9RutI7G03uJ9denY9CuCqBvrr1ll67sJ5GAbzggvNjww03LOyKuoG+FN6bko10N3fu3GKbphjomzBhQhb0PDcPbBYLrWcluZ599lm1ApspkHf2OefG2DFj6zljya5dd90lTjrpxPzdWmHv4kWL4oILL8pHLyzsq/u9xRYfqnVcoK+ukG0CBAgQIECAAAECBAgQIECAAIHGFmhwoG/S3XfEogfujc69skBaVkU+RWweREsf+Z6a2krX067q7RSQq8qHoqvZle1I+2ZkU2BU7PN/0euAL9ecv2pf0179XcTo30W3XtmvdNOodzW1FUbmq1vVsu6SYn1pSSP0pQDd1EnTomzdg6Lb0IPy/av68ccRv4t7xtwZ3fr0isUL0/CB9RmWXL3AWrKrsFqWTQmc7MoqymPaxEnx+QFfiv2HrF59hWv7JkCAAAECBAgQIECAAAECBAg0hkDdEff6ZtOe/uxntUfca+h95syZE+eed36kqXZLlzQaXpvKNkuF/NK9Lrn4omJ4sG5AbnVH6CvUUJ69o2mbjeBWGpgrHDv22GPiE5/4RPzjH/+I3//+DzF79pxsKtj3C4ejsrKiOO3v9ttvH4cccnB+7Omnn44rr6w9gt5GG28Ug7Opdl97/fUYM3pM8RpdunSOH/zgkujfv3++r26gr9iwZKWpBfrSNMHfOfO7MSGbVrh0GThwYP4j3dLnTcd32OEjcUY2CmNakvt553+/1oiNnTp1iq222jIWLFgQL738csyfNz9vmz723XefOPLII4rbaZrne+65t7hdWEn9ms+uUdhR8i3QV4JhlQABAgQIECBAgAABAgQIECBAYI0INDjQN/byC6LTyLejslPnlESrLib7SuPF1Wxl+wqxuervwlZ145KtFObLdqZpdxfOmhUzB68XA844r7rZKn6Of+rc6FE1LNp2ah9Vi5bccXGh1jrXLamm1pG8suxgOh7ZtLbzZ82JqeWbR9+dv1+r3cpu/PBf58WIeD3ad+xYfCG4JBS5EldLtaU0X7akQN+8zG9IbBKn77B69a1EBZoSIECAAAECBAgQIECAAAECBFYocNVVV8dTTz1dbPfhD28fZ575neL2yqw89NBD8YtfXFfrlNNOOzU++tGd8n3Dhg3Lg12LF1X/iDLt/OIXD4ivfOUr+fE1Eejbbrtt8xHfOmQj5T33/L+z0Qh/EbOy9zSF5TOf2TuOOuprhc148T8vxkUXX1LcTlPIptBh6ZLeFR177Ddj0qRJxd1f+tKBkf6lJR3/0Y+uiGeffbZ4vPQ+9QX60kh+X/vaEfn0vF27ds1GFZwRffv2LZ6/NlaWN+Vu3QBjeu119tlnR5qeOS1vvDEiH71v4cLqF34pCHnjjTfkIzfWHQUyjc54aRZw7JX9ILlw7jnnnJeF+xbm2ymod9112SiRNdP2HnHEkTFz5pI+S+eddNIJMXSzzeK990bFDTfeGMOGDc/PLXwI9BUkfBMgQIAAAQIECBAgQIAAAQIECKwpgQYH+t456ajoW9Emytq2yd4epheIi4vxvdrFpbDZkml407EUkivG/qoPZzuz4e/SevZr2QnZS7X1r70hNV3lZfSfj4gBfedFWfar7KpF6f5VaaC+fKl1/+IdCoUUd9S0zb6KgbnsSbKXhWMmtImBn725dsOV3Drp74fHwj6Lo6JN27y+PMyX3jGnMgpLqrd0u7A/gZccSOWlMGRFFjhcuGB+VE4sj2s+uXr1FW9lhQABAgQIECBAgAABAgQIECDQCALfv+DCePmll4tX2m+/z8bhh3+1uL0yKxdm06L+978vFU/ZY4+Px/HHf7O4nVbuuOOOuOuuPxT3pWlxr7n6qny7sQN9KVT261//Kjp06FC839VXXxNPPvlUcXv77beL7373zOJ2QwJ9r7/2Wpz1vXOK59Q3ml4KDaaAXGHp2bNnFlL7Rb5ZX6DvkosvjE023bTQvEHfaSrap7KRAvP3V8s4I4UChw4duoyjtXcvL9BXdyTHz3523zjiiMNrXSCNpPf4E08U9x1z9NHxkY98OOr+XZxyyrdi5513LrZLK3Wvf9xx34i99torn973mGOOLbZN79suueSiGDJkk+K+qVOnxmnf/nZMmzq9uE+gr0hhhQABAgQIECBAgAABAgQIECBAYA0JNDjQN+Lgz8XAdderzpVlvwYuyzJmVflHdWW1QnPZC7A8g5aH0FIYbclSbJfekuXJtKoYM2pkbHzbn5Y0WoW1d+/aNwZv2LP6jumWWViuGCIsuV7x/rX2pbbForO1bD3LG6avtPfdtybHegfeX3LGyq8e8qd9oseG/bLrlVcH+hJQgSZ9pxs1dEl1ZXYpE5lOnfLWuLj1cw809GztCBAgQIAAAQIECBAgQIAAAQJrXODyy38Y//rXc8X77LbbrvmIdsUdK7HyzW8eHxMmTCyeUV9wK43Sl0ZjKyzl2cwGd9z+u/wdSmMH+jbYcIP44eWXFW6Vfz/++ONx7bU/Le7bYsst4vzzzi1uNyTQV/ca6eR0nbrLKy+/UmvXHbffFhWVlVE30Ne7d+9sZMOf1WrbkI3p06dno/p9fblNd9xxxzj99NOW26ZwcHmBvnPPPS9efXVYoWl85ztn5GG94o7lrNT9u0hTLfft16/WGXWtCiM31u2P+sKT6ULXXHNtPPHEk8VrCvQVKawQIECAAAECBAgQIECAAAECBAisIYGVDPQNTkmyLMyXReWyf2lJObQUhiuMwVfYLqTVqrfzptWtCyHAdJ3sX7rO6CzQN2Q1A30jf79vDNqgJtCXhfnS/VOJS92/mKKre6xQY3rEdFa2pFBftoxshEDfwVmgr+cG/RNfZIMbVvtVE1bfJP9MO2ruXbJa0iBfzcvLPlKgLy2T384CffsJ9FVr+CRAgAABAgQIECBAgAABAgSagsB1110Xf/vbQ8VS6gvBFQ+uYOWggw4uTpuamqYwXbpe6TJt2rRsitujS3fFr351Q6RpZhs70LftttvE9753Vq171Q2IrUqg75577olbbrmt1nUbspFG6Esj9dUN9G2zzdbZdLXfa8glarVZm4G+Qw/9asydO7d4/6uuuiLWXXfd4vbyVg46+JBYMH/B8posdewTn9grm9b4G/GnP/0pfvObW4rHd9hxhzjj9G8XtwsrdftEoK8g45sAAQIECBAgQIAAAQIECBAgQGBNCTQ40PfOiV+Pftl0IlVt26Y0WvW/kiBfIR63JNpXU3LKp1Ut2ZtvZrvyMF9KpmUv3SYsWhDrX3Pjaj1j3Sl3U26vdIS+4n1TOen+db4LN0/786PZSllF1nbhwhgzsV0M3Pem/MiqflRPuVsVlW3axOJsSuBkWB2KrL5j8bqF4oo7alby/TUHU23pv8ryWLRgXlRkU+5e+8mb655hmwABAgQIECBAgAABAgQIECDwgQncffcf47bbfle8f5u2beK2W36b/UCx5heKxSPVK1WLF8eDf/tbLM6+C8unPvnJ/F1K3dDXRRddEJtttlmhWf49MRvB77hsJL/S5Te/uSk6duzYoEDfgw8+GNdfv+T9VGlwq25Qbk0F+u67775sitjflj5C9OjZo9Z22pgyeUp06dI5t0nbKeDYvXv3pQJ99dWZ2q9o+SADfZdd9oPYaKONVlRifrzu30XXrl3ykQpLT05WaSk47r7bbnHooYfE3x78W1x3/Q3FpssKP95x551x152/L7Yr/bso7rRCgAABAgQIECBAgAABAgQIECBAoBEFGhzoG3P5BdF55DtR2alTHkbLa0j5siwetySuV11ZiqgVcml5k6xF9Z7qIFqW78uW7CP7f+GsWTFr8Pqxzhnnpp2rvEx4+rzovvjVaNupffV0u9m735QXXJzChyVLuvXSNaUG1WMM5qPf5e2zp8oCffNmzY2p5ZtHv52/n+9d1Y8f/uvceD1GRIdOHfNAX15DHoxcyStmD1AYQbCsoizmzpodm2T/nb7D6tW3klVoToAAAQIECBAgQIAAAQIECBBYrsA7b78T3z79jFptDj304Pj85z9fa19h49ln/xU//OGPCptRmf2w9Jbf/iYPrZ140rdi7JixxWPf/Oaxseeeexa300rdEfLatmsbt91aPQJb3RH6ttjiQ3H++efVOn95wa21Feh7+umn48orry7WtcMOH4kzzji9uL2ilYbUuaJrpOOLFy2Kl7NpfQszdNR3Tq9ePWPQ4MH1HVpq3/Km3D3hxJNi3NhxxXO+9a0TY9dddy1up5UF8+fH7DlzquvJ3qelURfLKyqi7t/Fj3/0w1hv/fVqnbusjeHDh2ejFy55H5kCf9df98ulml+e/U3+K/vbLCwCfQUJ3wQIECBAgAABAgQIECBAgAABAmtKoMGBvsl33xmLHrgnOvXqldWSxdHSqHvZ3LF5MG1JSi47tmSjNOiXh9DSqHTpSVJqLjXLvme+Pykq9vm/6HXAl9ORVV6mDbs9YtTvoluvbinFl09rm25RU2F+u3Tx/P7LuUt5HuzLSks/Fi8vi2mTpkase1B0G3rQcs5a8aE/jvhd3Dv2zujau2f1CH1Z4DDXKBaUVrKKa75KVmpfPNFlbvm/LHA47f3J8fl1vhT7D1m9+mrfxBYBAgQIECBAgAABAgQIECBAYPUFjj/hxBg/bnzxQuUV5XHJxRfGxhsPKe5LK1OnTInzv39hjBo1qrh/s802jYsuujDfvvLKq+Lpp/9R69iFF3y/1mh/P/rRj+Of/3y2VpvC+XWDcm3aVMZvbr4p2qSZKLIlBddOP+M7kUKIhaU0uNWQoFzdQOGKptzt3qN7HiAr/HAz3XfMmDFx0kknF0qIbt27xrXXXJOPMljcma28+eab+TS1qe4OHToUR7RrSJ2l11lb68sL9NXtt+R23rnn5O++CvVdeull2eiD/y5sxjnnnB1bb71VFn6s/XdxyCEHx/771w6MpqmY099VIZw4aNCg6NatW8zJAoKHHXZ48Zpp5Zijvx6f+vSnivtGjHg9u9d5sXDhouK+0r+L4k4rBAgQIECAAAECBAgQIECAAAECBBpRoMGBvrkjhseoC74XA9fpn2X5sthbIZyXB9Lyj6ysFKErrFdvlmWb1XtqjtUMgZe/rMyCd6PHjYl1z7k42m8ydLUea/77r8a4x78bg9frktWX3SsLzKU7l2XBw0Kor/QGqZpUbwrVFapOAcR8TxbkSzvTM458d0b03/0H0bb35qWnr/T6iMmvxkXPnBldBvfKX0hmWch8yV8mlpAtdeF0rLrY6pry9azOLHC4OPObOWpSnL3TpTGk5+rVt9R97SBAgAABAgQIECBAgAABAgQIrKbAk08+GVdffW2tq3TKZn/42Mc+Gh/5yIfzaWPfeOPN+EM2Pe/UKdmPKkuW0047NT760Z3yPc8993xcdtnlJUcj9t7707Hffp+NNm3axN8feqjWtKip4VFHHRmf+cxn8nNGjx4d3/rWKbXO33KrLWPvT386evXqEffee18888w/ax0vDW41JCi3okBf3RHh0s0O/NIX42Mf/Wg+4lwKmaUlBQvffuvtfD19pIDbySedGN179MhHzvtTNi3vLbfcVjyeAmpXXvnjfLshdRZPXIsrywv0/eMf/4grrriqVjWpX/fdZ59sFL7ySH9Dv/3trcXjaVrdG66/Lh+hr+7fRXn2Tu+UU06JHbORDdMIfinId8UVV8bIke8Vz//2t0+LnXbaMd+uGzhNo0J+7nP7xZAhm8To0aPi/gf+kk9vXDw5Wyn9uyjdb50AAQIECBAgQIAAAQIECBAgQIBAYwk0ONCXbjj+l9dE2xefj3bpBWMWdktJverAXkqdVS+F7FkeqkvH88hc4Wj2ncJ2+b9sOtvsF7Lzt/5w9Dv2pJIGq7466fmrouPMJ6JD1055eSnUl9eXfaRyl7WkmlPAMLVJpeUBuiwwN3v6rJjTedfo9eHaL3yXdZ0V7b/uxSvi2TnPRKfMr2pRFjPM7pcCfemWy64vFZ4F+LJG+Vq2ktbTdLuzpk6PHTt+LI7ZpnHqW1H9jhMgQIAAAQIECBAgQIAAAQIEVlYgBfFS8GpllhT4O/XUJe870vuTX/zil/Hww4806DLbbbdtfCebqraisjJvX7V4cRxy2Fdj/rz5DTo/NSoNbjUkKLeiQN+MGTPiyCOPqvf+pc878t134+xsVLjZs2fXatunT5+YNj17l1bnGU4++aTYZZdd8rYNqbPWRdfSxvICfalvrshG2qsbqFxWafvuu0/meETx8M9//oul/i7at28fnTt3jvfff7/YLq0MGDggrrrix3nYL23XDQSmfStaSv8uVtTWcQIECBAgQIAAAQIECBAgQIAAAQKrIrBSgb45w16JcT+7Mvplv3zOfv6c3S8l0qrzb9XTVuTRtJo6Cus133lSLmubfadgWsyfHxOy6Sr6ffPk6DB0i5pzVu9r3sSX4/1nfxwD+s6LssqsvjT1bn6z7LrpOy8ln+i2eKM0Jl9hfz5qYLZZlUboW7ggxkxoF713PC3a9dmy2H51Voa9/1L8/D8/joV9qqIi86vK6qvGyL6y9URUrLdwo5ry8oNpX7adfm28cMGCqJxYFsdte1oM7b1VobVvAgQIECBAgAABAgQIECBAgECTEpg/b15c+5OfNjiw9aUvHRgHHvjF/B1S6YOk4NeVV10d//jHM6W7l1rffPOhcc7Z3ytOp1to8MQTT8Q11/yksFnrO72T2XnnneOpp54u7i8NbjUkKLeiQF+68LXX/iQef/yJ4j0KK6WBvrQvTfV6/vkXxrzMbnlLml42TTNbWBpSZ6Ht2vxeXqAv1bFo4cK4NAt+/uc/Ly63rB123CFOOvGESIG9wtLQv4s0xfElF18Uffv2LZyaf99xxx1x111/qLWvsJFG7Pv4xz8eDz30cGFXraBncacVAgQIECBAgAABAgQIECBAgAABAo0osFKBvnTfqX+9LybedF0MHLhuRP4r5yWhtOzdZz7iXEqdFUfmKwT50rGa9che0o0a9V70PfIb0X3v/dJlG22Z8ca9Mfk/v4z11u8RkU3LkUbpSyG56npShdmS7ciDfGm1ekfWIDuW/s9OSaPnjXx7cvTc7rjosvHn8haN9fHXt++Nm1/+WfRcv39UVKRQX/VIfYXrVwcj81Kqd6W6UpGp9Ly+bArhRYti0ttj44itvhl7b/B/hVN9EyBAgAABAgQIECBAgAABAgSapEB63/Hoo49mU5g+EO++M7LeGvuv0z8OO/TQ2DELbS1rSe9Ebs8CWA8/8khMy2YuKF06duwYu+22ax5w69ChQ+mh4voD2f3vu+/+mDhxYnFfj5494qivfS1mzpyRjQJ4XXH/pz71iTjmmGPy7RdeeCEuueTS4rHtt98uvvvdM4vbaeW//30pLrzwouK+rbfeKs455+zidlqZO3duPPbYY1n9j8Z7I0fGoux50nurj3989zjhhONrtU1T9N5+x53xysuv1NqfNjYesnEc9JWvRLpH6dKQOkvbr631I4/8WsyYMbN4u8svvzQ23HDD4nZaScHPW269LQ88zpo1q3gsvRpbZ8CA2DUbhfCLX/zCUkHP1DAFApPVww8/HNOnzyiem1ZS+C9Nz/z5z/9fPmpfrYPZRvrbvOuu38f99z8QpffdYMMN4mtHHpFNvTu61t/FJz/5ifjGN6r/LupeyzYBAgQIECBAgAABAgQIECBAgACBxhBY6UBfuunku2+PSXfeGgMHDIxo26Zm2t3sQHoDWbKkDFo+oWya9zZPpGVf8xfEqLGjo/eXDo2eB3y5pHXjrU579Xcx9X+/icHr9chG6sumVkl1pf+zf9U11dwrbWRL/pU+UphvwaIY+c7k6L7l4dFt6EH58cb++OOI2+KuYTdH98F9o7Jt2yzUl90hjSZYc6PCd0151UG+bKMsjcyX+U0dOT4OHHpE7D9kzdTX2M/regQIECBAgAABAgQIECBAgACBgkAKso0dNz4mT56Uh6m6desWg9ZdNwYNHlxossLvFOwbP2FCTJo0KQ94pWv079cvKvMZJVZ4en7e2LFjo0ePHrFO//7FKVhXfGbjtkgzMJSXly/3/tOmTcunjp01a3b06J49Z1Zvm+x9Uktdkknq2ylTpkS7dm1j0KDBtUbkW95zl/5dVFRURL/sb6Jnz57LO6V4LJ07MZuid14WuuzZq1e94b9iYysECBAgQIAAAQIECBAgQIAAAQIE1qDAKgX6Uj1ppL6p998b3RbMj3Zdu6R5YPPQXH215oPMLaqKeTOmx7TsxWr3fT/f6CPz1b1vGqlv2vC7o2fnGdGxc8fq+moic9W5w2yMvmLQMIvQZYG62TNnx5SZXaPrZgc0+sh8detLI/Xd/8bdMbvTnOjQpVP24ra8JnCYjSWYJ/yyAF+Cy4flq8pG5Vscc2bOio4z28e+G3/ByHx1QW0TIECAAAECBAgQIECAAAECBAgQIECAAAECBAgQIECAAAECBAgQIECgmQuscqAvPfecV1+J6U88EtOffiy6tWuf/1q2Mo3YV5lNJZsaLFyQjyg3b+6cmDZvfnTZeffoutue0WHzLdLRNb7Mm/hSzBz5SMx659Ho2jWiY/s20Sb7ZW9Z9gvdlD5MU+suyOqaPXd+Nh1HROf19oyOg/eM9n1rT1eypgp99f2X4qlRD8XTox/Lbl4R7Tq0z0bsq4zyzC8ti3O/hTFvztyImYti54F7xK6D9oqhvdZOfXkRPggQIECAAAECBAgQIECAAAECBAgQIECAAAECBAgQIECAAAECBAgQIEBgrQisVqCvUOHcEcNj9ssvxdw3hsf8996NBZMm5tPYVvbqG20HDYp2G28WnbbcOtoP2axwylr9nv/+qzFn4n9j3uThsWDKu7FwzsT8/pUd+kSbHutFu55Do0MW4mvba/O1WlfhZiMmvxqvTPpvvDFleLw37Z2YNHdiPlpf76y+Qd3Wi417DI0tem0dQ3p+MPUV6vRNgAABAgQIECBAgAABAgQIECBAgAABAgQIECBAgAABAgQIECBAgAABAmtOoFECfWuuPFcmQIAAAQIECBAgQIAAAQIECBAgQIAAAQIECBAgQIAAAQIECBAgQIAAAQKtQ0Cgr3X0s6ckQIAAAQIECBAgQIAAAQIECBAgQIAAAQIECBAgQIAAAQIECBAgQIAAgSYuINDXxDtIeQQIECBAgAABAgQIECBAgAABAgQIECBAgAABAgQIECBAgAABAgQIECDQOgQE+lpHP3tKAgQIECBAgAABAgQIECBAgAABAgQIECBAgAABAgQIECBAgAABAgQIEGjiAgJ9TbyDlEeAAAECBAgQIECAAAECBAgQIECAAAECBAgQIECAAAECBAgQIECAAAECrUNAoK919LOnJECAAAECBAgQIECAAAECBAgQIECAAAECBAgQIECAAAECBAgQIECAAIEmLiDQ18Q7SHkECBAgQIAAAQIECBAgQIAAAQIECBAgQIAAAQIECBAgQIAAAQIECBAg0DoEBPpaRz97SgIECBAgQIAAAQIECBAgQIAAAQIECBAgQIAAAQIECBAgQIAAAQIECBBo4gICfU28g5RHgAABAgQIECBAgAABAgQIECBAgAABAgQIECBAgAABAgQIECBAgAABAq1DQKCvdfSzpyRAgAABAgQIECBAgAABAgQIECBAgAABAgQIECBAgAABAgQIECBAgACBJi4g0NfEO0h5BAgQIECAAAECBAgQIECAAAECBAgQIECAAAECBAgQIECAAAECBAgQINA6BAT6Wkc/e0oCBAgQIECAAAECBAgQIECAAAECBAgQIECAAAECBAgQIECAAAECBAgQaOICAn1NvIOUR4AAAQIECBAgQIAAAQIECBAgQIAAAQIECBAgQIAAAQIECBAgQIAAAQKtQ0Cgr3X0s6ckQIAAAQIECBAgQIAAAQIECBAgQIAAAQIECBAgQIAAAQIECBAgQIAAgSYuINDXxDtIeQQIECBAgAABAgQIECBAgAABAgQIECBAgAABAgQIECBAgAABAgQIECDQOgQE+lpHP3tKAgQIECBAgAABAgQIECBAgAABAgQIECBAgAABAgQIECBAgAABAgQIEGjiAmWvvfZaVROvUXkECBAgQIAAAQIECBAgQIAAAQIECBAgQIAAAQIECBAgQIAAAQIECBAgQKDFC5RNnz5doK/Fd7MHJECAAAECBAgQIECAAAECBAgQIECAAAECBAgQIECAAAECBAgQIECAAIGmLlBWlS1NvUj1ESBAgAABAgQIECBAgAABAgQIECBAgAABAgQIECBAgAABAgQIECBAgACBli4g0NfSe9jzESBAgAABAgQIECBAgAABAgQIECBAgAABAgQIECBAgAABAgQIECBAgECzEBDoaxbdpEgCBAgQIECAAAECBAgQIECAAAECBAgQIECAAAECBAgQIECAAAECBAgQaOkCAn0tvYc9HwECBAgQIECAAAECBAgQIECAAAECBAgQIECAAAECBAgQIECAAAECBAg0CwGBvmbRTYokQIAAAQIECBAgQIAAAQIECBAgQIAAAQIECBAgQIAAAQIECBAgQIAAgZYuINDX0nvY8xEgQIAAAQIECBAgQIAAAQIECBAgQIAAAQIECBAgQIAAAQIECBAgQIBAsxAQ6GsW3aRIAgQIECBAgAABAgQIECBAgAABAgQIECBAgAABAgQIECBAgAABAgQIEGjpAgJ9Lb2HPR8BAgQIECBAgAABAgQIECBAgAABAgQIECBAgAABAgQIECBAgAABAgQINAsBgb5m0U2KJECAAAECBAgQIECAAAECBAgQIECAAAECBAgQIECAAAECBAgQIECAAIGWLiDQ19J72PMRIECAAAECBAgQIECAAAECBAgQIECAAAECBAgQIECAAAECBAgQIECAQLMQEOhrFt2kSAIECBAgQIAAAQIECBAgQIAAAQIECBAgQIAAAQIECBAgQIAAAQIECBBo6QICfS29hz0fAQIECBAgQIAAAQIECBAgQIAAAQIECBAgQIAAAQIECBAgQIAAAQIECDQLAYG+ZtFNiiRAgAABAgQIECBAgAABAgQIECBAgAABAgQIECBAgAABAgQIECBAgACBli4g0NfSe9jzESBAgAABAgQIECBAgAABAgQIECBAgAABAgQIECBAgAABAgQIECBAgECzEBDoaxbdpEgCBAgQIECAAAECBAgQIECAAAECBAgQIECAAAECBAgQIECAAAECBAgQaOkCAn0tvYc9HwECBAgQIECAAAECBAgQIECAAAECBAgQIECAAAECBAgQIECAAAECBAg0CwGBvmbRTYokQIAAAQIECBAgQIAAAQIECBAgQIAAAQIECBAgQIAAAQIECBAgQIAAgZYuINDX0nvY8xEgQIAAAQIECBAgQIAAAQIECBAgQIAAAQIECBAgQIAAAQIECBAgQIBAsxAQ6GsW3aRIAgQIECBAgAABAgQIECBAgAABAgQIECBAgAABAgQIECBAgAABAgQIEGjpAgJ9Lb2HPR8BAgQIECBAgAABAgQIECBAgAABAgQIECBAgAABAgQIECBAgAABAgQINAsBgb5m0U2KJECAAAECBAgQIECAAAECBAgQIECAAAECBAgQIECAAAECBAgQIECAAIGWLiDQ19J72PMRIECAAAECBAgQIECAAAECBAgQIECAAAECBAgQIECAAAECBAgQIECAQLMQEOhrFt2kSAIECBAgQIAAAQIECBAgQIAAAQIECBAgQIAAAQIECBAgQIAAAQIECBBo6QICfS29hz0fAQIECBAgQIAAAQIECBAgQIAAAQIECBAgQIAAAQIECBAgQIAAAQIECDQLAYG+ZtFNiiRAgAABAgQIECBAgAABAgQIECBAgAABAgQIECBAgAABAgQIECBAgACBli4g0NfSe9jzESBAgAABAgQIECBAgAABAgQIECBAgAABAgQIECBAgAABAgQIECBAgECzEBDoaxbdpEgCBAgQIECAAAECBAgQIECAAAECBAgQIECAAAECBAgQIECAAAECBAgQaOkCAn0tvYc9HwECBAgQIECAAAECBAgQIECAAAECBAgQIECAAAECBAgQIECAAAECBAg0CwGBvmbRTYokQIAAAQIECBAgQIAAAQIECBAgQIAAAQIECBAgQIAAAQIECBAgQIAAgZYuINDX0nvY8xEgQIAAAQIECBAgQIAAAQIECBAgQIAAAQIECBAgQIAAAQIECBAgQIBAsxAQ6GsW3aRIAgQIECBAgAABAgQIECBAgAABAgQIECBAgAABAgQIECBAgAABAgQIEGjpAgJ9Lb2HPR8BAgQIECBAgAABAgQIECBAgAABAgQIECBAgAABAgQIECBAgAABAgQINAsBgb5m0U2KJECAAAECBAgQIECAAAECBAgQIECAAAECBAgQIECAAAECBAgQIECAAIGWLiDQ19J72PMRIECAAAECBAgQIECAAAECBAgQIECAAAECBAgQIECAAAECBAgQIECAQLMQEOhrFt2kSAIECBAgQIAAAQIECBAgQIAAAQIECBAgQIAAAQIECBAgQIAAAQIECBBo6QICfS29hz0fAQIECBAgQIAAAQIECBAgQIAAAQIECBAgQIAAAQIECBAgQIAAAQIECDQLAYG+ZtFNiiRAgAABAgQIECBAgAABAgQIECBAgAABAgQIECBAgAABAgQIECBAgACBli4g0NfSe9jzESBAgAABAgQIECBAgAABAgQIECBAgAABAgQIECBAgAABAgQIECBAgECzEGg2gb7ZcxbFdb99L+55fGYsWtwsbBXZDAQqyiMO+HjnOPqwQdGhfUUzqFiJBAgQIECAAAECBAgQIECAAAECBAgQIECAAAECBAgQIECAAAECBAi0VIFmEeibM3dR7Pv14bFgUVVL7QfP9QELtGtTFn++fmi0b5cl/CwECBAgQIAAAQIECBAgQIAAAQIECBAgQIAAAQIECBAgQIAAAQIECBD4AASaRaDvp796J27/+8wPgMctW5PAoXt3iW8cvl5remTPSoAAAQIECBAgQIAAAQIECBAgQIAAAQIECBAgQIAAAQIECBAgQIBAExJoFoG+T3z1fzFvgdH5mtDfTYsspVO7svjrTR9qkc/moQgQIECAAAECBAgQIECAAAECBAgQIECAAAECBAgQIECAAAECBAgQaPoCzSLQt/vBr8Rieb6m/9fUzCuszGbbffTWLZr5UyifAAECBAgQIECAAAECBAgQIECAAAECBAgQIECAAAECBAgQIECAAIHmKiDQ11x7Tt2NLiDQ1+ikLkiAAAECBAgQIECAAAECBAgQIECAAAECBAgQIECAAAECBAgQIECAwEoICPStBJamLVtAoK9l96+nI0CAAAECBAgQIECAAAECBAgQIECAAAECBAgQIECAAAECBAgQINDUBQT6mnoPqW+tCQj0rTVqNyJAgAABAgQIECBAgAABAgQIECBAgAABAgQIECBAgAABAgQIECBAoB4Bgb56UOxqnQICfa2z3z01AQIECBAgQIAAAQIECBAgQIAAAQIECBAgQIAAAQIECBAgQIAAgaYiINDXVHpCHR+4gEDfB94FCiBAgAABAgQIECBAgAABAgQIECBAgAABAgQIECBAgAABAgQIECDQqgUE+lp193v4UgGBvlIN6wQIECBAgAABAgQIECBAgAABAgQIECBAgAABAgQIECBAgAABAgQIrG0Bgb61Le5+TVZAoK/Jdo3CCBAgQIAAAQIECBAgQIAAAQIECBAgQIAAAQIECBAgQIAAAQIECLQKAYG+VtHNHrIhAgJ9DVHShgABAgQIECBAgAABAgQIECBAgAABAgQIECBAgAABAgQIECBAgACBNSUg0LemZF232QkI9DW7LlMwAQIECBAgQIAAAQIECBAgQIAAAQIECBAgQIAAAQIECBAgQIAAgRYlINDXorrTw6yOgEDf6ug5lwABAgQIECBAgAABAgQIECBAgAABAgQIECBAgAABAgQIECBAgACB1RUQ6FtdQee3GAGBvhbTlR6EAAECBAgQIECAAAECBAgQIECAAAECBAgQIECAAAECBAgQIECAQLMUEOhrlt2m6DUhINC3JlRdkwABAgQIECBAgAABAgQIECBAgAABAgQIECBAgAABAgQIECBAgACBhgoI9DVUSrsWLyDQ1+K72AMSIECAAAECBAgQIECAAAECBAgQIECAAAECBAgQIECAAAECBAgQaNICAn1NunsUtzYFBPrWprZ7ESBAgAABAgQIECBAgAABAgQIECBAgAABAgQIECBAgAABAgQIECBQV0Cgr66I7VYrINDXarvegxMgQIAAAQIECBAgQIAAAQIECBAgQIAAAQIECBAgQIAAAQIECBBoEgItMtB31lG9o3u3NjnwGVeMbRLQimj6AgJ9Tb+PVEiAAAECBAgQIECAAAECBAgQIECAAAECBAgQIECAAAECBAgQIECgJQu0yEDfH64dEn17t8v7bdeDXmnJ/efZGlFAoK8RMV2KAAECBAgQIECAAAECBAgQIECAAAECBAgQIECAAAECBAgQIECAAIGVFhDoW2kyJzRFgS3Wq4wTDl8nL+3tkbPjspsmrXSZAn0rTeYEAgQIECBAgAABAgQIECBAgAABAgQIECBAgAABAgQIECBAgAABAgQaUUCgrxExXeqDE9h1y3ZxyVlD8gKGvTY9jjl/5EoXI9C30mROIECAAAECBAgQIECAAAECBAgQIECAAAECBAgQIECAAAECBAgQIECgEQUE+hoR06U+OAGBvg/O3p0JECBAgAABAgQIECBAgAABAgQIECBAgAABAgQIECBAgAABAgQIEGgcAYG+xnF0lQ9YQKDvA+4AtydAgAABAgQIECBAgAABAgQIECBAgAABAgQIECBAgAABAgQIECBAYLUFWl2g7wt7dI6ysoip0xbGQ/+emwPuNLRd7LZD5+jRvTIWLYp4b/TcuO+JGTFm0uIVAvfvUR777tol1lu3XbRrVxHTZyzMzp8Xf3hkRsyaV7XU+ev2Lo+dtuqY73/7vfnx7xHz40ODK2O/vbpn928Tjz0zNf7yzzlLnbde34r4THafQQPaRWU2N+zMWQvj1dfnxB8fnxmLl75Nfn59z/qFj3eOzTfpEJ06VsSESfPjgUenx/BRC2vdb6P+2b126xID12mXe4wZNy9+//fpMWHaij1Wpc5PbN8+unerjKrsOf7w6My8lg36VcRn9+gafXu1yZ63LCZOWhCPPDMjXnxzQa1ad9isbQwe0Db6966ML++/bn5s5KjZ8ce/TMjXp01fGH9/vrqfa51Yz4Ypd+tBsYsAAQIECBAgQIAAAQIECBAgQIAAAQIECBAgQIAAAQIECBAgQIAAgbUm0OoCfY/f+qEoLy+Ld9+bHWdc9k6cd8K6sflmXZcCnzt3Udxxz5i44d5pSx1LO7JLxDnH9Inddu4TbduUL9VmzpxF8cBD4+Kq26bUOrb/7p3i1GM3yPc9/PiEeP2t2fH1QwdHm5pr/PnBsXHZTZOK56T7fP+bfWOXnfrkwbbigZqVSVPmxY23jYn7nppV91CUPutF14yMc09eLwYN7FCr3cKFVXHvX8fEVbdW13nmkb3jU3v0LdZTaDx//uLMY3Rc98dle6xqnbdcvmGsN6hjLM6SiXsc+r84O3PdY5e+Sz1vOv7UP9+Pc34yvhhivPTk/rHzjr0LZS71/d7o2XHwt99aan99OwT66lOxjwABAgQIECBAgAABAgQIECBAgAABAgQIECBAgAABAgQIECBAgACBtSXQagN9KegVUVYMuM2avSgbIa4qOneqLNqnEeN+ftM78bu/VY8aVzjQqV1ZXP29wbHpkC6FXbEoC5vNzq6RRr5LgcHC8q8XJsdpPxxT2IzSQN8zz02K7bfuEW3bLgkElgb66rtPCtbNy/6V3ieF8m6+/b246f7pxfuklUKgL41Yl0KH/fu1z0bcq4r0rOn8iooldf781+/E+oPax2c+0T+/xtx5i2PBgsW5RxrRMC0r47EydZYG+p5+9v3Y9aN98vvNy2rIn7VTVmuJ6RP/mBjfu3Z83kagL2fwQYAAAQIECBAgQIAAAQIECBAgQIAAAQIECBAgQIAAAQIECBAgQIBACxBotYG+Qt+9/L9pccPt4+OFN+bnu7besE2cdOSA2GTj6rBeGgHvgONHFEeES40uPL5vfDwbQS4ts7OR+O65f2z86t6pMS+bubZdlgc8bN9u8cX9BkSnLIiWllt/Pyp+8Yep+XppoC+dG1lo8J4Hxsajz86M2VmArSxLz707IdufLd8/rm/suVv1fSa8Py+7zpi4+/HqkfgG9CqPr3+xV+yVHU8BwhR8+9Y5r8f/Ri6ZPrcQ6EtBvBRWfPCR8fHz2yfFlFlV0adreRx/cO/Ya/fq66fn7N61bR72+82do+KOh6pDjGk64FO+PrAYXkx1fOHEEXl9hY/VrbMQ6Ctcb+z4uXHTHaPjgWeqpx7u2608Tjikd+yxa3WtaaS+b537eq3pd3fdsl1cctaQ/BLDXpsex5w/snC5Bn8boa/BVBoSIECAAAECBAgQIECAAAECBAgQIECAAAECBAgQIECAAAECBAgQILAGBFp1oO+/r0yLEy5+bynW7h3L4rarN40unatH6zv/8jfi4f/Mzdt9ZNO28aNzh+QhuvnZCHbn//DNePLleUtdY69t28fZp26UTxs7ddr82O/Y1/M2pYG+FEy74EdvFq9depHtNm4bV5w/JB9Fb/KU+XH0d9+ICdMWlzbJ1086qEcc+LmB+foLL02Jb/1gdLFNIdCXdtz/t3Fx6a/fLx4rrPzsnEGx5ebd8s00yuA5l76x1PN07ZB5XLVJdOvaJm+XgoOFAGRj1Fka6Ht/8rz42hlv5KHDQo2F7+u/Pzg226R6euQ/Pzgum5p4yfMI9BWUfBMgQIAAAQIECBAgQIAAAQIECBAgQIAAAQIECBAgQIAAAQIECBAg0FwFWm2gL41ad9yZw2uNaFfaiaWj8N2WjbD385oR9s77Rt/4xMerR4r7+2Pj44JfTiw9rdb6VWcOzKfUTTvPvGhEPP2/ebWm3H3z7ZlxxFnv1DqnsHH20X3i03v2yzevu/nd+O1fZxQOLfV990+GRJ9e7WLu3EXxuW8Mjznzs4fLlkKgL01de8Bxw2L6nOr9pRc4fJ+u8fXDee4+6QAAQABJREFUBue7Rrw5I7529rulh4vrP/r2gNhx+5759hW/eDv+WDNSYGPUWRro++2d78V1f5xWvG/pyhf37BzfOnr9fFfd8KJAX6mUdQIECBAgQIAAAQIECBAgQIAAAQIECBAgQIAAAQIECBAgQIAAAQIEmqNAqw30TcpGgvt8NpXuspZvHtg9Djpg3fzwvX8ZGz/6zaR8/c4rN4p1+nfI11Mg8JV3l0xxW/daafrdDm3L8t2z5lXFgmwm3dIR+p7658T47tXj656Wb99+xUYxcJ0O+VS6+x09rBjSq6/xxSf2i90+1ic/dNlP3o4/P109LW8h0Ddm3Jz48ilv1ndqfG6XTnH68Rvkx5ZXzznH9IlP7VEdMPzpr96J2/9ePSVvY9RZGuj72mnDYsSY6imH6xacpkP+ycWb5ruHvz49jj5vybS6An11tWwTIECAAAECBAgQIECAAAECBAgQIECAAAECBAgQIECAAAECBAgQINDcBFptoG/kqNlxyOlvLbO/Skeu+/ODY7PpXasDfX+9cWh06lgR06YviM9+47Vlnr+sA6WBvocfnxDn/2JCvU3/ekN2n04V+bEn/rHsUQBTg+227hGdO1VPD3zTbSPjxvum5+cVAn3vvjc7Dj2j/mfdLwv0nVET6HvsqQlxzk/rr+d7X+8Te++1dKCvMeosBPrSqIm7HfxKXnt9H327lccffrF5fui1ETPi6+cuGU1QoK8+MfsIECBAgAABAgQIECBAgAABAgQIECBAgAABAgQIECBAgAABAgQIEGhOAq020Le8kFvqwPoCfW2yfN3Dv90iyrJB98aOnxtfOvmNle7rhgT6yrPrP3rLh6I8razkcs8DY+LHv52cn7WmA32NVWch0Ld4cVXsfsj/lvnEAn3LpHGAAAECBAgQIECAAAECBAgQIECAAAECBAgQIECAAAECBAgQIECAAIEWICDQt4xOrC/Ql5o+lgXtKirKYvzEufHFk9ZMoC+/z63ZfWoCff99ecoyqqze3bFjZcyesziianE88ey0uPPh6ulw13Sgr7HqFOhbbvc6SIAAAQIECBAgQIAAAQIECBAgQIAAAQIECBAgQIAAAQIECBAgQIBAKxEQ6FtGRy8r0Hf/dZtF1y6VMWv2otj7qGHLOHvZuxsyQl86+4HrN4sunStjwvvz4gsnjlj2BZdzZG0E+hqjToG+5XSiQwQIECBAgAABAgQIECBAgAABAgQIECBAgAABAgQIECBAgAABAgQItBoBgb5ldPWyAn2/vXT9WH+9zvlZZ10yIp58ed4yrhCx/ZC2sdmGbfPjz740J94YuygaGui79YcbxuB1O8bChVXx5ROGxYRp2Qh8K7msjUBfY9Qp0LeSHas5AQIECBAgQIAAAQIECBAgQIAAAQIECBAgQIAAAQIECBAgQIAAAQItUkCgbxnduqxA3ymH9IgDPjswP+u5/0yOUy8fs4wrRPzqovViyEZd8uPHn/VavPT2ggYH+s48snfs+6n++bl3/3l0XHnrsqfdPTmrafMh1fe54oYxMXzUwvy8tRHoa4w6GzvQN/z16XH0eSOX2S/LOlBZHvHorVss67D9BAgQIECAAAECBAgQIECAAAECBAgQIECAAAECBAgQIECAAAECBAgQWKMCAn3L4F1WoG+DfhXxy0s3iQ7tK6KqKgvt3Toybrp/+lJX+dpnu8YRBw+OsrKIUWPmxEGnvZm3aegIfUMHVcZPLtok2rYtj3nzFscPrn4rHv7P3KXus+c27eN7p2yYt5sydX587rjXi23WRqCvMepsjEBfGg3xqgs2yZ995KjZccjpbxUdGroi0NdQKe0IECBAgAABAgQIECBAgAABAgQIECBAgAABAgQIECBAgAABAgQIEFgTAgJ9y1BdVqAvNf/GAd3j0APXzc9cvLgqXnhpajzxz6kxatyCGNivTey6Y7fYfpseUVFeFouy4z/86dtx/z9m5+0bGuhLjU89rGfsv8+A/Lz5CxbHP5+bFM+8MDPGTlgQfXpUxMc+3CV23rF3HuZLjW747ci4+YEl4cK1EehL913dOhsj0NeuMuKBX20ebduUR+qT637zbvzubzMjW23wItDXYCoNCRAgQIAAAQIECBAgQIAAAQIECBAgQIAAAQIECBAgQIAAAQIECBBYAwICfctAXV6gL51y1lG9Y++9+ucj8C3jErFoUVXccteouOHeacUmKxPoSyddeHzf+PgufYvn17eSRgp84O/j4tJfv1/r8NoK9KWbrk6djRHoSzVcccaA+Mi2PdNqvqQw5XvZaH2Hfeftwq7lfgv0LZfHQQIECBAgQIAAAQIECBAgQIAAAQIECBAgQIAAAQIECBAgQIAAAQIE1rCAQN8ygFcU6EunHbhX5zhgn36x7oAOta6SgmRvvT0zfn3HuHjy5Xm1jq1soC+dfNjeXWK/vfvFOv3a17pWCvK9O3Jm3P6nCcURAEsbrM1A3+rU2ViBvl5dyuKik9eNDw3tVgxavjd6dhz87YZNvyvQV/rXY50AAQIECBAgQIAAAQIECBAgQIAAAQIECBAgQIAAAQIECBAgQIAAgbUt0CIDfWsbcciAith6sw7RsV15TJq2MF4eMTdGTlzc6GUMHVQZW2zSPjpl95k+a1E8/+qcNXKf1S38g64z9cd2m3eI9m3LY/S4+fHQC3Mb9EgCfQ1i0ogAAQIECBAgQIAAAQIECBAgQIAAAQIECBAgQIAAAQIECBAgQIAAgTUkINC3hmBdtvkJCPQ1vz5TMQECBAgQIECAAAECBAgQIECAAAECBAgQIECAAAECBAgQIECAAIGWJCDQ15J607OsloBA32rxOZkAAQIECBAgQIAAAQIECBAgQIAAAQIECBAgQIAAAQIECBAgQIAAgdUUEOhbTUCntxwBgb6W05eehAABAgQIECBAgAABAgQIECBAgAABAgQIECBAgAABAgQIECBAgEBzFBDoa469puY1IiDQt0ZYXZQAAQIECBAgQIAAAQIECBAgQIAAAQIECBAgQIAAAQIECBAgQIAAgQYKCPQ1EEqzli8g0Nfy+9gTEiBAgAABAgQIECBAgAABAgQIECBAgAABAgQIECBAgAABAgQIEGjKAgJ9Tbl31LZWBQT61iq3mxEgQIAAAQIECBAgQIAAAQIECBAgQIAAAQIECBAgQIAAAQIECBAgUEdAoK8OiM3WKyDQ13r73pMTIECAAAECBAgQIECAAAECBAgQIECAAAECBAgQIECAAAECBAgQaAoCAn1NoRfU0CQEBPqaRDcoggABAgQIECBAgAABAgQIECBAgAABAgQIECBAgAABAgQIECBAgECrFRDoa7Vd78HrCgj01RWxTYAAAQIECBAgQIAAAQIECBAgQIAAAQIECBAgQIAAAQIECBAgQIDA2hQQ6Fub2u7VpAUE+pp09yiOAAECBAgQIECAAAECBAgQIECAAAECBAgQIECAAAECBAgQIECAQIsXEOhr8V3sARsqINDXUCntCBAgQIAAAQIECBAgQIAAAQIECBAgQIAAAQIECBAgQIAAAQIECBBYEwICfWtC1TWbpYBAX7PsNkUTIECAAAECBAgQIECAAAECBAgQIECAAAECBAgQIECAAAECBAgQaDECAn0tpis9yOoKCPStrqDzCRAgQIAAAQIECBAgQIAAAQIECBAgQIAAAQIECBAgQIAAAQIECBBYHQGBvtXRc26LEhDoa1Hd6WEIECBAgAABAgQIECBAgAABAgQIECBAgAABAgQIECBAgAABAgQINDuBZhHoO+jEYTHq/UXNDlfBzUtgg/4V8ZsrhzavolVLgAABAgQIECBAgAABAgQIECBAgAABAgQIECBAgAABAgQIECBAgECLEWgWgb4nn5kYZ10zvsWge5CmKXDZKevEx3bo1TSLUxUBAgQIECBAgAABAgQIECBAgAABAgQIECBAgAABAgQIECBAgAABAi1eoFkE+lIv/PKmd+KWB2e2+A7xgB+MwOH7dI2vHzb4g7m5uxIgQIAAAQIECBAgQIAAAQIECBAgQIAAAQIECBAgQIAAAQIECBAgQCATaDaBvtRbo8fOief+MyVmz1ms8wg0ikCnjhXxkW27x4D+HRrlei5CgAABAgQIECBAgAABAgQIECBAgAABAgQIECBAgAABAgQIECBAgACBVRVoVoG+VX1I5xEgQIAAAQIECBAgQIAAAQIECBAgQIAAAQIECBAgQIAAAQIECBAgQIAAgaYuINDX1HtIfQQIECBAgAABAgQIECBAgAABAgQIECBAgAABAgQIECBAgAABAgQIECDQKgQE+lpFN3tIAgQIECBAgAABAgQIECBAgAABAgQIECBAgAABAgQIECBAgAABAgQIEGjqAgJ9Tb2H1EeAAAECBAgQIECAAAECBAgQIECAAAECBAgQIECAAAECBAgQIECAAAECrUJAoK9VdLOHJECAAAECBAgQIECAAAECBAgQIECAAAECBAgQIECAAAECBAgQIECAAIGmLiDQ19R7SH0ECBAgQIAAAQIECBAgQIAAAQIECBAgQIAAAQIECBAgQIAAAQIECBAg0CoEBPpaRTd7SAIECBAgQIAAAQIECBAgQIAAAQIECBAgQIAAAQIECBAgQIAAAQIECBBo6gICfU29h9RHgAABAgQIECBAgAABAgQIECBAgAABAgQIECBAgAABAgQIECBAgAABAq1CQKCvVXSzhyRAgAABAgQIECBAgAABAgQIECBAgAABAgQIECBAgAABAgQIECBAgACBpi4g0NfUe0h9BAgQIECAAAECBAgQIECAAAECBAgQIECAAAECBAgQIECAAAECBAgQINAqBAT6WkU3e0gCBAgQIECAAAECBAgQIECAAAECBAgQIECAAAECBAgQIECAAAECBAgQaOoCAn1NvYfUR4AAAQIECBAgQIAAAQIECBAgQIAAAQIECBAgQIAAAQIECBAgQIAAAQKtQkCgr1V0s4ckQIAAAQIECBAgQIAAAQIECBAgQIAAAQIECBAgQIAAAQIECBAgQIAAgaYuINDX1HtIfQQIECBAgAABAgQIECBAgAABAgQIECBAgAABAgQIECBAgAABAgQIECDQKgQE+lpFN3tIAgQIECBAgAABAgQIECBAgAABAgQIECBAgAABAgQIECBAgAABAgQIEGjqAgJ9Tb2H1EeAAAECBAgQIECAAAECBAgQIECAAAECBAgQIECAAAECBAgQIECAAAECrUJAoK9VdLOHJECAAAECBAgQIECAAAECBAgQIECAAAECBAgQIECAAAECBAgQIECAAIGmLiDQ19R7SH0ECBAgQIAAAQIECBAgQIAAAQIECBAgQIAAAQIECBAgQIAAAQIECBAg0CoEBPpaRTd7SAIECBAgQIAAAQIECBAgQIAAAQIECBAgQIAAAQIECBAgQIAAAQIECBBo6gICfU29h9RHgAABAgQIECBAgAABAgQIECBAgAABAgQIECBAgAABAgQIECBAgAABAq1CQKCvVXSzhyRAgAABAgQIECBAgAABAgQIECBAgAABAgQIECBAgAABAgQIECBAgACBpi4g0NfUe0h9BAgQIECAAAECBAgQIECAAAECBAgQIECAAAECBAgQIECAAAECBAgQINAqBAT6WkU3e0gCBAgQIECAAAECBAgQIECAAAECBAgQIECAAAECBAgQIECAAAECBAgQaOoCAn1NvYfUR4AAAQIECBAgQIAAAQIECBAgQIAAAQIECBAgQIAAAQIECBAgQIAAAQKtQkCgr1V0s4ckQIAAAQIECBAgQIAAAQIECBAgQIAAAQIECBAgQIAAAQIECBAgQIAAgaYuINDX1HtIfQQIECBAgAABAgQIECBAgAABAgQIECBAgAABAgQIECBAgAABAgQIECDQKgQE+lpFN3tIAgQIECBAgAABAgQIECBAgAABAgQIECBAgAABAgQIECBAgAABAgQIEGjqAgJ9Tb2H1EeAAAECBAgQIECAAAECBAgQIECAAAECBAgQIECAAAECBAgQIECAAAECrUJAoK9VdLOHJECAAAECBAgQIECAAAECBAgQIECAAAECBAgQIECAAAECBAgQIECAAIGmLiDQ19R7SH0ECBAgQIAAAQIECBAgQIAAAQIECBAgQIAAAQIECBAgQIAAAQIECBAg0CoEBPpaQDdPnTo1xo0bF5MnT44pU6bE3LlzY8GCBdGmTZto37599OjRI//Xv3///LsFPLJHIECAAAECBAgQIECAAAECBAgQIECAAAECBAgQIECAAAECBAgQIECAQIsTEOhrhl26cOHCeP311+Nf//pX3HPPPXHvvfc2+Cn23Xff2H///WOHHXaIoUOHRmVlZYPP1ZAAAQIECBAgQIAAAQIECBAgQIAAAQIECBAgQIAAAQIECBAgQIAAAQIE1pyAQN+as230K8+ePTuefPLJuPrqq+Mvf/nLal9/zz33jFNPPTV233336Ny582pfzwUIECBAgAABAgQIECBAgAABAgQIECBAgAABAgQIECBAgAABAgQIECBAYNUFBPpW3W6tnbl48eJ4+umn49xzz43HHnus0e+70047xcUXX5wH+yoqKhr9+i5IgAABAgQIECBAgAABAgQIECBAgAABAgQIECBAgAABAgQIECBAgAABAisWEOhbsdEH2mLKlClx5ZVXxoUXXrjG6zj99NMj/evTp88av5cbECBAgAABAgQIECBAgAABAgQIECBAgAABAgQIECBAgAABAgQIECBAgEBtAYG+2h5NamvUqFFx7LHHxv3337/W6tp1113jpptuig033HCt3dONCBAgQIAAAQIECBAgQIAAAQIECBAgQIAAAQIECBAgQIAAAQIECBAgQCBCoK+J/hW89tprcdhhh8Vzzz231ivcZJNN4q677oqtttpqrd/bDQkQIECAAAECBAgQIECAAAECBAgQIECAAAECBAgQIECAAAECBAgQINBaBQT6mmDPDx8+PD75yU9GGqHvg1xeeOGF2HbbbT/IEtybAAECBAgQIECAAAECBAgQIECAAAECBAgQIECAAAECBAgQIECAAAECrUZAoK+JdfXEiRNj//33j6effrrBle25555x4IEH5uG7/v37R+fOnaN9+/Yxd+7cmD17dowfPz5efPHF+P3vfx8PPvhgg6+7+eabx1//+tcYNGhQg8/RkAABAgQIECBAgAABAgQIECBAgAABAgQIECBAgAABAgQIECBAgAABAgRWTUCgb9Xc1shZc+bMiRNPPDFuvPHGBl0/Bf9OOeWU2GmnnaJNmzYrPGfhwoX5FL7XXHNN3H777Stsnxqke9x0003RtWvXBrXXiAABAgQIECBAgAABAgQIECBAgAABAgQIECBAgAABAgQIECBAgAABAgRWTUCgb9Xc1shZP/vZz+L4449v0LWvv/76+OpXvxpt27ZtUPvSRinYd8cdd8Shhx5aunuZ69///vfj3HPPXeZxBwgQIECAAAECBAgQIECAAAECBAgQIECAAAECBAgQIECAAAECBAgQIEBg9QUE+lbfsFGu8Prrr8emm27aoGs99dRTsfPOOzeo7fIa/fvf/4599tknJkyYsLxm+bHUdrvttlthOw0IECBAgAABAgQIECBAgAABAgQIECBAgAABAgQIECBAgAABAgQIECBAYNUEBPpWza1Rz0oj5h177LENmmr3ySefjF122aXR7v/CCy/E9ttvv8Lr7bvvvnHXXXdFhw4dVthWAwIECBAgQIAAAQIECBAgQOD/2bvzOKvq+n/g72FYZBMVATfEMAhwS0jNXDLKMpdcslDUr6GZplbuawQuKYpa38JMv6a0kIa5/FSsTDMzFffEBUSRWEVQkX0d5jf34oxsc+be4c544DzvQ5lz7+f9+ZzP5/n5/Pl6nEOAAAECBAgQIECAAAECBAgQIECAAAECBAgULyDQV7xZyXs8+uij8ZWvfKXOce+///447LDD6qwrtuCxxx6Lvn371tlt5MiR8a1vfavOOgUECBAgQIAAAQIECBAgQIAAAQIECBAgQIAAAQIECBAgQIAAAQIECBAgULyAQF/xZiXtkXs63xFHHBGjRo1KHPeCCy6Iq666KsrLyxPr6tNYWVkZ11xzTVx88cWJ3Xfdddd4+umno1WrVol1GgkQIECAAAECBAgQIECAAAECBAgQIECAAAECBAgQIECAAAECBAgQIECgeAGBvuLNStrjueeeiz333DNxzK5du8bo0aOjQ4cOiXXr0zhnzpz80/9yr/RN+jz88MNx4IEHJpVoI0CAAAECBAgQIECAAAECBAgQIECAAAECBAgQIECAAAECBAgQIECAAIF6CAj01QOtlF1++MMfxi9/+cvEIe+8887o169fYk0pGnNhva997WuJQx1++OHx5z//OZo2bZpYp5EAAQIECBAgQIAAAQIECBAgQIAAAQIECBAgQIAAAQIECBAgQIAAAQIEihMQ6CvOq6TVEydOjNzT95I+3bt3j2effTbatWuXVFaStsWLF8chhxwS//jHPxLHe/HFF2P33XdPrNFIgAABAgQIECBAgAABAgQIECBAgAABAgQIECBAgAABAgQIECBAgAABAsUJCPQV51XS6rvuuiu+/e1vJ445YsSI6N+/f2JNKRv/8pe/xMEHH5w45LBhw+KMM85IrNFIgAABAgQIECBAgAABAgQIECBAgAABAgQIECBAgAABAgQIECBAgAABAsUJCPQV51XS6txrdEeOHJk45uTJk6Nz586JNaVsnD17dmyxxRaJQ+66667x3HPPRfPmzRPrNBIgQIAAAQIECBAgQIAAAQIECBAgQIAAAQIECBAgQIAAAQIECBAgQIBA4QICfYVblbRy2rRpsd122yWOefLJJ8ett96aWNMQjVdeeWUMHDgwcehXX301dtppp8QajQQIECBAgAABAgQIECBAgAABAgQIECBAgAABAgQIECBAgAABAgQIECBQuIBAX+FWJa0s5NW2uZqDDjqopPctZLBnn3029tprr8TS22+/Pb7zne8k1mgkQIAAAQIECBAgQIAAAQIECBAgQIAAAQIECBAgQIAAAQIECBAgQIAAgcIFBPoKtypp5VVXXRWXXnpp4pj//e9/o0uXLok1DdFYyGt3c2G+XKjPhwABAgQIECBAgAABAgQIECBAgAABAgQIECBAgAABAgQIECBAgAABAgRKIyDQVxrHokaprKyM/fbbL5588sla++2xxx7x9NNPR3l5ea01DdkwYMCAGD58eOIt5s+fH61bt06s0UiAAAECBAgQIECAAAECBAgQIECAAAECBAgQIECAAAECBAgQIECAAAEChQkI9BXmVNKqWbNmRceOHRPHvO666+Lcc89NrGnIxjvuuCP69++feIvx48dHt27dEms0EiBAgAABAgQIECBAgAABAgQIECBAgAABAgQIECBAgAABAgQIECBAgEBhAgJ9hTmVtOqll16K3r17J4750EMPxde//vXEmoZsfPbZZ2OvvfZKvMXDDz8cBx54YGKNRgIECBAgQIAAAQIECBAgQIAAAQIECBAgQIAAAQIECBAgQIAAAQIECBAoTECgrzCnklbdd999ceSRRyaO+fLLL8euu+6aWNOQjVOmTIntt98+8RY33nhjnH766Yk1GgkQIECAAAECBAgQIECAAAECBAgQIECAAAECBAgQIECAAAECBAgQIECgMAGBvsKcSlp18803x2mnnZY45owZM6JTp06JNQ3ZuHjx4mjZsmXiLS688MIYMmRIYo1GAgQIECBAgAABAgQIECBAgAABAgQIECBAgAABAgQIECBAgAABAgQIEChMQKCvMKeSVg0cODCuvPLKxDGXLVsWTZs2Taxp6MZ+/frFyJEja71N7pXAuVcD+xAgQIAAAQIECBAgQIAAAQIECBAgQIAAAQIECBAgQIAAAQIECBAgQIDA+gsI9K2/YdEjHHXUUXHvvffW2i8tQblCgodLly6NZs2a1boWDQQIECBAgAABAgQIECBAgAABAgQIECBAgAABAgQIECBAgAABAgQIECBQmIBAX2FOJatavnx5nQG4s88+O2644YaS3bO+A914441x5plnJnZ/7733on379ok1GgkQIECAAAECBAgQIECAAAECBAgQIECAAAECBAgQIECAAAECBAgQIECgbgGBvrqNSloxZ86c2GyzzRLHHDp0aJx33nmJNY3ReOedd8axxx6beKuJEyfGDjvskFijkQABAgQIECBAgAABAgQIECBAgAABAgQIECBAgAABAgQIECBAgAABAgTqFhDoq9uopBXvv/9+bLnllolj3nbbbTFgwIDEmsZo/Otf/xq51/8mfcaPHx/dunVLKtFGgAABAgQIECBAgAABAgQIECBAgAABAgQIECBAgAABAgQIECBAgAABAgUICPQVgFTKkhkzZsTWW2+dOOSIESOif//+iTWN0fjYY49F3759E2/12muvRa9evRJrNBIgQIAAAQIECBAgQIAAAQIECBAgQIAAAQIECBAgQIAAAQIECBAgQIBA3QICfXUblbRi6tSp0blz58Qx77rrrjj66KMTaxqj8Yknnoj9998/8Vb/+c9/Yrfddkus0UiAAAECBAgQIECAAAECBAgQIECAAAECBAgQIECAAAECBAgQIECAAAECdQsI9NVtVNKKiRMnRteuXRPHvO++++Lwww9PrGmMxtGjR8fee++deKtnn3029thjj8QajQQIECBAgAABAgQIECBAgAABAgQIECBAgAABAgQIECBAgAABAgQIECBQt4BAX91GJa148803o3v37oljjho1Kg4++ODEmsZofP755+sM6z355JPxhS98oTGm4x4ECBAgQIAAAQIECBAgQIAAAQIECBAgQIAAAQIECBAgQIAAAQIECBDYqAUE+hp5e996663o1q1b4l0feOCBOPTQQxNrGqPxueeeiz333DPxVrmn+O21116JNRoJECBAgAABAgQIECBAgAABAgQIECBAgAABAgQIECBAgAABAgQIECBAoG4Bgb66jUpaMWnSpNhhhx0Sx7z77rvjqKOOSqxpjMannnoq9tlnn8RbvfDCC9G7d+/EGo0ECBAgQIAAAQIECBAgQIAAAQIECBAgQIAAAQIECBAgQIAAAQIECBAgULeAQF/dRiWtmD59emy77baJY955553Rr1+/xJrGaHz88cfjgAMOSLzVmDFjYpdddkms0UiAAAECBAgQIECAAAECBAgQIECAAAECBAgQIECAAAECBAgQIECAAAECdQsI9NVtVNKKWbNmRceOHRPH/N3vfhcnnHBCYk1jND7yyCNx4IEHJt5q7Nix0aNHj8QajQQIECBAgAABAgQIECBAgAABAgQIECBAgAABAgQIECBAgAABAgQIECBQt4BAX91GJa2YPXt2bLHFFolj3njjjXH66acn1jRG4/333x+HH3544q0mTJgQXbt2TazRSIAAAQIECBAgQIAAAQIECBAgQIAAAQIECBAgQIAAAQIECBAgQIAAAQJ1Cwj01W1U0opFixZFq1atEsccNGhQDB48OLGmMRpvv/32OOmkkxJvNW3atNhmm20SazQSIECAAAECBAgQIECAAAECBAgQIECAAAECBAgQIECAAAECBAgQIECAQN0CAn11G5W8onfv3vHSSy/VOu6JJ54Yw4cPr7W9sRquueaauOiiixJvN2/evGjTpk1ijUYCBAgQIECAAAECBAgQIECAAAECBAgQIECAAAECBAgQIECAAAECBAgQqFtAoK9uo5JX5F6ne9NNN9U6bvfu3eONN96otb2xGn7wgx/EsGHDar1dbp7jxo2LsrKyWms0ECBAgAABAgQIECBAgAABAgQIECBAgAABAgQIECBAgAABAgQIECBAgEBhAgJ9hTmVtOq6666L888/P3HMuXPnRtu2bRNrGrKxsrIy+vTpk/gkwZNPPjluvfXWhpyGsQkQIECAAAECBAgQIECAAAECBAgQIECAAAECBAgQIECAAAECBAgQIJAZAYG+T2CrR4wYEccff3zinSdMmBBdu3ZNrGnIxg8++CDat2+feIurr766zlfyJg6gkQABAgQIECBAgAABAgQIECBAgAABAgQIECBAgAABAgQIECBAgAABAgRqBAT6aiga7+Kxxx6Lvn37Jt7w3//+d+yzzz6JNQ3ZOHbs2OjVq1fiLe6444445phjEms0EiBAgAABAgQIECBAgAABAgQIECBAgAABAgQIECBAgAABAgQIECBAgEBhAgJ9hTmVtOrtt9+OHXfcMXHM3FP8+vfvn1jTkI2PPPJIHHjggYm3eO655+Jzn/tcYo1GAgQIECBAgAABAgQIECBAgAABAgQIECBAgAABAgQIECBAgAABAgQIEChMQKCvMKeSVi1evDhatmyZOOZpp50WN910U2JNQzYOHTo0LrjggsRbzJgxIzp16pRYo5EAAQIECBAgQIAAAQIECBAgQIAAAQIECBAgQIAAAQIECBAgQIAAAQIEChMQ6CvMqeRVp556atxyyy2J486ZMyc23XTTxJqGaFy+fHn06dMnxowZU+vwu+++ezz//PPRpEmTWms0ECBAgAABAgQIECBAgAABAgQIECBAgAABAgQIECBAgAABAgQIECBAgEDhAgJ9hVuVtHL48OExYMCAxDFfeuml+OxnP5tY0xCNEydOjK5duyYOffnll8fAgQMTazQSIECAAAECBAgQIECAAAECBAgQIECAAAECBAgQIECAAAECBAgQIECAQOECAn2FW5W0MhfW6927d+KYv/71ryP3JL/G/txzzz3xzW9+M/G2jz76aPTt2zexRiMBAgQIECBAgAABAgQIECBAgAABAgQIECBAgAABAgQIECBAgAABAgQIFC4g0Fe4VUkrFy1aFN27d4+pU6fWOm6vXr3yr7Vt2bJlrTWlbqioqIgjjzwyHnjggcShZ86cGR06dEis0UiAAAECBAgQIECAAAECBAgQIECAAAECBAgQIECAAAECBAgQIECAAAEChQsI9BVuVfLKa6+9Ni688MLEcZ955pnYc889E2tK2Thu3Ljo2bNn4pCnnXZa3HTTTYk1GgkQIECAAAECBAgQIECAAAECBAgQIECAAAECBAgQIECAAAECBAgQIECgOAGBvuK8Slo9evTo2HvvvRPHPOecc+L6669PrCll49ChQ+OCCy5IHPLBBx+MQw45JLFGIwECBAgQIECAAAECBAgQIECAAAECBAgQIECAAAECBAgQIECAAAECBAgUJyDQV5xXSasXLFiQf/re66+/njjua6+9FrnX7zb0Z/LkydGlS5c6b+N1u3USKSBAgAABAgQIECBAgAABAgQIECBAgAABAgQIECBAgAABAgQIECBAgEDRAgJ9RZOVtsOIESPi+OOPTxz07LPPzj+lr6ysLLFufRuHDBkSF198ceIwP/vZz+Kss85KrNFIgAABAgQIECBAgAABAgQIECBAgAABAgQIECBAgAABAgQIECBAgAABAsULCPQVb1bSHrmn3XXq1KnOMf/5z3/GF7/4xTrr6lvw4osvRp8+fersPmHChOjatWuddQoIECBAgAABAgQIECBAgAABAgQIECBAgAABAgQIECBAgAABAgQIECBAoDgBgb7ivBqk+vrrr4/zzjsvcezcK3dzob4OHTok1tWncc6cOXHEEUfkx0/qn3tS4A033JBUoo0AAQIECBAgQIAAAQIECBAgQIAAAQIECBAgQIAAAQIECBAgQIAAAQIE6ikg0FdPuFJ2mz59evTo0SPmzZuXOOyZZ54Z1157bbRs2TKxrpjGJUuWxGWXXRZXX311nd3Gjx8f3bp1q7NOAQECBAgQIECAAAECBAgQIECAAAECBAgQIECAAAECBAgQIECAAAECBAgULyDQV7xZg/QYOXJk9OvXr86xL7744hg8eHA0b968ztq6CpYvX54PCF566aV1lcaNN94Yp59+ep11CggQIECAAAECBAgQIECAAAECBAgQIECAAAECBAgQIECAAAECBAgQIECgfgICffVzK3mvRYsW5QN9DzzwQJ1jn3vuuZEL4W2++eZ11tZWkHvNbu71uZdffnltJTW/77HHHvH3v/892rVrV/ObCwIECBAgQIAAAQIECBAgQIAAAQIECBAgQIAAAQIECBAgQIAAAQIECBAorYBAX2k912u0V199NXbZZZeCxjjggAPiuuuui9133z2aNGlSUJ9cUWVlZbzyyitx0UUXxV/+8peC+j311FOx9957F1SriAABAgQIECBAgAABAgQIECBAgAABAgQIECBAgAABAgQIECBAgAABAgTqJyDQVz+3Buv14IMPxmGHHVbw+Kecckp897vfjZ49e0bbtm1r7bdgwYIYN25cDB8+PIYNG1Zr3ZoNf/jDH+K4445b82ffCRAgQIAAAQIECBAgQIAAAQIECBAgQIAAAQIECBAgQIAAAQIECBAgQKDEAgJ9JQZd3+FyT9D7xS9+EWeddVbRQ+X67LzzzvlX8bZu3ToWLlwYs2fPzgf5hg4dWvR4l112Wf7VvuXl5UX31YEAAQIECBAgQIAAAQIECBAgQIAAAQIECBAgQIAAAQIECBAgQIAAAQIEihMQ6CvOq1GqlyxZEtdcc00MGjSoUe63rpucf/75MXjw4GjVqtW6mv1GgAABAgQIECBAgAABAgQIECBAgAABAgQIECBAgAABAgQIECBAgAABAiUWEOgrMWiphlu+fHncfPPNceaZZ5ZqyILHGTJkSP4JgS1atCi4j0ICBAgQIECAAAECBAgQIECAAAECBAgQIECAAAECBAgQIECAAAECBAgQWD8Bgb7182vQ3itWrIi77rorjjnmmAa9z6qD33bbbfE///M/4TW7q6q4JkCAAAECBAgQIECAAAECBAgQIECAAAECBAgQIECAAAECBAgQIECAQMMLCPQ1vPF63+HVV1+Niy66KEaNGrXeY9U2QN++fWPo0KHRu3fv2kr8ToAAAQIECBAgQIAAAQIECBAgQIAAAQIECBAgQIAAAQIECBAgQIAAAQINKCDQ14C4pRx60aJF8be//S0GDRoUY8aMKdnQ3bt3jyuuuCIOPfTQaNWqVcnGNRABAgQIECBAgAABAgQIECBAgAABAgQIECBAgAABAgQIECBAgAABAgQIFCcg0Fec1ydevWDBgnjyySfjT3/6U+Rej1vfz/HHHx/9+/ePfffdN9q2bVvfYfQjQIAAAQIECBAgQIAAAQIECBAgQIAAAQIECBAgQIAAAQIECBAgQIAAgRIJCPSVCPKTGGbGjBnxxhtvxLhx4+KFF16IRx99NN5+++21prLddtvFV7/61ejTp0/07NkzPvOZz8TWW28dZWVla9X6gQABAgQIECBAgAABAgQIECBAgAABAgQIECBAgAABAgQIECBAgAABAgQ+GQGBvk/GvUHuWllZGblX8y5dujQqKiqivLw8mjVrln+VrvBeg5AblAABAgQIECBAgAABAgQIECBAgAABAgQIECBAgAABAgQIECBAgAABAiUTEOgrGaWBCBAgQIAAAQIECBAgQIAAAQIECBAgQIAAAQIECBAgQIAAAQIECBAgQIBA/QUE+upvpycBAgQIECBAgAABAgQIECBAgAABAgQIECBAgAABAgQIECBAgAABAgQIECiZgEBfySgNRIAAAQIECBAgQIAAAQIECBAgQIAAAQIECBAgQIAAAQIECBAgQIAAAQIE6i8g0Fd/Oz0JECBAgAABAgQIECBAgAABAgQIECBAgAABAgQIECBAgAABAgQIECBAgEDJBAT6SkZpIAIECBAgQIAAAQIECBAgQIAAAQIECBAgQIAAAQIECBAgQIAAAQIECBAgUH8Bgb762+lJgAABAgQIECBAgAABAgQIECBAgAABAgQIECBAgAABAgQIECBAgAABAgRKJiDQVzJKAxEgQIAAAQIECBAgQIAAAQIECBAgQIAAAQIECBAgQIAAAQIECBAgQIAAgfoLCPTV305PAgQIECBAgAABAgQIECBAgAABAgQIECBAgAABAgQIECBAgAABAgQIECBQMgGBvpJRGogAAQIECBAgQIAAAQIECBAgQIAAAQIECBAgQIAAAQIECBAgQIAAAQIECNRfQKCv/nZ6EiBAgAABAgQIECBAgAABAgQIECBAgAABAgQIECBAgAABAgQIECBAgACBkgkI9JWM0kAECBAgQIAAAQIECBAgQIAAAQIECBAgQIAAAQIECBAgQIAAAQIECBAgQKD+AgJ99bfTkwABAgQIECBAgAABAgQIECBAgAABAgQIECBAgAABAgQIECBAgAABAgQIlExAoK9klAYiQIAAAQIECBAgQIAAAQIECBAgQIAAAQIECBAgQIAAAQIECBAgQIAAAQL1FxDoq7+dngQIECBAgAABAgQIECBAgAABAgQIECBAgAABAgQIECBAgAABAgQIECBAoGQCAn0lozQQAQIECBAgQIAAAQIECBAgQIAAAQIECBAgQIAAAQIECBAgQIAAAQIECBCov4BAX/3t9CRAgAABAgQIECBAgAABAgQIECBAgAABAgQIECBAgAABAgQIECBAgAABAiUTEOgrGaWBCBAgQIAAAQIECBAgQIAAAQIECBAgQIAAAQIECBAgQIAAAQIECBAgQIBA/QUE+upvpycBAgQIECBAgAABAgQIECBAgAABAgQIECBAgAABAgQIECBAgAABAgQIECiZgEBfySgNRIAAAQIECBAgQIAAAQIECBAgQIAAAQIECBAgQIAAAQIECBAgQIAAAQIE6i8g0Fd/Oz0JECBAgAABAgQIECBAgAABAgQIECBAgAABAgQIECBAgAABAgQIECBAgEDJBAT6SkZpIAIECBAgQIAAAQIECBAgQIAAAQIECBAgQIAAAQIECBAgQIAAAQIECBAgUH8Bgb762+lJgAABAgQIECBAgAABAgQIECBAgAABAgQIECBAgAABAgQIECBAgAABAgRKJiDQVzJKAxEgQIAAAQIECBAgQIAAAQIECBAgQIAAAQIECBAgQIAAAQIECBAgQIAAgfoLCPTV305PAgQIECBAgAABAgQIECBAgAABAgQIECBAgAABAgQIECBAgAABAgQIECBQMgGBvpJRGogAAQIECBAgQIAAAQIECBAgQIAAAQIECBAgQIAAAQIECBAgQIAAAQIECNRfIHWBvmXLVsSkKQti6dLK+q9KTwIlEGjevEl06dwqmjVrUoLRDEGAAAECBAgQIECAAAECBAgQIECAAAECBAgQIECAAAECBAgQIECAAIFkgVQF+h7558y47OaZyTPWSqCRBS77fsfou3/HRr6r2xEgQIAAAQIECBAgQIAAAQIECBAgQIAAAQIECBAgQIAAAQIECBAgkDWB1AT6xrw2J864ckrW/K13AxH49aDtY6cem24gszVNAgQIECBAgAABAgQIECBAgAABAgQIECBAgAABAgQIECBAgAABAgQ2RIHUBPoGnDM23nqnYkM0NOcMCPTcrmncMrRHBlZqiQQIECBAgAABAgQIECBAgAABAgQIECBAgAABAgQIECBAgAABAgQIfFICqQn07Xfsq5+UgfsSKEjgiTt2LqhOEQECBAgQIECAAAECBAgQIECAAAECBAgQIECAAAECBAgQIECAAAECBOojINBXHzV9Mikg0JfJbbdoAgQIECBAgAABAgQIECBAgAABAgQIECBAgAABAgQIECBAgAABAo0mINDXaNRutKELCPRt6Dto/gQIECBAgAABAgQIECBAgAABAgQIECBAgAABAgQIECBAgAABAgTSLSDQl+79MbsUCQj0pWgzTIUAAQIECBAgQIAAAQIECBAgQIAAAQIECBAgQIAAAQIECBAgQIDARigg0LcRbqolNYyAQF/DuBqVAAECBAgQIECAAAECBAgQIECAAAECBAgQIECAAAECBAgQIECAAIGVAgJ9TgKBAgUE+gqEUkaAAAECBAgQIECAAAECBAgQIECAAAECBAgQIECAAAECBAgQIECAQL0EBPrqxaZTFgUE+rK469ZMgAABAgQIECBAgAABAgQIECBAgAABAgQIECBAgAABAgQIECBAoPEEBPoaz9qdNnABgb4NfANNnwABAgQIECBAgAABAgQIECBAgAABAgQIECBAgAABAgQIECBAgEDKBQT6Ur5BppceAYG+9OyFmRAgQIAAAQIECBAgQIAAAQIECBAgQIAAAQIECBAgQIAAAQIECBDYGAUE+jbGXbWmBhEQ6GsQVoMSIECAAAECBAgQIECAAAECBAgQIECAAAECBAgQIECAAAECBAgQIPCRgECfo0CgQAGBvgKhlBEgQIAAAQIECBAgQIAAAQIECBAgQIAAAQIECBAgQIAAAQIECBAgUC8Bgb56semURQGBvizuujUTIECAAAECBAgQIECAAAECBAgQIECAAAECBAgQIECAAAECBAgQaDwBgb7Gs3anDVxAoG8D30DTJ0CAAAECBAgQIECAAAECBAgQIECAAAECBAgQIECAAAECBAgQIJByAYG+lG+Q6aVHQKAvPXthJgQIECBAgAABAgQIECBAgAABAgQIECBAgAABAgQIECBAgAABAgQ2RgGBvo1xV62pQQQE+hqE1aAECBAgQIAAAQIECBAgQIAAAQIECBAgQIAAAQIECBAgQIAAAQIECHwkINDnKBAoUECgr0AoZQQIECBAgAABAgQIECBAgAABAgQIECBAgAABAgQIECBAgAABAgQI1Etggw30XXLylrFZu2a1Lnrp0hWxYGFFTJq6OB55ZmHMnLOi1loNBAoREOgrREkNAQIECBAgQIAAAQIECBAgQIAAAQIECBAgQIAAAQIECBAgQIAAAQL1FdhgA313/7JbdNyyRUHrrqiojDcnzIuRD8yMvz+/uKA+igisKSDQt6aI7wQIECBAgAABAgQIECBAgAABAgQIECBAgAABAgQIECBAgAABAgQIlFJgowj0rVhRuZpJWVlZVP231qeyquyJp2fFwGHvxhpd1qr1w8YjsHOXpnHmiVvnFzRx8sK4Zvj79VqcQF+92HQiQIAAAQIECBAgQIAAAQIECBAgQIAAAQIECBAgQIAAAQIECBAgQKBAgY0i0Lffsa+utdz2bctil64t4nO7tY6999i86ml+m9TUjHl1Tpzx0yk1311s3AL77dIirrqkW36RY9+YG98bPLleCxboqxebTgQIECBAgAABAgQIECBAgAABAgQIECBAgAABAgQIECBAgAABAgQIFCiw0Qb61lz/oFM7xJe/2KnmyX0P/m1G1ZPa3luzzPeNUECgbyPcVEsiQIAAAQIECBAgQIAAAQIECBAgQIAAAQIECBAgQIAAAQIECBAgsBEKZCbQl9u7HxyzeXz78G3z27h06Yr4/iVvxPhpFRvhtlrSqgICfatquCZAgAABAgQIECBAgAABAgQIECBAgAABAgQIECBAgAABAgQIECBAIK0CmQr05Tbh9p92iU93bZvfj8eemBk/+dXMWvdmzx7NY9892kSHLZpVPdmvLD6YvSxGvzQ//jVmSa19Vm3YavMmcch+baPLdi2iRYvymDtveUyZtiTu/se8WLCkctXSmutvfqlN/imCH85ZHo+8sDg2a1UWJ3xjs9h2qxbx9qRFccu9c2pqqy+6dCyPr1fdp/M2LaJp0yYxf8HyeH38orj38fmxYt23ia/02SQ2a9c0Kqva735sfn6ofXZqEfvv1Tbabdo05s2viH8/Ny8ef3lx9W3yf1u3KItvfaVt7LjDJlX3Kov3Zy+Ph5+YG2MmLlutbl1fSjXPT3Uqj0O/tGl0bN8sP4dZ7y+Lfzw9L/4zYfU55PZv+22ax1ZbNo1+R26Xn9LkqQvj3r+s3PM5c5fH359ffX3rmnf1b165Wy3hLwECBAgQIECAAAECBAgQIECAAAECBAgQIECAAAECBAgQIECAAAECDSGQuUDfYfu2jgvO+FTe8v3ZS+KI099cyzUXPPvxGdtGj+6brtWW+2HipPlx9Y1TY+yU5etsb1IWMfB7HWL/fTpE82ZN1qpZtKgiHnpkRvz8j7PXant8xE7RpGqASVMWxnU3T4krL+haFbBrlq9748158d2fTKrpk7vPZad3jH0/3yEfbKtp+Ogit77f/HF6PPDvBWs2xR+u7RpdOreKFVWJv4MGvB4/PWvr+Nxnt6h5JXF1hxdenh0XXjctllQt9ei+bWLAMdvFpm2bVjfn/+ZCgU8+MysG3/huvm61xqovpZrnl45/LX5c5fqlfTuutd7cOv49+r0YOOzdmhDjkLO2in322nLN6dR8nzJtYfQ/7+2a73VdCPTVJaSdAAECBAgQIECAAAECBAgQIECAAAECBAgQIECAAAECBAgQIECAAIH1EchcoC8XLhv1fz2iTeuVobTvXTButWDebl2bxWXn7hDtt2hR47qwKoAXVaG1Vq3Ka37LPW3vyp9PjKdfX/1pfbkn2P3vpdvHZ7qtfApgrkNFVdhs4cKKaF3VPxfWq/48++IHce7Q6dVf839XDfTlajtv27KmfdVA37ruk3uN8JKq/1e9z/LllfHbO6fE8FFza8bJXawa6MvN4/Ofa59/Wl/u6X4tmjeJ5lX/V3/+9dSsePY/8+PsU3eI8vKyyI2ZM8ndJ/e9+pOru/SX71Z/zf8t5TyffOa92G/vDvlxlyz5aK2tq+awiumqcxDoW20rfCFAgAABAgQIECBAgAABAgQIECBAgAABAgQIECBAgAABAgQIECBAIOUCmQv05fbj1su71ATufnHrf+OuR1e+cjbXVh10y12PGz83fnPnuzF67MrQXp9uzeO7x3SKnXu1yzXH9BmL4vjzJsSyqrxf9eeKMzrGAVVPkMt9cqG3+0a9E7f9vw/zT65rUZUhPOGQdnH0YdtE66ogWu4z4s9T49d3f5i/zv1THejL9d2kRZN47IlZMeqxD2Pae8ujzSZlMX7ayptd9v2O0Xf/lfeZ+d6SqnGmxz2Pr3wS3zbtm8R3j24fX65qz4UCcyG/Hw0cH69N/viJgquuM/eEvVdemxO//O07MW7q8mhWNbUTD20Xxx61bT7YlwvwzZ23rOrJfM3igYffiZtHzs6/Mrh927I4s3+H+MoBK+eRe0reKVUByeo55tZTynnmxnvn3cUx/E/T4qGnF+W+Rsd2TeLM47aML+338Rx+9JPxq71+d79dWsRVl3TL1499Y258b/Dk/HWx/3hCX7Fi6gkQIECAAAECBAgQIECAAAECBAgQIECAAAECBAgQIECAAAECBAgQKEYgk4G+n124Tf71sjmoVQN1px7ZLo7/due836uvz4nvXzFlnZa/Gtg5dvko1PfHqkDeTR8F8vb4TPO47ifd8iG6pctWxOChE+KJV1Z/gl9uwC/vvkn8+Jwd86+N/XDO0jjstPE196kO9OV+uPeh6XHD7z+oaau+6P3p5nHD4G75p+N9MHtpnHLxWzFzzorq5pq/Pzx28/jWN7bNf39xzOz40dXTatpWDfSNf2tenDxwUk1b9cWq/XO//fn+afG/d6z9muCbB20fvXqsfD3xn+6dGsNGrgwolnqe732wJE664K2YvaAqgbjG5/8u277mFckP/m1GXDP8vZoKgb4aChcECBAgQIAAAQIECBAgQIAAAQIECBAgQIAAAQIECBAgQIAAAQIECKRYIJOBvstP71jzRLd7HpwWPxuxMqT226t3iK47tImKisoYcO64mPjuKo/eW2UTu29bHrcO7RllVW+bfevteTHg0pVhuEGndqx5Wt3f//luXH7zrFV6rX7584u2jT67bZ7/8aIr34wnX1sZ/KsO9OVeKXvY98bGoqVrh9d+fEqH+FrfTvm+t/x2Uvz+r/NWH6I/YfsAAEAASURBVHyVb/cM6xYd2reIxYsr4hunjqsZb9VA39W/mFDzxLtVuuaffnf3r3vlf1pU1f+wU8bmnzS4ak3u+qRDN40Bx22f//nRx2fG4F/PzF+Xep6/Hzklbrl3Tn7sNf85um+b+NEpO+R/XjO8KNC3ppbvBAgQIECAAAECBAgQIECAAAECBAgQIECAAAECBAgQIECAAAECBAikUSCTgb5rzt46vrBn+/x+VD9RLvf62Fx4rbzqFbUTJs6P71zy38T9uuP6HWO7bVpG7nW0XzrhtXztyJ/tGFtv1TJ//f2LxsWrkz5+xe2ag+Vev9uyeVUisOqzYEllzWt7qwN9udf59jt7wprd8t/vvGHH2HbrlvlX6eZCdusK/VV3/OkPOsX+X+iQ/3rNsInx4JMrX8u7aqDvkJNei7mL1g4O5jr98w875Z8EmDSfQ/dpHRee+an8Pf711Ky49Jfv5q9LPc+Tzh0bb05fd8hyt67NYthPP5O/b+5VyacM+vi1ugJ9eRb/ECBAgAABAgQIECBAgAABAgQIECBAgAABAgQIECBAgAABAgQIECCQcoFMBvpWfWXub/4wOYaPmhv77NQihvy4W8125YJpSZ/qkFyu5vgfjY1JMyvir7/pGa1blcecucvi0FPfSOpea1t1oG/SlIVx/AVvr7Pur7dW3ad1eb6trnn2rnoKYJvWVenBqs/wP06O3zwwN39dHehbsaIyvnjcykBivmGNf6oDfVOmLYz+5617Pl//fMu45Ec75nuuGugr5Twrq/KG+/d/dY3Zffy1Y7sm+UBm7pc33pwX3/3Jyqcm5r4L9OUUfAgQIECAAAECBAgQIECAAAECBAgQIECAAAECBAgQIECAAAECBAgQSLtAJgN91U+Oy23Oj4e8FY+/vDi+eUCbOOvUHeq1X5dc9WaMfn1JPPr7nfOv4X3n3cXx7bPeqtdYdQX6qh4gGI9VPTWvSe6iyM99D02P63//Qb5XQwf6GnueAn1FHgblBAgQIECAAAECBAgQIECAAAECBAgQIECAAAECBAgQIECAAAECBAikTiBzgb7u25bHrUN75oN3S5euiEM/emXtEfu3jnO/v/K1sbldevmV2Ymb1apV01i4cOUrdW+5Y2aMmbis5vW0785aHEf/sGECfblJ/XNE1WtwPwr0FTTPRSsiKlfEv56ZEyMfnZ9fV0MH+hp7ngJ9+W31DwECBAgQIECAAAECBAgQIECAAAECBAgQIECAAAECBAgQIECAAAECG7BA5gJ9F5+0ZRx84Fb5LRs3fm6cMmhy/nqvHs3jukHd89fPvPBBnHfd9KK3ddQtPWLTtk1jwcKKOOjksUX3z3Wo6wl9uZqH/q9HtG3TNGa+tyS++YM3cz8V/WmMQF9jzlOgr+gjoAMBAgQIECBAgAABAgQIECBAgAABAgQIECBAgAABAgQIECBAgAABAikTyFSgr/enm8fQgZ+O5s2b5Ldh2G/+G396ZOUT6zZrVRb33twrmjYti6nTF8Wx504oeqt+P2SH2KFLm3y/3Gt4n3hlSa1j9OnWPHp0bZ5vf2bMonjrnYr8dSGBvhFDu8b227WK5csro9+ZY2PmnKon8BX5aYxAX2POU6CvyAOgnAABAgQIECBAgAABAgQIECBAgAABAgQIECBAgAABAgQIECBAgACB1AlkJtC3W9dmMfCsLtGpwyb5Tfjv5AVxwoUTV9uQ31zRJbp/um1UVkZcenVyIG/ouVtHu7bNYsGi5XH2NSuf5nf2cZvHUYdumx/zuZc+iHOurf0pf7dd2SW67dg2X3vGJW/kX9mb+1JIoO+iAVvGIV9d+ZTBex6cFj8bUfvrgc+qmlOvbivvc8Ot02Pc1JWvCW6MQF9jzrPQQN+qT2XM4xfxzxN37FxEtVICBAgQIECAAAECBAgQIECAAAECBAgQIECAAAECBAgQIECAAAECBAgUJ7DRB/patyiLEw9rF4cfvHW0alme11m4qCIuvmpCvPjW0tW0TjiobXzvxC7532bMXBzn/XRiTJq58sl5qxae+e3Not+R2+V/enHM7PjR1dPy15/qVB43D+keLTcpz4cCbxsxOYaPmrtq1/z1SYduGt/pv32UlcVaTwMsJNDXs3PTGHZl9/yTBpcsWRFX/+/b8ehLi9e6T9/PbhKXnt01Xzf7w6Xxje+Pr6lpjEBfY84zKdCXexrizy/vnl/75KkL47jz365xKOZCoK8YLbUECBAgQIAAAQIECBAgQIAAAQIECBAgQIAAAQIECBAgQIAAAQIECBQrsFEE+p585r3V1l1WlZRr3rws2m/WPLbZplW0+OgVu7miBQsr4rpfTYxHXlg7AJdrv2Xw9tHzM5vmLmPO3GXxr6feixdfWRCz562IT3VuHvt/vl3svsvm+fbFVWG68694M/4zYVn+e+6fU4/aLI7/1sqw34oVlfHimA/jX6M/jKkzlsW2nZrFfnu1iz6f3TzKm5RFRVX70BsnxqinFtb0LyTQlys+54Qt4siDt8n3W7psRYx+7v14+sX58c7MZdFh8/L4wufaxj57bVnzeuFbfz85fvvQx+HCxgj0NeY8kwJ9LZpGPHRbr2jerEnk9uSW302KOx6eH1WXRX0E+oriUkyAAAECBAgQIECAAAECBAgQIECAAAECBAgQIECAAAECBAgQIECAQJECG0Wgr5A1516jO/aNuXH9rdNi/LS1n7pXPcZWmzeJIedvHzt+qk31T+v8m3sy3q9unxT3PL5grfZLTt4yDvryVvkn8K3V+NEPFRWV8Ye7psat/2/OaiWFBvpyna44o2McsG/H1fqv+SW37of+PiOG3L566LGxAn2NNc+kQF9uDjdcsE3ssfsWNTy5MOWUqqf1rfna5ZqCdVwI9K0DxU8ECBAgQIAAAQIECBAgQIAAAQIECBAgQIAAAQIECBAgQIAAAQIECJRMYKMN9C1fXhmLl1TE+x8sjbfenh9/+9ecePr1JQXBNat6M+95J24Z+35+y9i0bdXj3Vb55MZ9beyHccsdM2PMxI+fzLdKSf7yW19uE0cd3Cm226blak25INnbE+fH7X+aEU+8svZ8ign05QbOvSb4sIM6xdadNlntPrkg36TJ8+PO+2eu9gTA6qLGDPQ1xjzrCvS1b1sWV561XezUs11N0HLKtIXR/7zCX78r0Fd9evwlQIAAAQIECBAgQIAAAQIECBAgQIAAAQIECBAgQIAAAQIECBAgQKAhBDbYQF9DYKxrzL17tYiunZtVvSK3ScyavSyefHlxzF1U+Ltau21THrv1aBmtWjSJ9+csj1feXByTZ61Y163W67eenZvGzt03idZV95m7oCKef31Rg9xnvSZZ1fmTnmduP3r3ahmbVL2GedqMpfHIi+t+9fK61inQty4VvxEgQIAAAQIECBAgQIAAAQIECBAgQIAAAQIECBAgQIAAAQIECBAgUCoBgb5SSRpnoxcQ6Nvot9gCCRAgQIAAAQIECBAgQIAAAQIECBAgQIAAAQIECBAgQIAAAQIECHyiAgJ9nyi/m29IAgJ9G9JumSsBAgQIECBAgAABAgQIECBAgAABAgQIECBAgAABAgQIECBAgACBDU9AoG/D2zMz/oQEBPo+IXi3JUCAAAECBAgQIECAAAECBAgQIECAAAECBAgQIECAAAECBAgQIJARAYG+jGy0Za6/gEDf+hsagQABAgQIECBAgAABAgQIECBAgAABAgQIECBAgAABAgQIECBAgACB2gUE+mq30UJgNQGBvtU4fCFAgAABAgQIECBAgAABAgQIECBAgAABAgQIECBAgAABAgQIECBAoMQCAn0lBjXcxisg0Lfx7q2VESBAgAABAgQIECBAgAABAgQIECBAgAABAgQIECBAgAABAgQIEEiDgEBfGnbBHDYIAYG+DWKbTJIAAQIECBAgQIAAAQIECBAgQIAAAQIECBAgQIAAAQIECBAgQIDABisg0LfBbp2JN7aAQF9ji7sfAQIECBAgQIAAAQIECBAgQIAAAQIECBAgQIAAAQIECBAgQIAAgWwJCPRla7+tdj0EBPrWA09XAgQIECBAgAABAgQIECBAgAABAgQIECBAgAABAgQIECBAgAABAgTqFBDoq5NIAYGVAgJ9TgIBAgQIECBAgAABAgQIECBAgAABAgQIECBAgAABAgQIECBAgAABAg0pINDXkLrG3qgEBPo2qu20GAIECBAgQIAAAQIECBAgQIAAAQIECBAgQIAAAQIECBAgQIAAAQKpExDoS92WmFBaBQT60roz5kWAAAECBAgQIECAAAECBAgQIECAAAECBAgQIECAAAECBAgQIEBg4xAQ6Ns49tEqGkFAoK8RkN2CAAECBAgQIECAAAECBAgQIECAAAECBAgQIECAAAECBAgQIECAQIYFBPoyvPmWXpyAQF9xXqoJECBAgAABAgQIECBAgAABAgQIECBAgAABAgQIECBAgAABAgQIEChOQKCvOC/VGRVoUhbx+B93zujqLZsAAQIECBAgQIAAAQIECBAgQIAAAQIECBAgQIAAAQIECBAgQIAAgcYQSE2g7/zL34zRY5c0xprdg0DRAvvt0iKuuqRb0f10IECAAAECBAgQIECAAAECBAgQIECAAAECBAgQIECAAAECBAgQIECAQKECqQn0TXtnURxzzoRC562OQKMKjPz5p2PrTps06j3djAABAgQIECBAgAABAgQIECBAgAABAgQIECBAgAABAgQIECBAgACBbAmkJtCXY3974vw4/5rJMXPOimztgtWmVmCrzZvEtRduH5/q0ia1czQxAgQIECBAgAABAgQIECBAgAABAgQIECBAgAABAgQIECBAgAABAgQ2DoFUBfqqSRctroiKisrqr/4S+EQEmpaXxSablH8i93ZTAgQIECBAgAABAgQIECBAgAABAgQIECBAgAABAgQIECBAgAABAgSyJ5DKQF/2tsGKCRAgQIAAAQIECBAgQIAAAQIECBAgQIAAAQIECBAgQIAAAQIECBAgQCDrAgJ9WT8B1k+AAAECBAgQIECAAAECBAgQIECAAAECBAgQIECAAAECBAgQIECAAAECqRAQ6EvFNpgEAQIECBAgQIAAAQIECBAgQIAAAQIECBAgQIAAAQIECBAgQIAAAQIECGRdQKAv6yfA+gkQIECAAAECBAgQIECAAAECBAgQIECAAAECBAgQIECAAAECBAgQIEAgFQICfanYBpMgQIAAAQIECBAgQIAAAQIECBAgQIAAAQIECBAgQIAAAQIECBAgQIAAgawLCPRl/QRYPwECBAgQIECAAAECBAgQIECAAAECBAgQIECAAAECBAgQIECAAAECBAikQkCgLxXbYBIECBAgQIAAAQIECBAgQIAAAQIECBAgQIAAAQIECBAgQIAAAQIECBAgkHUBgb6snwDrJ0CAAAECBAgQIECAAAECBAgQIECAAAECBAgQIECAAAECBAgQIECAAIFUCAj0pWIbTIIAAQIECBAgQIAAAQIECBAgQIAAAQIECBAgQIAAAQIECBAgQIAAAQIEsi4g0Jf1E2D9BAgQIECAAAECBAgQIECAAAECBAgQIECAAAECBAgQIECAAAECBAgQIJAKAYG+VGyDSRAgQIAAAQIECBAgQIAAAQIECBAgQIAAAQIECBAgQIAAAQIECBAgQIBA1gUE+rJ+AqyfAAECBAgQIECAAAECBAgQIECAAAECBAgQIECAAAECBAgQIECAAAECBFIhINCXim0wCQIECBAgQIAAAQIECBAgQIAAAQIECBAgQIAAAQIECBAgQIAAAQIECBDIuoBAX9ZPgPUTIECAAAECBAgQIECAAAECBAgQIECAAAECBAgQIECAAAECBAgQIECAQCoEBPpSsQ0mQYAAAQIECBAgQIAAAQIECBAgQIAAAQIECBAgQIAAAQIECBAgQIAAAQJZFxDoy/oJsH4CBAgQIECAAAECBAgQIECAAAECBAgQIECAAAECBAgQIECAAAECBAgQSIWAQF8qtsEkCBAgQIAAAQIECBAgQIAAAQIECBAgQIAAAQIECBAgQIAAAQIECBAgQCDrAgJ9WT8B1k+AAAECBAgQIECAAAECBAgQIECAAAECBAgQIECAAAECBAgQIECAAAECqRAQ6EvFNpgEAQIECBAgQIAAAQIECBAgQIAAAQIECBAgQIAAAQIECBAgQIAAAQIECGRdQKAv6yfA+gkQIECAAAECBAgQIECAAAECBAgQIECAAAECBAgQIECAAAECBAgQIEAgFQICfanYBpMgQIAAAQIECBAgQIAAAQIECBAgQIAAAQIECBAgQIAAAQIECBAgQIAAgawLCPRl/QRYPwECBAgQIECAAAECBAgQIECAAAECBAgQIECAAAECBAgQIECAAAECBAikQkCgLxXbYBIECBAgQIAAAQIECBAgQIAAAQIECBAgQIAAAQIECBAgQIAAAQIECBAgkHUBgb6snwDrJ0CAAAECBAgQIECAAAECBAgQIECAAAECBAgQIECAAAECBAgQIECAAIFUCAj0pWIbTIIAAQIECBAgQIAAAQIECBAgQIAAAQIECBAgQIAAAQIECBAgQIAAAQIEsi4g0Jf1E2D9BAgQIECAAAECBAgQIECAAAECBAgQIECAAAECBAgQIECAAAECBAgQIJAKAYG+VGyDSRAgQIAAAQIECBAgQIAAAQIECBAgQIAAAQIECBAgQIAAAQIECBAgQIBA1gUE+rJ+AqyfAAECBAgQIECAAAECBAgQIECAAAECBAgQIECAAAECBAgQIECAAAECBFIhINCXim0wCQIECBAgQIAAAQIECBAgQIAAAQIECBAgQIAAAQIECBAgQIAAAQIECBDIuoBAX9ZPgPUTIECAAAECBAgQIECAAAECBAgQIECAAAECBAgQIECAAAECBAgQIECAQCoEBPpSsQ0mQYAAAQIECBAgQIAAAQIECBAgQIAAAQIECBAgQIAAAQIECBAgQIAAAQJZFxDoy/oJsH4CBAgQIECAAAECBAgQIECAAAECBAgQIECAAAECBAgQIECAAAECBAgQSIWAQF8qtsEkCBAgQIAAAQIECBAgQIAAAQIECBAgQIAAAQIECBAgQIAAAQIECBAgQCDrAgJ9WT8B1k+AAAECBAgQIECAAAECBAgQIECAAAECBAgQIECAAAECBAgQIECAAAECqRAQ6EvFNpgEAQIECBAgQIAAAQIECBAgQIAAAQIECBAgQIAAAQIECBAgQIAAAQIECGRdQKAv6yfA+gkQIECAAAECBAgQIECAAAECBAgQIECAAAECBAgQIECAAAECBAgQIEAgFQICfanYBpMgQIAAAQIECBAgQIAAAQIECBAgQIAAAQIECBAgQIAAAQIECBAgQIAAgawLCPRl/QRYPwECBAgQIECAAAECBAgQIECAAAECBAgQIECAAAECBAgQIECAAAECBAikQkCgLxXbYBIECBAgQIAAAQIECBAgQIAAAQIECBAgQIAAAQIECBAgQIAAAQIECBAgkHUBgb6snwDrJ0CAAAECBAgQIECAAAECBAgQIECAAAECBAgQIECAAAECBAgQIECAAIFUCAj0pWIbTIIAAQIECBAgQIAAAQIECBAgQIAAAQIECBAgQIAAAQIECBAgQIAAAQIEsi4g0Jf1E2D9BAgQIECAAAECBAgQIECAAAECBAgQIECAAAECBAgQIECAAAECBAgQIJAKAYG+VGyDSRAgQIAAAQIECBAgQIAAAQIECBAgQIAAAQIECBAgQIAAAQIECBAgQIBA1gUE+rJ+AqyfAAECBAgQIECAAAECBAgQIECAAAECBAgQIECAAAECBAgQIECAAAECBFIhINCXim0wCQIECBAgQIAAAQIECBAgQIAAAQIECBAgQIAAAQIECBAgQIAAAQIECBDIuoBAX9ZPgPUTIECAAAECBAgQIECAAAECBAgQIECAAAECBAgQIECAAAECBAgQIECAQCoEBPpSsQ0mQYAAAQIECBAgQIAAAQIECBAgQIAAAQIECBAgQIAAAQIECBAgQIAAAQJZFxDoy/oJsH4CBAgQIECAAAECBAgQIECAAAECBAgQIECAAAECBAgQIECAAAECBAgQSIWAQF8qtsEkCBAgQIAAAQIECBAgQIAAAQIECBAgQIAAAQIECBAgQIAAAQIECBAgQCDrAgJ9WT8B1k+AAAECBAgQIECAAAECBAgQIECAAAECBAgQIECAAAECBAgQIECAAAECqRAQ6EvFNpgEAQIECBAgQIAAAQIECBAgQIAAAQIECBAgQIAAAQIECBAgQIAAAQIECGRdQKAv6yfA+gkQIECAAAECBAgQIECAAAECBAgQIECAAAECBAgQIECAAAECBAgQIEAgFQICfanYBpMgQIAAAQIECBAgQIAAAQIECBAgQIAAAQIECBAgQIAAAQIECBAgQIAAgawLCPRl/QRYPwECBAgQIECAAAECBAgQIECAAAECBAgQIECAAAECBAgQIECAAAECBAikQkCgLxXbYBIECBAgQIAAAQIECBAgQIAAAQIECBAgQIAAAQIECBAgQIAAAQIECBAgkHUBgb6snwDrJ0CAAAECBAgQIECAAAECBAgQIECAAAECBAgQIECAAAECBAgQIECAAIFUCAj0pWIbTIIAAQIECBAgQIAAAQIECBAgQIAAAQIECBAgQIAAAQIECBAgQIAAAQIEsi4g0Jf1E2D9BAgQIECAAAECBAgQIECAAAECBAgQIECAAAECBAgQIECAAAECBAgQIJAKAYG+VGyDSRAgQIAAAQIECBAgQIAAAQIECBAgQIAAAQIECBAgQIAAAQIECBAgQIBA1gUE+rJ+AqyfAAECBAgQIECAAAECBAgQIECAAAECBAgQIECAAAECBAgQIECAAAECBFIhINCXim0wCQIECBAgQIAAAQIECBAgQIAAAQIECBAgQIAAAQIECBAgQIAAAQIECBDIuoBAX9ZPgPUTIECAAAECBAgQIECAAAECBAgQIECAAAECBAgQIECAAAECBAgQIECAQCoEBPpSsQ0mQYAAAQIECBAgQIAAAQIECBAgQIAAAQIECBAgQIAAAQIECBAgQIAAAQJZFxDoy/oJsH4CBAgQIECAAAECBAgQIECAAAECBAgQIECAAAECBAgQIECAAAECBAgQSIWAQF8qtsEkCBAgQIAAAQIECBAgQIAAAQIECBAgQIAAAQIECBAgQIAAAQIECBAgQCDrAgJ9WT8B1k+AAAECBAgQIECAAAECBAgQIECAAAECBAgQIECAAAECBAgQIECAAAECqRAQ6EvFNpgEAQIECBAgQIAAAQIECBAgQIAAAQIECBAgQIAAAQIECBAgQIAAAQIECGRdQKAv6yfA+gkQIECAAAECBAgQIECAAAECBAgQIECAAAECBAgQIECAAAECBAgQIEAgFQICfanYBpMgQIAAAQIECBAgQIAAAQIECBAgQIAAAQIECBAgQIAAAQIECBAgQIAAgawLCPRl/QRYPwECBAgQIECAAAECBAgQIECAAAECBAgQIECAAAECBAgQIECAAAECBAikQkCgLxXbYBIECBAgQIAAAQIECBAgQIAAAQIECBAgQIAAAQIECBAgQIAAAQIECBAgkHUBgb6snwDrJ0CAAAECBAgQIECAAAECBAgQIECAAAECBAgQIECAAAECBAgQIECAAIFUCAj0pWIbTIIAAQIECBAgQIAAAQIECBAgQIAAAQIECBAgQIAAAQIECBAgQIAAAQIEsi4g0Jf1E2D9BAgQIECAAAECBAgQIECAAAECBAgQIECAAAECBAgQIECAAAECBAgQIJAKAYG+VGyDSRAgQIAAAQIECBAgQIAAAQIECBAgQIAAAQIECBAgQIAAAQIECBAgQIBA1gUE+rJ+AqyfAAECBAgQIECAAAECBAgQIECAAAECBAgQIECAAAECBAgQIECAAAECBFIhINCXim0wCQIECBAgQIAAAQIECBAgQIAAAQIECBAgQIAAAQIECBAgQIAAAQIECBDIuoBAX9ZPgPUTIECAAAECBAgQIECAAAECBAgQIECAAAECBAgQIECAAAECBAgQIECAQCoEBPpSsQ0mQYAAAQIECBAgQIAAAQIECBAgQIAAAQIECBAgQIAAAQIECBAgQIAAAQJZFxDoy/oJsH4CBAgQIECAAAECBAgQIECAAAECBAgQIECAAAECBAgQIECAAAECBAgQSIWAQF8qtsEkCBAgQIAAAQIECBAgQIAAAQIECBAgQIAAAQIECBAgQIAAAQIECBAgQCDrAgJ9WT8B1k+AAAECBAgQIECAAAECBAgQIECAAAECBAgQIECAAAECBAgQIECAAAECqRAQ6EvFNpgEAQIECBAgQIAAAQIECBAgQIAAAQIECBAgQIAAAQIECBAgQIAAAQIECGRdQKAv6yfA+gkQIECAAAECBAgQIECAAAECBAgQIECAAAECBAgQIECAAAECBAgQIEAgFQICfanYBpMgQIAAAQIECBAgQIAAAQIECBAgQIAAAQIECBAgQIAAAQIECBAgQIAAgawLCPRl/QRYPwECBAgQIECAAAECBAgQIECAAAECBAgQIECAAAECBAgQIECAAAECBAikQkCgLxXbYBIECBAgQIAAAQIECBAgQIAAAQIECBAgQIAAAQIECBAgQIAAAQIECBAgkHUBgb6snwDrJ0CAAAECBAgQIECAAAECBAgQIECAAAECBAgQIECAAAECBAgQIECAAIFUCAj0pWIbTIIAAQIECBAgQIAAAQIECBAgQIAAAQIECBAgQIAAAQIECBAgQIAAAQIEsi4g0Jf1E2D9BAgQIECAAAECBAgQIECAAAECBAgQIECAAAECBAgQIECAAAECBAgQIJAKAYG+VGyDSRAgQIAAAQIECBAgQIAAAQIECBAgQIAAAQIECBAgQIAAAQIECBAgQIBA1gUE+rJ+AqyfAAECBAgQIECAAAECBAgQIECAAAECBAgQIECAAAECBAgQIECAAAECBFIhINCXim0wCQIECBAgQIAAAQIECBAgQIAAAQIECBAgQIAAAQIECBAgQIAAAQIECBDIuoBAX9ZPgPUTIECAAAECBAgQIECAAAECBAgQIECAAAECBAgQIECAAAECBAgQIECAQCoEBPpSsQ0mQYAAAQIECBAgQIAAAQIECBAgQIAAAQIECBAgQIAAAQIECBAgQIAAAQJZFxDoy/oJsH4CBAgQIECAAAECBAgQIECAAAECBAgQIECAAAECBAgQIECAAAECBAgQSIWAQF8qtsEkCBAgQIAAAQIECBAgQIAAAQIECBAgQIAAAQIECBAgQIAAAQIECBAgQCDrAgJ9WT8B1k+AAAECBAgQIECAAAECBAgQIECAAAECBAgQIECAAAECBAgQIECAAAECqRAQ6EvFNpgEAQIECBAgQIAAAQIECBAgQIAAAQIECBAgQIAAAQIECBAgQIAAAQIECGRdQKAv6yfA+gkQIECAAAECBAgQIECAAAECBAgQIECAAAECBAgQIECAAAECBAgQIEAgFQICfanYBpMgQIAAAQIECBAgQIAAAQIECBAgQIAAAQIECBAgQIAAAQIECBAgQIAAgawLCPRl/QRYPwECBAgQIECAAAECBAgQIECAAAECBAgQIECAAAECBAgQIECAAAECBAikQkCgLxXbYBIECBAgQIAAAQIECBAgQIAAAQIECBAgQIAAAQIECBAgQIAAAQIECBAgkHUBgb6snwDrJ0CAAAECBAgQIECAAAECBAgQIECAAAECBAgQIECAAAECBAgQIECAAIFUCAj0pWIbTIIAAQIECBAgQIAAAQIECBAgQIAAAQIECBAgQIAAAQIECBAgQIAAAQIEsi4g0Jf1E2D9BAgQIECAAAECBAgQIECAAAECBAgQIECAAAECBAgQIECAAAECBAgQIJAKAYG+VGyDSRAgQIAAAQIECBAgQIAAAQIECBAgQIAAAQIECBAgQIAAAQIECBAgQIBA1gUE+rJ+AqyfAAECBAgQIECAAAECBAgQIECAAAECBAgQIECAAAECBAgQIECAAAECBFIhINCXim0wCQIECBAgQIAAAQIECBAgQIAAAQIECBAgQIAAAQIECBAgQIAAAQIECBDIuoBAX9ZPgPUTIECAAAECBAgQIECAAAECBAgQIECAAAECBAgQIECAAAECBAgQIECAQCoEBPpSsQ0mQYAAAQIECBAgQIAAAQIECBAgQIAAAQIECBAgQIAAAQIECBAgQIAAAQJZFxDoy/oJsH4CBAgQIECAAAECBAgQIECAAAECBAgQIECAAAECBAgQIECAAAECBAgQSIWAQF8qtsEkCBAgQIAAAQIECBAgQIAAAQIECBAgQIAAAQIECBAgQIAAAQIECBAgQCDrAgJ9WT8B1k+AAAECBAgQIECAAAECBAgQIECAAAECBAgQIECAAAECBAgQIECAAAECqRAQ6EvFNpgEAQIECBAgQIAAAQIECBAgQIAAAQIECBAgQIAAAQIECBAgQIAAAQIECGRdQKAv6yfA+gkQIECAAAECBAgQIECAAAECBAgQIECAAAECBAgQIECAAAECBAgQIEAgFQICfanYBpMgQIAAAQIECBAgQIAAAQIECBAgQIAAAQIECBAgQIAAAQIECBAgQIAAgawLCPRl/QRYPwECBAgQIECAAAECBAgQIECAAAECBAgQIECAAAECBAgQIECAAAECBAikQkCgLxXbYBIECBAgQIAAAQIECBAgQIAAAQIECBAgQIAAAQIECBAgQIAAAQIECBAgkHUBgb6snwDrJ0CAAAECBAgQIECAAAECBAgQIECAAAECBAgQIECAAAECBAgQIECAAIFUCAj0pWIbTIIAAQIECBAgQIAAAQIECBAgQIAAAQIECBAgQIAAAQIECBAgQIAAAQIEsi4g0Jf1E2D9BAgQIECAAAECBAgQIECAAAECBAgQIECAAAECBAgQIECAAAECBAgQIJAKAYG+VGyDSRAgQIAAAQIECBAgQIAAAQIECBAgQIAAAQIECBAgQIAAAQIECBAgQIBA1gUE+rJ+AqyfAAECBAgQIECAAAECBAgQIECAAAECBAgQIECAAAECBAgQIECAAAECBFIhINCXim0wCQIECBAgQIAAAQIECBAgQIAAAQIECBAgQIAAAQIECBAgQIAAAQIECBDIuoBAX9ZPgPUTIECAAAECBAgQIECAAAECBAgQIECAAAECBAgQIECAAAECBAgQIECAQCoEBPpSsQ0mQYAAAQIECBAgQIAAAQIECBAgQIAAAQIECBAgQIAAAQIECBAgQIAAAQJZFxDoy/oJsH4CBAgQIECAAAECBAgQIECAAAECBAgQIECAAAECBAgQIECAAAECBAgQSIWAQF8qtsEkCBAgQIAAAQIECBAgQIAAAQIECBAgQIAAAQIECBAgQIAAAQIECBAgQCDrAgJ9WT8B1k+AAAECBAgQIECAAAECBAgQIECAAAECBAgQIECAAAECBAgQIECAAAECqRAQ6EvFNpgEAQIECBAgQIAAAQIECBAgQIAAAQIECBAgQIAAAQIECBAgQIAAAQIECGRdQKAv6yfA+gkQIECAAAECBAgQIECAAAECBAgQIECAAAECBAgQIECAAAECBAgQIEAgFQICfanYBpMgQIAAAQIECBAgQIAAAQIECBAgQIAAAQIECBAgQIAAAQIECBAgQIAAgawLCPRl/QRYPwECBAgQIECAAAECBAgQIECAAAECBAgQIECAAAECBAgQIECAAAECBAikQkCgLxXbYBIECBAgQIAAAQIECBAgQIAAAQIECBAgQIAAAQIECBAgQIAAAQIECBAgkHUBgb6snwDrJ0CAAAECBAgQIECAAAECBAgQIECAAAECBAgQ+P/s2kENAAAMAjH/rrFxCXXAyp4QIECAAAECBAgQIECAQELAoC9RgxAECBAgQIAAAQIECBAgQIAAAQIECBAgQIAAAQIECBAgQIAAAQIECBAg8C5g0Pf+Ae4nQIAAAQIECBAgQIAAAQIECBAgQIAAAQIECBAgQIAAAQIECBAgQIAAgYSAQV+iBiEIECBAgAABAgQIECBAgAABAgQIECBAgAABAgQIECBAgAABAgQIECBA4F3AoO/9A9xPgAABAgQIECBAgAABAgQIECBAgAABAgQIECBAgAABAgQIECBAgAABAgkBg75EDUIQIECAAAECBAgQIECAAAECBAgQIECAAAECBAgQIECAAAECBAgQIECAwLuAQd/7B7ifAAECBAgQIECAAAECBAgQIECAAAECBAgQIECAAAECBAgQIECAAAECBBICBn2JGoQgQIAAAQIECBAgQIAAAQIECBAgQIAAAQIECBAgQIAAAQIECBAgQIAAgXcBg773D3A/AQIECBAgQIAAAQIECBAgQIAAAQIECBAgQIAAAQIECBAgQIAAAQIECCQEDPoSNQhBgAABAgQIECBAgAABAgQIECBAgAABAgQIECBAgAABAgQIECBAgAABAu8CBn3vH+B+AgQIECBAgAABAgQIECBAgAABAgQIECBAgAABAgQIECBAgAABAgQIEEgIGPQlahCCAAECBAgQIECAAAECBAgQIECAAAECBAgQIECAAAECBAgQIECAAAECBN4FDPreP8D9BAgQIECAAAECBAgQIECAAAECBAgQIECAAAECBAgQIECAAAECBAgQIJAQMOhL1CAEAQIECBAgQIAAAQIECBAgQIAAAQIECBAgQIAAAQIECBAgQIAAAQIECLwLGPS9f4D7CRAgQIAAAQIECBAgQIAAAQIECBAgQIAAAQIECBAgQIAAAQIECBAgQCAhYNCXqEEIAgQIECBAgAABAgQIECBAgAABAgQIECBAgAABAgQIECBAgAABAgQIEHgXMOh7/wD3EyBAgAABAgQIECBAgAABAgQIECBAgAABAgQIECBAgAABAgQIECBAgEBCwKAvUYMQBAgQIECAAAECBAgQIECAAAECBAgQIECAAAECBAgQIECAAAECBAgQIPAuYND3/gHuJ0CAAAECBAgQIECAAAECBAgQIECAAAECBAgQIECAAAECBAgQIECAAIGEgEFfogYhCBAgQIAAAQIECBAgQIAAAQIECBAgQIAAAQIECBAgQIAAAQIECBAgQOBdwKDv/QPcT4AAAQIECBAgQIAAAQIECBAgQIAAAQIECBAgQIAAAQIECBAgQIAAAQIJAYO+RA1CECBAgAABAgQIECBAgAABAgQIECBAgAABAgQIECBAgAABAgQIECBAgMC7gEHf+we4nwABAgQIECBAgAABAgQIECBAgAABAgQIECBAgAABAgQIECBAgAABAgQSAgZ9iRqEIECAAAECBAgQIECAAAECBAgQIECAAAECBAgQIECAAAECBAgQIECAAIF3AYO+9w9wPwECBAgQIECAAAECBAgQIECAAAECBAgQIECAAAECBAgQIECAAAECBAgkBAz6EjUIQYAAAQIECBAgQIAAAQIECBAgQIAAAQIECBAgQIAAAQIECBAgQIAAAQLvAgZ97x/gfgIECBAgQIAAAQIECBAgQIAAAQIECBAgQIAAAQIECBAgQIAAAQIECBBICBj0JWoQggABAgQIECBAgAABAgQIECBAgAABAgQIECBAgAABAgQIECBAgAABAgTeBQz63j/A/QQIECBAgAABAgQIECBAgAABAgQIECBAgAABAgQIECBAgAABAgQIECCQEDDoS9QgBAECBAgQIECAAAECBAgQIECAAAECBAgQIECAAAECBAgQIECAAAECBAi8Cxj0vX+A+wkQIECAAAECBAgQIECAAAECBAgQIECAAAECBAgQIECAAAECBAgQIEAgIWDQl6hBCAIECBAgQIAAAQIECBAgQIAAAQIECBAgQIAAAQIECBAgQIAAAQIECBB4FzDoe/8A9xMgQIAAAQIECBAgQIAAAQIECBAgQIAAAQIECBAgQIAAAQIECBAgQIBAQsCgL1GDEAQIECBAgAABAgQIECBAgAABAgQIECBAgAABAgQIECBAgAABAgQIECDwLmDQ9/4B7idAgAABAgQIECBAgAABAgQIECBAgAABAgQIECBAgAABAgQIECBAgACBhIBBX6IGIQgQIECAAAECBAgQIECAAAECBAgQIECAAAECBAgQIECAAAECBAgQIEDgXcCg7/0D3E+AAAECBAgQIECAAAECBAgQIECAAAECBAgQIECAAAECBAgQIECAAAECCQGDvkQNQhAgQIAAAQIECBAgQIAAAQIECBAgQIAAAQIECBAgQIAAAQIECBAgQIDAu4BB3/sHuJ8AAQIECBAgQIAAAQIECBAgQIAAAQIECBAgQIAAAQIECBAgQIAAAQIEEgIGfYkahCBAgAABAgQIECBAgAABAgQIECBAgAABAgQIECBAgAABAgQIECBAgACBdwGDvvcPcD8BAgQIECBAgAABAgQIECBAgAABAgQIECBAgAABAgQIECBAgAABAgQIJAQM+hI1CEGAAAECBAgQIECAAAECBAgQIECAAAECBAgQIECAAAECBAgQIECAAAEC7wIGfe8f4H4CBAgQIECAAAECBAgQIECAAAECBAgQIECAAAECBAgQIECAAAECBAgQSAgY9CVqEIIAAQIECBAgQIAAAQIECBAgQIAAAQIECBAgQIAAAQIECBAgQIAAAQIE3gUM+t4/wP0ECBAgQIAAAQIECBAgQIAAAQIECBAgQIAAAQIECBAgQIAAAQIECBAgkBAw6EvUIAQBAgQIECBAgAABAgQIECBAgAABAgQIECBAgAABAgQIECBAgAABAgQIvAsY9L1/gPsJECBAgAABAgQIECBAgAABAgQIECBAgAABAgQIECBAgAABAgQIECBAICFg0JeoQQgCBAgQIECAAAECBAgQIECAAAECBAgQIECAAAECBAgQIECAAAECBAgQeBcw6Hv/APcTIECAAAECBAgQIECAAAECBAgQIECAAAECBAgQIECAAAECBAgQIECAQELAoC9RgxAECBAgQIAAAQIECBAgQIAAAQIECBAgQIAAAQIECBAgQIAAAQIECBAg8C5g0Pf+Ae4nQIAAAQIECBAgQIAAAQIECBAgQIAAAQIECBAgQIAAAQIECBAgQIAAgYSAQV+iBiEIECBAgAABAgQIECBAgAABAgQIECBAgAABAgQIECBAgAABAgQIECBA4F3AoO/9A9xPgAABAgQIECBAgAABAgQIECBAgAABAgQIECBAgAABAgQIECBAgAABAgkBg75EDUIQIECAAAECBAgQIECAAAECBAgQIECAAAECBAgQIECAAAECBAgQIECAwLuAQd/7B7ifAAECBAgQIECAAAECBAgQIECAAAECBAgQIECAAAECBAgQIECAAAECBBICBn2JGoQgQIAAAQIECBAgQIAAAQIECBAgQIAAAQIECBAgQIAAAQIECBAgQIAAgXcBg773D3A/AQIECBAgQIAAAQIECBAgQIAAAQIECBAgQIAAAQIECBAgQIAAAQIECCQEDPoSNQhBgAABAgQIECBAgAABAgQIECBAgAABAgQIECBAgAABAgQIECBAgAABAu8CBn3vH+B+AgQIECBAgAABAgQIECBAgAABAgQIECBAgAABAgQIECBAgAABAgQIEEgIGPQlahCCAAECBAgQIECAAAECBAgQIECAAAECBAgQIECAAAECBAgQIECAAAECBN4FDPreP8D9BAgQIECAAAECBAgQIECAAAECBAgQIECAAAECBAgQIECAAAECBAgQIJAQMOhL1CAEAQIECBAgQIAAAQIECBAgQIAAAQIECBAgQIAAAQIECBAgQIAAAQIECLwLGPS9f4D7CRAgQIAAAQIECBAgQIAAAQIECBAgQIAAAQIECBAgQIAAAQIECBAgQCAhYNCXqEEIAgQIECBAgAABAgQIECBAgAABAgQIECBAgAABAgQIECBAgAABAgQIEHgXMOh7/wD3EyBAgAABAgQIECBAgAABAgQIECBAgAABAgQIECBAgAABAgQIECBAgEBCwKAvUYMQBAgQIECAAAECBAgQIECAAAECBAgQIECAAAECBAgQIECAAAECBAgQIPAuYND3/gHuJ0CAAAECBAgQIECAAAECBAgQIECAAAECBAgQIECAAAECBAgQIECAAIGEgEFfogYhCBAgQIAAAQIECBAgQIAAAQIECBAgQIAAAQIECBAgQIAAAQIECBAgQOBdwKDv/QPcT4AAAQIECBAgQIAAAQIECBAgQIAAAQIECBAgQIAAAQIECBAgQIAAAQIJAYO+RA1CECBAgAABAgQIECBAgAABAgQIECBAgAABAgQIECBAgAABAgQIECBAgMC7gEHf+we4nwABAgQIECBAgAABAgQIECBAgAABAgQIECBAgAABAgQIECBAgAABAgQSAgZ9iRqEIECAAAECBAgQIECAAAECBAgQIECAAAECBAgQIECAAAECBAgQIECAAIF3AYO+9w9wPwECBAgQIECAAAECBAgQIECAAAECBAgQIECAAAECBAgQIECAAAECBAgkBAz6EjUIQYAAAQIECBAgQIAAAQIECBAgQIAAAQIECBAgQIAAAQIECBAgQIAAAQLvAgZ97x/gfgIECBAgQIAAAQIECBAgQIAAAQIECBAgQIAAAQIECBAgQIAAAQIECBBICBj0JWoQggABAgQIECBAgAABAgQIECBAgAABAgQIECBAgAABAgQIECBAgAABAgTeBQz63j/A/QQIECBAgAABAgQIECBAgAABAgQIECBAgAABAgQIECBAgAABAgQIECCQEDDoS9QgBAECBAgQIECAAAECBAgQIECAAAECBAgQIECAAAECBAgQIECAAAECBAi8Cxj0vX+A+wkQIECAAAECBAgQIECAAAECBAgQIECAAAECBAgQIECAAAECBAgQIEAgIWDQl6hBCAIECBAgQIAAAQIECBAgQIAAAQIECBAgQIAAAQIECBAgQIAAAQIECBB4FzDoe/8A9xMgQIAAAQIECBAgQIAAAQIECBAgQIAAAQIECBAgQIAAAQIECBAgQIBAQsCgL1GDEAQIECBAgAABAgQIECBAgAABAgQIECBAgAABAgQIECBAgAABAgQIECDwLmDQ9/4B7idAgAABAgQIECBAgAABAgQIECBAgAABAgQIECBAgAABAgQIECBAgACBhIBBX6IGIQgQIECAAAECBAgQIECAAAECBAgQIECAAAECBAgQIECAAAECBAgQIEDgXcCg7/0D3E+AAAECBAgQIECAAAECBAgQIECAAAECBAgQIECAAAECBAgQIECAAAECCQGDvkQNQhAgQIAAAQIECBAgQIAAAQIECBAgQIAAAQIECBAgQIAAAQIECBAgQIDAu4BB3/sHuJ8AAQIECBAgQIAAAQIECBAgQIAAAQIECBAgQIAAAQIECBAgQIAAAQIEEgIGfYkahCBAgAABAgQIECBAgAABAgQIECBAgAABAgQIECBAgAABAgQIECBAgACBdwGDvvcPcD8BAgQIECBAgAABAgQIECBAgAABAgQIECBAgAABAgQIECBAgAABAgQIJAQM+hI1CEGAAAECBAgQIECAAAECBAgQIECAAAECBAgQIECAAAECBAgQIECAAAEC7wIGfe8f4H4CBAgQIECAAAECBAgQIECAAAECBAgQIECAAAECBAgQIECAAAECBAgQSAgY9CVqEIIAAQIECBAgQIAAAQIECBAgQIAAAQIECBAgQIAAAQIECBAgQIAAAQIE3gUM+t4/wP0ECBAgQIAAAQIECBAgQIAAAQIECBAgQIAAAQIECBAgQIAAAQIECBAgkBAw6EvUIAQBAgQIECBAgAABAgQIECBAgAABAgQIECBAgAABAgQIECBAgAABAgQIvAsY9L1/gPsJECBAgAABAgQIECBAgAABAgQIECBAgAABAgQIECBAgAABAgQIECBAICFg0JeoQQgCBAgQIECAAAECBAgQIECAAAECBAgQIECAAAECBAgQIECAAAECBAgQeBcw6Hv/APcTIECAAAECBAgQIECAAAECBAgQIECAAAECBAgQIECAAAECBAgQIECAQELAoC9RgxAECBAgQIAAAQIECBAgQIAAAQIECBAgQIAAAQIECBAgQIAAAQIECBAg8C5g0Pf+Ae4nQIAAAQIECBAgQIAAAQIECBAgQIAAAQIECBAgQIAAAQIECBAgQIAAgYSAQV+iBiEIECBAgAABAgQIECBAgAABAgQIECBAgAABAgQIECBAgAABAgQIECBA4F3AoO/9A9xPgAABAgQIECBAgAABAgQIECBAgAABAgQIECBAgAABAgQIECBAgAABAgkBg75EDUIQIECAAAECBAgQIECAAAECBAgQIECAAAECBAgQIECAAAECBAgQIECAwLuAQd/7B7ifAAECBAgQIECAAAECBAgQIECAAAECBAgQIECAAAECBAgQIECAAAECBBICBn2JGoQgQIAAAQIECBAgQIAAAQIECBAgQIAAAQIECBAgQIAAAQIECBAgQIAAgXcBg773D3A/AQIECBAgQIAAAQIECBAgQIAAAQIECBAgQIAAAQIECBAgQIAAAQIECCQEDPoSNQhBgAABAgQIECBAgAABAgQIECBAgAABAgQIECBAgAABAgQIECBAgAABAu8CBn3vH+B+AgQIECBAgAABAgQIECBAgAABAgQIECBAgAABAgQIECBAgAABAgQIEEgIGPQlahCCAAECBAgQIECAAAECBAgQIECAAAECBAgQIECAAAECBAgQIECAAAECBN4FDPreP8D9BAgQIECAAAECBAgQIECAAAECBAgQIECAAAECBAgQIECAAAECBAgQIJAQMOhL1CAEAQIECBAgQIAAAQIECBAgQIAAAQIECBAgQIAAAQIECBAgQIAAAQIECLwLGPS9f4D7CRAgQIAAAQIECBAgQIAAAQIECBAgQIAAAQIECBAgQIAAAQIECBAgQCAhYNCXqEEIAgQIECBAgAABAgQIECBAgAABAgQIECBAgAABAgQIECBAgAABAgQIEHgXMOh7/wD3EyBAgAABAgQIECBAgAABAgQIECBAgAABAgQIECBAgAABAgQIECBAgEBCwKAvUYMQBAgQIECAAAECBAgQIECAAAECBAgQIECAAAECBAgQIECAAAECBAgQIPAuYND3/gHuJ0CAAAECBAgQIECAAAECBAgQIECAAAECBAgQIECAAAECBAgQIECAAIGEgEFfogYhCBAgQIAAAQIECBAgQIAAAQIECBAgQIAAAQIECBAgQIAAAQIECBAgQOBdwKDv/QPcT4AAAQIECBAgQIAAAQIECBAgQIAAAQIECBAgQIAAAQIECBAgQIAAAQIJAYO+RA1CECBAgAABAgQIECBAgAABAgQIECBAgAABAgQIECBAgAABAgQIECBAgMC7gEHf+we4nwABAgQIECBAgAABAgQIECBAgAABAgQIECBAgAABAgQIECBAgAABAgQSAgZ9iRqEIECAAAECBAgQIECAAAECBAgQIECAAAECBAgQIECAAAECBAgQIECAAIF3AYO+9w9wPwECBAgQIECAAAECBAgQIECAAAECBAgQIECAAAECBAgQIECAAAECBAgkBAz6EjUIQYAAAQIECBAgQIAAAQIECBAgQIAAAQIECBAgQIAAAQIECBAgQIAAAQLvAgZ97x/gfgIECBAgQIAAAQIECBAgQIAAAQIECBAgQIAAAQIECBAgQIAAAQIECBBICBj0JWoQggABAgQIECBAgAABAgQIECBAgAABAgQIECBAgAABAgQIECBAgAABAgTeBQz63j/A/QQIECBAgAABAgQIECBAgAABAgQIECBAgAABAgQIECBAgAABAgT7C/4cAAAfBUlEQVQIECCQEDDoS9QgBAECBAgQIECAAAECBAgQIECAAAECBAgQIECAAAECBAgQIECAAAECBAi8Cxj0vX+A+wkQIECAAAECBAgQIECAAAECBAgQIECAAAECBAgQIECAAAECBAgQIEAgIWDQl6hBCAIECBAgQIAAAQIECBAgQIAAAQIECBAgQIAAAQIECBAgQIAAAQIECBB4FzDoe/8A9xMgQIAAAQIECBAgQIAAAQIECBAgQIAAAQIECBAgQIAAAQIECBAgQIBAQsCgL1GDEAQIECBAgAABAgQIECBAgAABAgQIECBAgAABAgQIECBAgAABAgQIECDwLmDQ9/4B7idAgAABAgQIECBAgAABAgQIECBAgAABAgQIECBAgAABAgQIECBAgACBhIBBX6IGIQgQIECAAAECBAgQIECAAAECBAgQIECAAAECBAgQIECAAAECBAgQIEDgXcCg7/0D3E+AAAECBAgQIECAAAECBAgQIECAAAECBAgQIECAAAECBAgQIECAAAECCQGDvkQNQhAgQIAAAQIECBAgQIAAAQIECBAgQIAAAQIECBAgQIAAAQIECBAgQIDAu4BB3/sHuJ8AAQIECBAgQIAAAQIECBAgQIAAAQIECBAgQIAAAQIECBAgQIAAAQIEEgIGfYkahCBAgAABAgQIECBAgAABAgQIECBAgAABAgQIECBAgAABAgQIECBAgACBdwGDvvcPcD8BAgQIECBAgAABAgQIECBAgAABAgQIECBAgAABAgQIECBAgAABAgQIJAQM+hI1CEGAAAECBAgQIECAAAECBAgQIECAAAECBAgQIECAAAECBAgQIECAAAEC7wIGfe8f4H4CBAgQIECAAAECBAgQIECAAAECBAgQIECAAAECBAgQIECAAAECBAgQSAgY9CVqEIIAAQIECBAgQIAAAQIECBAgQIAAAQIECBAgQIAAAQIECBAgQIAAAQIE3gUM+t4/wP0ECBAgQIAAAQIECBAgQIAAAQIECBAgQIAAAQIECBAgQIAAAQIECBAgkBAw6EvUIAQBAgQIECBAgAABAgQIECBAgAABAgQIECBAgAABAgQIECBAgAABAgQIvAsY9L1/gPsJECBAgAABAgQIECBAgAABAgQIECBAgAABAgQIECBAgAABAgQIECBAICFg0JeoQQgCBAgQIECAAAECBAgQIECAAAECBAgQIECAAAECBAgQIECAAAECBAgQeBcw6Hv/APcTIECAAAECBAgQIECAAAECBAgQIECAAAECBAgQIECAAAECBAgQIECAQELAoC9RgxAECBAgQIAAAQIECBAgQIAAAQIECBAgQIAAAQIECBAgQIAAAQIECBAg8C5g0Pf+Ae4nQIAAAQIECBAgQIAAAQIECBAgQIAAAQIECBAgQIAAAQIECBAgQIAAgYSAQV+iBiEIECBAgAABAgQIECBAgAABAgQIECBAgAABAgQIECBAgAABAgQIECBA4F3AoO/9A9xPgAABAgQIECBAgAABAgQIECBAgAABAgQIECBAgAABAgQIECBAgAABAgkBg75EDUIQIECAAAECBAgQIECAAAECBAgQIECAAAECBAgQIECAAAECBAgQIECAwLuAQd/7B7ifAAECBAgQIECAAAECBAgQIECAAAECBAgQIECAAAECBAgQIECAAAECBBICBn2JGoQgQIAAAQIECBAgQIAAAQIECBAgQIAAAQIECBAgQIAAAQIECBAgQIAAgXcBg773D3A/AQIECBAgQIAAAQIECBAgQIAAAQIECBAgQIAAAQIECBAgQIAAAQIECCQEDPoSNQhBgAABAgQIECBAgAABAgQIECBAgAABAgQIECBAgAABAgQIECBAgAABAu8CBn3vH+B+AgQIECBAgAABAgQIECBAgAABAgQIECBAgAABAgQIECBAgAABAgQIEEgIGPQlahCCAAECBAgQIECAAAECBAgQIECAAAECBAgQIECAAAECBAgQIECAAAECBN4FDPreP8D9BAgQIECAAAECBAgQIECAAAECBAgQIECAAAECBAgQIECAAAECBAgQIJAQMOhL1CAEAQIECBAgQIAAAQIECBAgQIAAAQIECBAgQIAAAQIECBAgQIAAAQIECLwLGPS9f4D7CRAgQIAAAQIECBAgQIAAAQIECBAgQIAAAQIECBAgQIAAAQIECBAgQCAhYNCXqEEIAgQIECBAgAABAgQIECBAgAABAgQIECBAgAABAgQIECBAgAABAgQIEHgXMOh7/wD3EyBAgAABAgQIECBAgAABAgQIECBAgAABAgQIECBAgAABAgQIECBAgEBCwKAvUYMQBAgQIECAAAECBAgQIECAAAECBAgQIECAAAECBAgQIECAAAECBAgQIPAuYND3/gHuJ0CAAAECBAgQIECAAAECBAgQIECAAAECBAgQIECAAAECBAgQIECAAIGEgEFfogYhCBAgQIAAAQIECBAgQIAAAQIECBAgQIAAAQIECBAgQIAAAQIECBAgQOBdwKDv/QPcT4AAAQIECBAgQIAAAQIECBAgQIAAAQIECBAgQIAAAQIECBAgQIAAAQIJAYO+RA1CECBAgAABAgQIECBAgAABAgQIECBAgAABAgQIECBAgAABAgQIECBAgMC7gEHf+we4nwABAgQIECBAgAABAgQIECBAgAABAgQIECBAgAABAgQIECBAgAABAgQSAgZ9iRqEIECAAAECBAgQIECAAAECBAgQIECAAAECBAgQIECAAAECBAgQIECAAIF3AYO+9w9wPwECBAgQIECAAAECBAgQIECAAAECBAgQIECAAAECBAgQIECAAAECBAgkBAz6EjUIQYAAAQIECBAgQIAAAQIECBAgQIAAAQIECBAgQIAAAQIECBAgQIAAAQLvAgZ97x/gfgIECBAgQIAAAQIECBAgQIAAAQIECBAgQIAAAQIECBAgQIAAAQIECBBICBj0JWoQggABAgQIECBAgAABAgQIECBAgAABAgQIECBAgAABAgQIECBAgAABAgTeBQz63j/A/QQIECBAgAABAgQIECBAgAABAgQIECBAgAABAgQIECBAgAABAgQIECCQEDDoS9QgBAECBAgQIECAAAECBAgQIECAAAECBAgQIECAAAECBAgQIECAAAECBAi8Cxj0vX+A+wkQIECAAAECBAgQIECAAAECBAgQIECAAAECBAgQIECAAAECBAgQIEAgIWDQl6hBCAIECBAgQIAAAQIECBAgQIAAAQIECBAgQIAAAQIECBAgQIAAAQIECBB4FzDoe/8A9xMgQIAAAQIECBAgQIAAAQIECBAgQIAAAQIECBAgQIAAAQIECBAgQIBAQsCgL1GDEAQIECBAgAABAgQIECBAgAABAgQIECBAgAABAgQIECBAgAABAgQIECDwLmDQ9/4B7idAgAABAgQIECBAgAABAgQIECBAgAABAgQIECBAgAABAgQIECBAgACBhIBBX6IGIQgQIECAAAECBAgQIECAAAECBAgQIECAAAECBAgQIECAAAECBAgQIEDgXcCg7/0D3E+AAAECBAgQIECAAAECBAgQIECAAAECBAgQIECAAAECBAgQIECAAAECCQGDvkQNQhAgQIAAAQIECBAgQIAAAQIECBAgQIAAAQIECBAgQIAAAQIECBAgQIDAu4BB3/sHuJ8AAQIECBAgQIAAAQIECBAgQIAAAQIECBAgQIAAAQIECBAgQIAAAQIEEgIGfYkahCBAgAABAgQIECBAgAABAgQIECBAgAABAgQIECBAgAABAgQIECBAgACBdwGDvvcPcD8BAgQIECBAgAABAgQIECBAgAABAgQIECBAgAABAgQIECBAgAABAgQIJAQM+hI1CEGAAAECBAgQIECAAAECBAgQIECAAAECBAgQIECAAAECBAgQIECAAAEC7wIGfe8f4H4CBAgQIECAAAECBAgQIECAAAECBAgQIECAAAECBAgQIECAAAECBAgQSAgY9CVqEIIAAQIECBAgQIAAAQIECBAgQIAAAQIECBAgQIAAAQIECBAgQIAAAQIE3gUM+t4/wP0ECBAgQIAAAQIECBAgQIAAAQIECBAgQIAAAQIECBAgQIAAAQIECBAgkBAw6EvUIAQBAgQIECBAgAABAgQIECBAgAABAgQIECBAgAABAgQIECBAgAABAgQIvAsY9L1/gPsJECBAgAABAgQIECBAgAABAgQIECBAgAABAgQIECBAgAABAgQIECBAICFg0JeoQQgCBAgQIECAAAECBAgQIECAAAECBAgQIECAAAECBAgQIECAAAECBAgQeBcw6Hv/APcTIECAAAECBAgQIECAAAECBAgQIECAAAECBAgQIECAAAECBAgQIECAQELAoC9RgxAECBAgQIAAAQIECBAgQIAAAQIECBAgQIAAAQIECBAgQIAAAQIECBAg8C5g0Pf+Ae4nQIAAAQIECBAgQIAAAQIECBAgQIAAAQIECBAgQIAAAQIECBAgQIAAgYSAQV+iBiEIECBAgAABAgQIECBAgAABAgQIECBAgAABAgQIECBAgAABAgQIECBA4F3AoO/9A9xPgAABAgQIECBAgAABAgQIECBAgAABAgQIECBAgAABAgQIECBAgAABAgkBg75EDUIQIECAAAECBAgQIECAAAECBAgQIECAAAECBAgQIECAAAECBAgQIECAwLuAQd/7B7ifAAECBAgQIECAAAECBAgQIECAAAECBAgQIECAAAECBAgQIECAAAECBBICBn2JGoQgQIAAAQIECBAgQIAAAQIECBAgQIAAAQIECBAgQIAAAQIECBAgQIAAgXcBg773D3A/AQIECBAgQIAAAQIECBAgQIAAAQIECBAgQIAAAQIECBAgQIAAAQIECCQEDPoSNQhBgAABAgQIECBAgAABAgQIECBAgAABAgQIECBAgAABAgQIECBAgAABAu8CBn3vH+B+AgQIECBAgAABAgQIECBAgAABAgQIECBAgAABAgQIECBAgAABAgQIEEgIGPQlahCCAAECBAgQIECAAAECBAgQIECAAAECBAgQIECAAAECBAgQIECAAAECBN4FDPreP8D9BAgQIECAAAECBAgQIECAAAECBAgQIECAAAECBAgQIECAAAECBAgQIJAQMOhL1CAEAQIECBAgQIAAAQIECBAgQIAAAQIECBAgQIAAAQIECBAgQIAAAQIECLwLGPS9f4D7CRAgQIAAAQIECBAgQIAAAQIECBAgQIAAAQIECBAgQIAAAQIECBAgQCAhYNCXqEEIAgQIECBAgAABAgQIECBAgAABAgQIECBAgAABAgQIECBAgAABAgQIEHgXMOh7/wD3EyBAgAABAgQIECBAgAABAgQIECBAgAABAgQIECBAgAABAgQIECBAgEBCwKAvUYMQBAgQIECAAAECBAgQIECAAAECBAgQIECAAAECBAgQIECAAAECBAgQIPAuYND3/gHuJ0CAAAECBAgQIECAAAECBAgQIECAAAECBAgQIECAAAECBAgQIECAAIGEgEFfogYhCBAgQIAAAQIECBAgQIAAAQIECBAgQIAAAQIECBAgQIAAAQIECBAgQOBdwKDv/QPcT4AAAQIECBAgQIAAAQIECBAgQIAAAQIECBAgQIAAAQIECBAgQIAAAQIJAYO+RA1CECBAgAABAgQIECBAgAABAgQIECBAgAABAgQIECBAgAABAgQIECBAgMC7gEHf+we4nwABAgQIECBAgAABAgQIECBAgAABAgQIECBAgAABAgQIECBAgAABAgQSAgZ9iRqEIECAAAECBAgQIECAAAECBAgQIECAAAECBAgQIECAAAECBAgQIECAAIF3AYO+9w9wPwECBAgQIECAAAECBAgQIECAAAECBAgQIECAAAECBAgQIECAAAECBAgkBAz6EjUIQYAAAQIECBAgQIAAAQIECBAgQIAAAQIECBAgQIAAAQIECBAgQIAAAQLvAgZ97x/gfgIECBAgQIAAAQIECBAgQIAAAQIECBAgQIAAAQIECBAgQIAAAQIECBBICBj0JWoQggABAgQIECBAgAABAgQIECBAgAABAgQIECBAgAABAgQIECBAgAABAgTeBQz63j/A/QQIECBAgAABAgQIECBAgAABAgQIECBAgAABAgQIECBAgAABAgQIECCQEDDoS9QgBAECBAgQIECAAAECBAgQIECAAAECBAgQIECAAAECBAgQIECAAAECBAi8Cxj0vX+A+wkQIECAAAECBAgQIECAAAECBAgQIECAAAECBAgQIECAAAECBAgQIEAgIWDQl6hBCAIECBAgQIAAAQIECBAgQIAAAQIECBAgQIAAAQIECBAgQIAAAQIECBB4FzDoe/8A9xMgQIAAAQIECBAgQIAAAQIECBAgQIAAAQIECBAgQIAAAQIECBAgQIBAQsCgL1GDEAQIECBAgAABAgQIECBAgAABAgQIECBAgAABAgQIECBAgAABAgQIECDwLmDQ9/4B7idAgAABAgQIECBAgAABAgQIECBAgAABAgQIECBAgAABAgQIECBAgACBhIBBX6IGIQgQIECAAAECBAgQIECAAAECBAgQIECAAAECBAgQIECAAAECBAgQIEDgXcCg7/0D3E+AAAECBAgQIECAAAECBAgQIECAAAECBAgQIECAAAECBAgQIECAAAECCQGDvkQNQhAgQIAAAQIECBAgQIAAAQIECBAgQIAAAQIECBAgQIAAAQIECBAgQIDAu4BB3/sHuJ8AAQIECBAgQIAAAQIECBAgQIAAAQIECBAgQIAAAQIECBAgQIAAAQIEEgIGfYkahCBAgAABAgQIECBAgAABAgQIECBAgAABAgQIECBAgAABAgQIECBAgACBdwGDvvcPcD8BAgQIECBAgAABAgQIECBAgAABAgQIECBAgAABAgQIECBAgAABAgQIJAQM+hI1CEGAAAECBAgQIECAAAECBAgQIECAAAECBAgQIECAAAECBAgQIECAAAEC7wIGfe8f4H4CBAgQIECAAAECBAgQIECAAAECBAgQIECAAAECBAgQIECAAAECBAgQSAgY9CVqEIIAAQIECBAgQIAAAQIECBAgQIAAAQIECBAgQIAAAQIECBAgQIAAAQIE3gUM+t4/wP0ECBAgQIAAAQIECBAgQIAAAQIECBAgQIAAAQIECBAgQIAAAQIECBAgkBAw6EvUIAQBAgQIECBAgAABAgQIECBAgAABAgQIECBAgAABAgQIECBAgAABAgQIvAsY9L1/gPsJECBAgAABAgQIECBAgAABAgQIECBAgAABAgQIECBAgAABAgQIECBAICFg0JeoQQgCBAgQIECAAAECBAgQIECAAAECBAgQIECAAAECBAgQIECAAAECBAgQeBcw6Hv/APcTIECAAAECBAgQIECAAAECBAgQIECAAAECBAgQIECAAAECBAgQIECAQELAoC9RgxAECBAgQIAAAQIECBAgQIAAAQIECBAgQIAAAQIECBAgQIAAAQIECBAg8C5g0Pf+Ae4nQIAAAQIECBAgQIAAAQIECBAgQIAAAQIECBAgQIAAAQIECBAgQIAAgYSAQV+iBiEIECBAgAABAgQIECBAgAABAgQIECBAgAABAgQIECBAgAABAgQIECBA4F3AoO/9A9xPgAABAgQIECBAgAABAgQIECBAgAABAgQIECBAgAABAgQIECBAgAABAgkBg75EDUIQIECAAAECBAgQIECAAAECBAgQIECAAAECBAgQIECAAAECBAgQIECAwLuAQd/7B7ifAAECBAgQIECAAAECBAgQIECAAAECBAgQIECAAAECBAgQIECAAAECBBICBn2JGoQgQIAAAQIECBAgQIAAAQIECBAgQIAAAQIECBAgQIAAAQIECBAgQIAAgXcBg773D3A/AQIECBAgQIAAAQIECBAgQIAAAQIECBAgQIAAAQIECBAgQIAAAQIECCQEDPoSNQhBgAABAgQIECBAgAABAgQIECBAgAABAgQIECBAgAABAgQIECBAgAABAu8CBn3vH+B+AgQIECBAgAABAgQIECBAgAABAgQIECBAgAABAgQIECBAgAABAgQIEEgIGPQlahCCAAECBAgQIECAAAECBAgQIECAAAECBAgQIECAAAECBAgQIECAAAECBN4FDPreP8D9BAgQIECAAAECBAgQIECAAAECBAgQIECAAAECBAgQIECAAAECBAgQIJAQMOhL1CAEAQIECBAgQIAAAQIECBAgQIAAAQIECBAgQIAAAQIECBAgQIAAAQIECLwLGPS9f4D7CRAgQIAAAQIECBAgQIAAAQIECBAgQIAAAQIECBAgQIAAAQIECBAgQCAhYNCXqEEIAgQIECBAgAABAgQIECBAgAABAgQIECBAgAABAgQIECBAgAABAgQIEHgXMOh7/wD3EyBAgAABAgQIECBAgAABAgQIECBAgAABAgQIECBAgAABAgQIECBAgEBCwKAvUYMQBAgQIECAAAECBAgQIECAAAECBAgQIECAAAECBAgQIECAAAECBAgQIPAuYND3/gHuJ0CAAAECBAgQIECAAAECBAgQIECAAAECBAgQIECAAAECBAgQIECAAIGEgEFfogYhCBAgQIAAAQIECBAgQIAAAQIECBAgQIAAAQIECBAgQIAAAQIECBAgQOBdwKDv/QPcT4AAAQIECBAgQIAAAQIECBAgQIAAAQIECBAgQIAAAQIECBAgQIAAAQIJAYO+RA1CECBAgAABAgQIECBAgAABAgQIECBAgAABAgQIECBAgAABAgQIECBAgMC7gEHf+we4nwABAgQIECBAgAABAgQIECBAgAABAgQIECBAgAABAgQIECBAgAABAgQSAgZ9iRqEIECAAAECBAgQIECAAAECBAgQIECAAAECBAgQIECAAAECBAgQIECAAIF3AYO+9w9wPwECBAgQIECAAAECBAgQIECAAAECBAgQIECAAAECBAgQIECAAAECBAgkBAz6EjUIQYAAAQIECBAgQIAAAQIECBAgQIAAAQIECBAgQIAAAQIECBAgQIAAAQLvAgZ97x/gfgIECBAgQIAAAQIECBAgQIAAAQIECBAgQIAAAQIECBAgQIAAAQIECBBICBj0JWoQggABAgQIECBAgAABAgQIECBAgAABAgQIECBAgAABAgQIECBAgAABAgTeBQz63j/A/QQIECBAgAABAgQIECBAgAABAgQIECBAgAABAgQIECBAgAABAgQIECCQEDDoS9QgBAECBAgQIECAAAECBAgQIECAAAECBAgQIECAAAECBAgQIECAAAECBAi8Cxj0vX+A+wkQIECAAAECBAgQIECAAAECBAgQIECAAAECBAgQIECAAAECBAgQIEAgIWDQl6hBCAIECBAgQIAAAQIECBAgQIAAAQIECBAgQIAAAQIECBAgQIAAAQIECBB4FzDoe/8A9xMgQIAAAQIECBAgQIAAAQIECBAgQIAAAQIECBAgQIAAAQIECBAgQIBAQsCgL1GDEAQIECBAgAABAgQIECBAgAABAgQIECBAgAABAgQIECBAgAABAgQIECDwLmDQ9/4B7idAgAABAgQIECBAgAABAgQIECBAgAABAgQIECBAgAABAgQIECBAgACBhIBBX6IGIQgQIECAAAECBAgQIECAAAECBAgQIECAAAECBAgQIECAAAECBAgQIEDgXcCg7/0D3E+AAAECBAgQIECAAAECBAgQIECAAAECBAgQIECAAAECBAgQIECAAAECCQGDvkQNQhAgQIAAAQIECBAgQIAAAQIECBAgQIAAAQIECBAgQIAAAQIECBAgQIDAu4BB3/sHuJ8AAQIECBAgQIAAAQIECBAgQIAAAQIECBAgQIAAAQIECBAgQIAAAQIEEgIGfYkahCBAgAABAgQIECBAgAABAgQIECBAgAABAgQIECBAgAABAgQIECBAgACBdwGDvvcPcD8BAgQIECBAgAABAgQIECBAgAABAgQIECBAgAABAgQIECBAgAABAgQIJAQM+hI1CEGAAAECBAgQIECAAAECBAgQIECAAAECBAgQIECAAAECBAgQIECAAAEC7wIGfe8f4H4CBAgQIECAAAECBAgQIECAAAECBAgQIECAAAECBAgQIECAAAECBAgQSAgY9CVqEIIAAQIECBAgQIAAAQIECBAgQIAAAQIECBAgQIAAAQIECBAgQIAAAQIE3gUM+t4/wP0ECBAgQIAAAQIECBAgQIAAAQIECBAgQIAAAQIECBAgQIAAAQIECBAgkBAw6EvUIAQBAgQIECBAgAABAgQIECBAgAABAgQIECBAgAABAgQIECBAgAABAgQIvAsY9L1/gPsJECBAgAABAgQIECBAgAABAgQIECBAgAABAgQIECBAgAABAgQIECBAICFg0JeoQQgCBAgQIECAAAECBAgQIECAAAECBAgQIECAAAECBAgQIECAAAECBAgQeBcw6Hv/APcTIECAAAECBAgQIECAAAECBAgQIECAAAECBAgQIECAAAECBAgQIECAQELAoC9RgxAECBAgQIAAAQIECBAgQIAAAQIECBAgQIAAAQIECBAgQIAAAQIECBAg8C4wAAAA//82hliSAABAAElEQVTs2rENACAMwDD6/9GAeIIM5gEqt2Nm37c8AgQIECBAgAABAgQIECBAgAABAgQIECBAgAABAgQIECBAgAABAgQIECBA4KvACPq++vucAAECBAgQIECAAAECBAgQIECAAAECBAgQIECAAAECBAgQIECAAAECBAg8AUGfQyBAgAABAgQIECBAgAABAgQIECBAgAABAgQIECBAgAABAgQIECBAgAABAgEBQV9gCUYgQIAAAQIECBAgQIAAAQIECBAgQIAAAQIECBAgQIAAAQIECBAgQIAAAQKCPjdAgAABAgQIECBAgAABAgQIECBAgAABAgQIECBAgAABAgQIECBAgAABAgQCAoK+wBKMQIAAAQIECBAgQIAAAQIECBAgQIAAAQIECBAgQIAAAQIECBAgQIAAAQIEBH1ugAABAgQIECBAgAABAgQIECBAgAABAgQIECBAgAABAgQIECBAgAABAgQIBAQEfYElGIEAAQIECBAgQIAAAQIECBAgQIAAAQIECBAgQIAAAQIECBAgQIAAAQIECAj63AABAgQIECBAgAABAgQIECBAgAABAgQIECBAgAABAgQIECBAgAABAgQIEAgICPoCSzACAQIECBAgQIAAAQIECBAgQIAAAQIECBAgQIAAAQIECBAgQIAAAQIECBAQ9LkBAgQIECBAgAABAgQIECBAgAABAgQIECBAgAABAgQIECBAgAABAgQIECAQEBD0BZZgBAIECBAgQIAAAQIECBAgQIAAAQIECBAgQIAAAQIECBAgQIAAAQIECBAgIOhzAwQIECBAgAABAgQIECBAgAABAgQIECBAgAABAgQIECBAgAABAgQIECBAICAg6AsswQgECBAgQIAAAQIECBAgQIAAAQIECBAgQIAAAQIECBAgQIAAAQIECBAgQEDQ5wYIECBAgAABAgQIECBAgAABAgQIECBAgAABAgQIECBAgAABAgQIECBAgEBAQNAXWIIRCBAgQIAAAQIECBAgQIAAAQIECBAgQIAAAQIECBAgQIAAAQIECBAgQICAoM8NECBAgAABAgQIECBAgAABAgQIECBAgAABAgQIECBAgAABAgQIECBAgACBgICgL7AEIxAgQIAAAQIECBAgQIAAAQIECBAgQIAAAQIECBAgQIAAAQIECBAgQIAAAUGfGyBAgAABAgQIECBAgAABAgQIECBAgAABAgQIECBAgAABAgQIECBAgAABAgEBQV9gCUYgQIAAAQIECBAgQIAAAQIECBAgQIAAAQIECBAgQIAAAQIECBAgQIAAAQKCPjdAgAABAgQIECBAgAABAgQIECBAgAABAgQIECBAgAABAgQIECBAgAABAgQCAoK+wBKMQIAAAQIECBAgQIAAAQIECBAgQIAAAQIECBAgQIAAAQIECBAgQIAAAQIEBH1ugAABAgQIECBAgAABAgQIECBAgAABAgQIECBAgAABAgQIECBAgAABAgQIBAQEfYElGIEAAQIECBAgQIAAAQIECBAgQIAAAQIECBAgQIAAAQIECBAgQIAAAQIECAj63AABAgQIECBAgAABAgQIECBAgAABAgQIECBAgAABAgQIECBAgAABAgQIEAgICPoCSzACAQIECBAgQIAAAQIECBAgQIAAAQIECBAgQIAAAQIECBAgQIAAAQIECBAQ9LkBAgQIECBAgAABAgQIECBAgAABAgQIECBAgAABAgQIECBAgAABAgQIECAQEBD0BZZgBAIECBAgQIAAAQIECBAgQIAAAQIECBAgQIAAAQIECBAgQIAAAQIECBAgIOhzAwQIECBAgAABAgQIECBAgAABAgQIECBAgAABAgQIECBAgAABAgQIECBAICAg6AsswQgECBAgQIAAAQIECBAgQIAAAQIECBAgQIAAAQIECBAgQIAAAQIECBAgQEDQ5wYIECBAgAABAgQIECBAgAABAgQIECBAgAABAgQIECBAgAABAgQIECBAgEBAQNAXWIIRCBAgQIAAAQIECBAgQIAAAQIECBAgQIAAAQIECBAgQIAAAQIECBAgQICAoM8NECBAgAABAgQIECBAgAABAgQIECBAgAABAgQIECBAgAABAgQIECBAgACBgICgL7AEIxAgQIAAAQIECBAgQIAAAQIECBAgQIAAAQIECBAgQIAAAQIECBAgQIAAAUGfGyBAgAABAgQIECBAgAABAgQIECBAgAABAgQIECBAgAABAgQIECBAgAABAgEBQV9gCUYgQIAAAQIECBAgQIAAAQIECBAgQIAAAQIECBAgQIAAAQIECBAgQIAAAQKCPjdAgAABAgQIECBAgAABAgQIECBAgAABAgQIECBAgAABAgQIECBAgAABAgQCAoK+wBKMQIAAAQIECBAgQIAAAQIECBAgQIAAAQIECBAgQIAAAQIECBAgQIAAAQIEBH1ugAABAgQIECBAgAABAgQIECBAgAABAgQIECBAgAABAgQIECBAgAABAgQIBAQEfYElGIEAAQIECBAgQIAAAQIECBAgQIAAAQIECBAgQIAAAQIECBAgQIAAAQIECAj63AABAgQIECBAgAABAgQIECBAgAABAgQIECBAgAABAgQIECBAgAABAgQIEAgICPoCSzACAQIECBAgQIAAAQIECBAgQIAAAQIECBAgQIAAAQIECBAgQIAAAQIECBAQ9LkBAgQIECBAgAABAgQIECBAgAABAgQIECBAgAABAgQIECBAgAABAgQIECAQEBD0BZZgBAIECBAgQIAAAQIECBAgQIAAAQIECBAgQIAAAQIECBAgQIAAAQIECBAgIOhzAwQIECBAgAABAgQIECBAgAABAgQIECBAgAABAgQIECBAgAABAgQIECBAICAg6AsswQgECBAgQIAAAQIECBAgQIAAAQIECBAgQIAAAQIECBAgQIAAAQIECBAgQEDQ5wYIECBAgAABAgQIECBAgAABAgQIECBAgAABAgQIECBAgAABAgQIECBAgEBAQNAXWIIRCBAgQIAAAQIECBAgQIAAAQIECBAgQIAAAQIECBAgQIAAAQIECBAgQICAoM8NECBAgAABAgQIECBAgAABAgQIECBAgAABAgQIECBAgAABAgQIECBAgACBgICgL7AEIxAgQIAAAQIECBAgQIAAAQIECBAgQIAAAQIECBAgQIAAAQIECBAgQIAAAUGfGyBAgAABAgQIECBAgAABAgQIECBAgAABAgQIECBAgAABAgQIECBAgAABAgEBQV9gCUYgQIAAAQIECBAgQIAAAQIECBAgQIAAAQIECBAgQIAAAQIECBAgQIAAAQKCPjdAgAABAgQIECBAgAABAgQIECBAgAABAgQIECBAgAABAgQIECBAgAABAgQCAoK+wBKMQIAAAQIECBAgQIAAAQIECBAgQIAAAQIECBAgQIAAAQIECBAgQIAAAQIEBH1ugAABAgQIECBAgAABAgQIECBAgAABAgQIECBAgAABAgQIECBAgAABAgQIBAQEfYElGIEAAQIECBAgQIAAAQIECBAgQIAAAQIECBAgQIAAAQIECBAgQIAAAQIECAj63AABAgQIECBAgAABAgQIECBAgAABAgQIECBAgAABAgQIECBAgAABAgQIEAgICPoCSzACAQIECBAgQIAAAQIECBAgQIAAAQIECBAgQIAAAQIECBAgQIAAAQIECBAQ9LkBAgQIECBAgAABAgQIECBAgAABAgQIECBAgAABAgQIECBAgAABAgQIECAQEBD0BZZgBAIECBAgQIAAAQIECBAgQIAAAQIECBAgQIAAAQIECBAgQIAAAQIECBAgIOhzAwQIECBAgAABAgQIECBAgAABAgQIECBAgAABAgQIECBAgAABAgQIECBAICAg6AsswQgECBAgQIAAAQIECBAgQIAAAQIECBAgQIAAAQIECBAgQIAAAQIECBAgQEDQ5wYIECBAgAABAgQIECBAgAABAgQIECBAgAABAgQIECBAgAABAgQIECBAgEBAQNAXWIIRCBAgQIAAAQIECBAgQIAAAQIECBAgQIAAAQIECBAgQIAAAQIECBAgQICAoM8NECBAgAABAgQIECBAgAABAgQIECBAgAABAgQIECBAgAABAgQIECBAgACBgICgL7AEIxAgQIAAAQIECBAgQIAAAQIECBAgQIAAAQIECBAgQIAAAQIECBAgQIAAAUGfGyBAgAABAgQIECBAgAABAgQIECBAgAABAgQIECBAgAABAgQIECBAgAABAgEBQV9gCUYgQIAAAQIECBAgQIAAAQIECBAgQIAAAQIECBAgQIAAAQIECBAgQIAAAQKCPjdAgAABAgQIECBAgAABAgQIECBAgAABAgQIECBAgAABAgQIECBAgAABAgQCAoK+wBKMQIAAAQIECBAgQIAAAQIECBAgQIAAAQIECBAgQIAAAQIECBAgQIAAAQIEBH1ugAABAgQIECBAgAABAgQIECBAgAABAgQIECBAgAABAgQIECBAgAABAgQIBAQEfYElGIEAAQIECBAgQIAAAQIECBAgQIAAAQIECBAgQIAAAQIECBAgQIAAAQIECAj63AABAgQIECBAgAABAgQIECBAgAABAgQIECBAgAABAgQIECBAgAABAgQIEAgICPoCSzACAQIECBAgQIAAAQIECBAgQIAAAQIECBAgQIAAAQIECBAgQIAAAQIECBAQ9LkBAgQIECBAgAABAgQIECBAgAABAgQIECBAgAABAgQIECBAgAABAgQIECAQEBD0BZZgBAIECBAgQIAAAQIECBAgQIAAAQIECBAgQIAAAQIECBAgQIAAAQIECBAgIOhzAwQIECBAgAABAgQIECBAgAABAgQIECBAgAABAgQIECBAgAABAgQIECBAICAg6AsswQgECBAgQIAAAQIECBAgQIAAAQIECBAgQIAAAQIECBAgQIAAAQIECBAgQEDQ5wYIECBAgAABAgQIECBAgAABAgQIECBAgAABAgQIECBAgAABAgQIECBAgEBAQNAXWIIRCBAgQIAAAQIECBAgQIAAAQIECBAgQIAAAQIECBAgQIAAAQIECBAgQICAoM8NECBAgAABAgQIECBAgAABAgQIECBAgAABAgQIECBAgAABAgQIECBAgACBgICgL7AEIxAgQIAAAQIECBAgQIAAAQIECBAgQIAAAQIECBAgQIAAAQIECBAgQIAAAUGfGyBAgAABAgQIECBAgAABAgQIECBAgAABAgQIECBAgAABAgQIECBAgAABAgEBQV9gCUYgQIAAAQIECBAgQIAAAQIECBAgQIAAAQIECBAgQIAAAQIECBAgQIAAAQKCPjdAgAABAgQIECBAgAABAgQIECBAgAABAgQIECBAgAABAgQIECBAgAABAgQCAoK+wBKMQIAAAQIECBAgQIAAAQIECBAgQIAAAQIECBAgQIAAAQIECBAgQIAAAQIEBH1ugAABAgQIECBAgAABAgQIECBAgAABAgQIECBAgAABAgQIECBAgAABAgQIBAQEfYElGIEAAQIECBAgQIAAAQIECBAgQIAAAQIECBAgQIAAAQIECBAgQIAAAQIECAj63AABAgQIECBAgAABAgQIECBAgAABAgQIECBAgAABAgQIECBAgAABAgQIEAgICPoCSzACAQIECBAgQIAAAQIECBAgQIAAAQIECBAgQIAAAQIECBAgQIAAAQIECBAQ9LkBAgQIECBAgAABAgQIECBAgAABAgQIECBAgAABAgQIECBAgAABAgQIECAQEBD0BZZgBAIECBAgQIAAAQIECBAgQIAAAQIECBAgQIAAAQIECBAgQIAAAQIECBAgIOhzAwQIECBAgAABAgQIECBAgAABAgQIECBAgAABAgQIECBAgAABAgQIECBAICAg6AsswQgECBAgQIAAAQIECBAgQIAAAQIECBAgQIAAAQIECBAgQIAAAQIECBAgQEDQ5wYIECBAgAABAgQIECBAgAABAgQIECBAgAABAgQIECBAgAABAgQIECBAgEBAQNAXWIIRCBAgQIAAAQIECBAgQIAAAQIECBAgQIAAAQIECBAgQIAAAQIECBAgQICAoM8NECBAgAABAgQIECBAgAABAgQIECBAgAABAgQIECBAgAABAgQIECBAgACBgICgL7AEIxAgQIAAAQIECBAgQIAAAQIECBAgQIAAAQIECBAgQIAAAQIECBAgQIAAAUGfGyBAgAABAgQIECBAgAABAgQIECBAgAABAgQIECBAgAABAgQIECBAgAABAgEBQV9gCUYgQIAAAQIECBAgQIAAAQIECBAgQIAAAQIECBAgQIAAAQIECBAgQIAAAQKCPjdAgAABAgQIECBAgAABAgQIECBAgAABAgQIECBAgAABAgQIECBAgAABAgQCAoK+wBKMQIAAAQIECBAgQIAAAQIECBAgQIAAAQIECBAgQIAAAQIECBAgQIAAAQIEBH1ugAABAgQIECBAgAABAgQIECBAgAABAgQIECBAgAABAgQIECBAgAABAgQIBAQEfYElGIEAAQIECBAgQIAAAQIECBAgQIAAAQIECBAgQIAAAQIECBAgQIAAAQIECAj63AABAgQIECBAgAABAgQIECBAgAABAgQIECBAgAABAgQIECBAgAABAgQIEAgICPoCSzACAQIECBAgQIAAAQIECBAgQIAAAQIECBAgQIAAAQIECBAgQIAAAQIECBAQ9LkBAgQIECBAgAABAgQIECBAgAABAgQIECBAgAABAgQIECBAgAABAgQIECAQEBD0BZZgBAIECBAgQIAAAQIECBAgQIAAAQIECBAgQIAAAQIECBAgQIAAAQIECBAgIOhzAwQIECBAgAABAgQIECBAgAABAgQIECBAgAABAgQIECBAgAABAgQIECBAICAg6AsswQgECBAgQIAAAQIECBAgQIAAAQIECBAgQIAAAQIECBAgQIAAAQIECBAgQEDQ5wYIECBAgAABAgQIECBAgAABAgQIECBAgAABAgQIECBAgAABAgQIECBAgEBAQNAXWIIRCBAgQIAAAQIECBAgQIAAAQIECBAgQIAAAQIECBAgQIAAAQIECBAgQICAoM8NECBAgAABAgQIECBAgAABAgQIECBAgAABAgQIECBAgAABAgQIECBAgACBgICgL7AEIxAgQIAAAQIECBAgQIAAAQIECBAgQIAAAQIECBAgQIAAAQIECBAgQIAAAUGfGyBAgAABAgQIECBAgAABAgQIECBAgAABAgQIECBAgAABAgQIECBAgAABAgEBQV9gCUYgQIAAAQIECBAgQIAAAQIECBAgQIAAAQIECBAgQIAAAQIECBAgQIAAAQKCPjdAgAABAgQIECBAgAABAgQIECBAgAABAgQIECBAgAABAgQIECBAgAABAgQCAoK+wBKMQIAAAQIECBAgQIAAAQIECBAgQIAAAQIECBAgQIAAAQIECBAgQIAAAQIEBH1ugAABAgQIECBAgAABAgQIECBAgAABAgQIECBAgAABAgQIECBAgAABAgQIBAQEfYElGIEAAQIECBAgQIAAAQIECBAgQIAAAQIECBAgQIAAAQIECBAgQIAAAQIECAj63AABAgQIECBAgAABAgQIECBAgAABAgQIECBAgAABAgQIECBAgAABAgQIEAgICPoCSzACAQIECBAgQIAAAQIECBAgQIAAAQIECBAgQIAAAQIECBAgQIAAAQIECBAQ9LkBAgQIECBAgAABAgQIECBAgAABAgQIECBAgAABAgQIECBAgAABAgQIECAQEBD0BZZgBAIECBAgQIAAAQIECBAgQIAAAQIECBAgQIAAAQIECBAgQIAAAQIECBAgIOhzAwQIECBAgAABAgQIECBAgAABAgQIECBAgAABAgQIECBAgAABAgQIECBAICAg6AsswQgECBAgQIAAAQIECBAgQIAAAQIECBAgQIAAAQIECBAgQIAAAQIECBAgQEDQ5wYIECBAgAABAgQIECBAgAABAgQIECBAgAABAgQIECBAgAABAgQIECBAgEBAQNAXWIIRCBAgQIAAAQIECBAgQIAAAQIECBAgQIAAAQIECBAgQIAAAQIECBAgQICAoM8NECBAgAABAgQIECBAgAABAgQIECBAgAABAgQIECBAgAABAgQIECBAgACBgICgL7AEIxAgQIAAAQIECBAgQIAAAQIECBAgQIAAAQIECBAgQIAAAQIECBAgQIAAAUGfGyBAgAABAgQIECBAgAABAgQIECBAgAABAgQIECBAgAABAgQIECBAgAABAgEBQV9gCUYgQIAAAQIECBAgQIAAAQIECBAgQIAAAQIECBAgQIAAAQIECBAgQIAAAQKCPjdAgAABAgQIECBAgAABAgQIECBAgAABAgQIECBAgAABAgQIECBAgAABAgQCAoK+wBKMQIAAAQIECBAgQIAAAQIECBAgQIAAAQIECBAgQIAAAQIECBAgQIAAAQIEBH1ugAABAgQIECBAgAABAgQIECBAgAABAgQIECBAgAABAgQIECBAgAABAgQIBAQEfYElGIEAAQIECBAgQIAAAQIECBAgQIAAAQIECBAgQIAAAQIECBAgQIAAAQIECAj63AABAgQIECBAgAABAgQIECBAgAABAgQIECBAgAABAgQIECBAgAABAgQIEAgICPoCSzACAQIECBAgQIAAAQIECBAgQIAAAQIECBAgQIAAAQIECBAgQIAAAQIECBAQ9LkBAgQIECBAgAABAgQIECBAgAABAgQIECBAgAABAgQIECBAgAABAgQIECAQEBD0BZZgBAIECBAgQIAAAQIECBAgQIAAAQIECBAgQIAAAQIECBAgQIAAAQIECBAgIOhzAwQIECBAgAABAgQIECBAgAABAgQIECBAgAABAgQIECBAgAABAgQIECBAICAg6AsswQgECBAgQIAAAQIECBAgQIAAAQIECBAgQIAAAQIECBAgQIAAAQIECBAgQEDQ5wYIECBAgAABAgQIECBAgAABAgQIECBAgAABAgQIECBAgAABAgQIECBAgEBAQNAXWIIRCBAgQIAAAQIECBAgQIAAAQIECBAgQIAAAQIECBAgQIAAAQIECBAgQICAoM8NECBAgAABAgQIECBAgAABAgQIECBAgAABAgQIECBAgAABAgQIECBAgACBgICgL7AEIxAgQIAAAQIECBAgQIAAAQIECBAgQIAAAQIECBAgQIAAAQIECBAgQIAAAUGfGyBAgAABAgQIECBAgAABAgQIECBAgAABAgQIECBAgAABAgQIECBAgAABAgEBQV9gCUYgQIAAAQIECBAgQIAAAQIECBAgQIAAAQIECBAgQIAAAQIECBAgQIAAAQKCPjdAgAABAgQIECBAgAABAgQIECBAgAABAgQIECBAgAABAgQIECBAgAABAgQCAoK+wBKMQIAAAQIECBAgQIAAAQIECBAgQIAAAQIECBAgQIAAAQIECBAgQIAAAQIEBH1ugAABAgQIECBAgAABAgQIECBAgAABAgQIECBAgAABAgQIECBAgAABAgQIBAQEfYElGIEAAQIECBAgQIAAAQIECBAgQIAAAQIECBAgQIAAAQIECBAgQIAAAQIECAj63AABAgQIECBAgAABAgQIECBAgAABAgQIECBAgAABAgQIECBAgAABAgQIEAgICPoCSzACAQIECBAgQIAAAQIECBAgQIAAAQIECBAgQIAAAQIECBAgQIAAAQIECBAQ9LkBAgQIECBAgAABAgQIECBAgAABAgQIECBAgAABAgQIECBAgAABAgQIECAQEBD0BZZgBAIECBAgQIAAAQIECBAgQIAAAQIECBAgQIAAAQIECBAgQIAAAQIECBAgIOhzAwQIECBAgAABAgQIECBAgAABAgQIECBAgAABAgQIECBAgAABAgQIECBAICAg6AsswQgECBAgQIAAAQIECBAgQIAAAQIECBAgQIAAAQIECBAgQIAAAQIECBAgQEDQ5wYIECBAgAABAgQIECBAgAABAgQIECBAgAABAgQIECBAgAABAgQIECBAgEBAQNAXWIIRCBAgQIAAAQIECBAgQIAAAQIECBAgQIAAAQIECBAgQIAAAQIECBAgQICAoM8NECBAgAABAgQIECBAgAABAgQIECBAgAABAgQIECBAgAABAgQIECBAgACBgICgL7AEIxAgQIAAAQIECBAgQIAAAQIECBAgQIAAAQIECBAgQIAAAQIECBAgQIAAAUGfGyBAgAABAgQIECBAgAABAgQIECBAgAABAgQIECBAgAABAgQIECBAgAABAgEBQV9gCUYgQIAAAQIECBAgQIAAAQIECBAgQIAAAQIECBAgQIAAAQIECBAgQIAAAQKCPjdAgAABAgQIECBAgAABAgQIECBAgAABAgQIECBAgAABAgQIECBAgAABAgQCAoK+wBKMQIAAAQIECBAgQIAAAQIECBAgQIAAAQIECBAgQIAAAQIECBAgQIAAAQIEBH1ugAABAgQIECBAgAABAgQIECBAgAABAgQIECBAgAABAgQIECBAgAABAgQIBAQEfYElGIEAAQIECBAgQIAAAQIECBAgQIAAAQIECBAgQIAAAQIECBAgQIAAAQIECAj63AABAgQIECBAgAABAgQIECBAgAABAgQIECBAgAABAgQIECBAgAABAgQIEAgICPoCSzACAQIECBAgQIAAAQIECBAgQIAAAQIECBAgQIAAAQIECBAgQIAAAQIECBAQ9LkBAgQIECBAgAABAgQIECBAgAABAgQIECBAgAABAgQIECBAgAABAgQIECAQEBD0BZZgBAIECBAgQIAAAQIECBAgQIAAAQIECBAgQIAAAQIECBAgQIAAAQIECBAgIOhzAwQIECBAgAABAgQIECBAgAABAgQIECBAgAABAgQIECBAgAABAgQIECBAICAg6AsswQgECBAgQIAAAQIECBAgQIAAAQIECBAgQIAAAQIECBAgQIAAAQIECBAgQEDQ5wYIECBAgAABAgQIECBAgAABAgQIECBAgAABAgQIECBAgAABAgQIECBAgEBAQNAXWIIRCBAgQIAAAQIECBAgQIAAAQIECBAgQIAAAQIECBAgQIAAAQIECBAgQICAoM8NECBAgAABAgQIECBAgAABAgQIECBAgAABAgQIECBAgAABAgQIECBAgACBgICgL7AEIxAgQIAAAQIECBAgQIAAAQIECBAgQIAAAQIECBAgQIAAAQIECBAgQIAAAUGfGyBAgAABAgQIECBAgAABAgQIECBAgAABAgQIECBAgAABAgQIECBAgAABAgEBQV9gCUYgQIAAAQIECBAgQIAAAQIECBAgQIAAAQIECBAgQIAAAQIECBAgQIAAAQKCPjdAgAABAgQIECBAgAABAgQIECBAgAABAgQIECBAgAABAgQIECBAgAABAgQCAoK+wBKMQIAAAQIECBAgQIAAAQIECBAgQIAAAQIECBAgQIAAAQIECBAgQIAAAQIEBH1ugAABAgQIECBAgAABAgQIECBAgAABAgQIECBAgAABAgQIECBAgAABAgQIBAQEfYElGIEAAQIECBAgQIAAAQIECBAgQIAAAQIECBAgQIAAAQIECBAgQIAAAQIECAj63AABAgQIECBAgAABAgQIECBAgAABAgQIECBAgAABAgQIECBAgAABAgQIEAgICPoCSzACAQIECBAgQIAAAQIECBAgQIAAAQIECBAgQIAAAQIECBAgQIAAAQIECBAQ9LkBAgQIECBAgAABAgQIECBAgAABAgQIECBAgAABAgQIECBAgAABAgQIECAQEBD0BZZgBAIECBAgQIAAAQIECBAgQIAAAQIECBAgQIAAAQIECBAgQIAAAQIECBAgIOhzAwQIECBAgAABAgQIECBAgAABAgQIECBAgAABAgQIECBAgAABAgQIECBAICAg6AsswQgECBAgQIAAAQIECBAgQIAAAQIECBAgQIAAAQIECBAgQIAAAQIECBAgQEDQ5wYIECBAgAABAgQIECBAgAABAgQIECBAgAABAgQIECBAgAABAgQIECBAgEBAQNAXWIIRCBAgQIAAAQIECBAgQIAAAQIECBAgQIAAAQIECBAgQIAAAQIECBAgQICAoM8NECBAgAABAgQIECBAgAABAgQIECBAgAABAgQIECBAgAABAgQIECBAgACBgICgL7AEIxAgQIAAAQIECBAgQIAAAQIECBAgQIAAAQIECBAgQIAAAQIECBAgQIAAAUGfGyBAgAABAgQIECBAgAABAgQIECBAgAABAgQIECBAgAABAgQIECBAgAABAgEBQV9gCUYgQIAAAQIECBAgQIAAAQIECBAgQIAAAQIECBAgQIAAAQIECBAgQIAAAQKCPjdAgAABAgQIECBAgAABAgQIECBAgAABAgQIECBAgAABAgQIECBAgAABAgQCAoK+wBKMQIAAAQIECBAgQIAAAQIECBAgQIAAAQIECBAgQIAAAQIECBAgQIAAAQIEBH1ugAABAgQIECBAgAABAgQIECBAgAABAgQIECBAgAABAgQIECBAgAABAgQIBAQEfYElGIEAAQIECBAgQIAAAQIECBAgQIAAAQIECBAgQIAAAQIECBAgQIAAAQIECAj63AABAgQIECBAgAABAgQIECBAgAABAgQIECBAgAABAgQIECBAgAABAgQIEAgICPoCSzACAQIECBAgQIAAAQIECBAgQIAAAQIECBAgQIAAAQIECBAgQIAAAQIECBAQ9LkBAgQIECBAgAABAgQIECBAgAABAgQIECBAgAABAgQIECBAgAABAgQIECAQEBD0BZZgBAIECBAgQIAAAQIECBAgQIAAAQIECBAgQIAAAQIECBAgQIAAAQIECBAgIOhzAwQIECBAgAABAgQIECBAgAABAgQIECBAgAABAgQIECBAgAABAgQIECBAICAg6AsswQgECBAgQIAAAQIECBAgQIAAAQIECBAgQIAAAQIECBAgQIAAAQIECBAgQEDQ5wYIECBAgAABAgQIECBAgAABAgQIECBAgAABAgQIECBAgAABAgQIECBAgEBAQNAXWIIRCBAgQIAAAQIECBAgQIAAAQIECBAgQIAAAQIECBAgQIAAAQIECBAgQICAoM8NECBAgAABAgQIECBAgAABAgQIECBAgAABAgQIECBAgAABAgQIECBAgACBgICgL7AEIxAgQIAAAQIECBAgQIAAAQIECBAgQIAAAQIECBAgQIAAAQIECBAgQIAAAUGfGyBAgAABAgQIECBAgAABAgQIECBAgAABAgQIECBAgAABAgQIECBAgAABAgEBQV9gCUYgQIAAAQIECBAgQIAAAQIECBAgQIAAAQIECBAgQIAAAQIECBAgQIAAAQKCPjdAgAABAgQIECBAgAABAgQIECBAgAABAgQIECBAgAABAgQIECBAgAABAgQCAoK+wBKMQIAAAQIECBAgQIAAAQIECBAgQIAAAQIECBAgQIAAAQIECBAgQIAAAQIEBH1ugAABAgQIECBAgAABAgQIECBAgAABAgQIECBAgAABAgQIECBAgAABAgQIBAQEfYElGIEAAQIECBAgQIAAAQIECBAgQIAAAQIECBAgQIAAAQIECBAgQIAAAQIECAj63AABAgQIECBAgAABAgQIECBAgAABAgQIECBAgAABAgQIECBAgAABAgQIEAgICPoCSzACAQIECBAgQIAAAQIECBAgQIAAAQIECBAgQIAAAQIECBAgQIAAAQIECBAQ9LkBAgQIECBAgAABAgQIECBAgAABAgQIECBAgAABAgQIECBAgAABAgQIECAQEBD0BZZgBAIECBAgQIAAAQIECBAgQIAAAQIECBAgQIAAAQIECBAgQIAAAQIECBAgIOhzAwQIECBAgAABAgQIECBAgAABAgQIECBAgAABAgQIECBAgAABAgQIECBAICAg6AsswQgECBAgQIAAAQIECBAgQIAAAQIECBAgQIAAAQIECBAgQIAAAQIECBAgQEDQ5wYIECBAgAABAgQIECBAgAABAgQIECBAgAABAgQIECBAgAABAgQIECBAgEBAQNAXWIIRCBAgQIAAAQIECBAgQIAAAQIECBAgQIAAAQIECBAgQIAAAQIECBAgQICAoM8NECBAgAABAgQIECBAgAABAgQIECBAgAABAgQIECBAgAABAgQIECBAgACBgICgL7AEIxAgQIAAAQIECBAgQIAAAQIECBAgQIAAAQIECBAgQIAAAQIECBAgQIAAAUGfGyBAgAABAgQIECBAgAABAgQIECBAgAABAgQIECBAgAABAgQIECBAgAABAgEBQV9gCUYgQIAAAQIECBAgQIAAAQIECBAgQIAAAQIECBAgQIAAAQIECBAgQIAAAQKCPjdAgAABAgQIECBAgAABAgQIECBAgAABAgQIECBAgAABAgQIECBAgAABAgQCAoK+wBKMQIAAAQIECBAgQIAAAQIECBAgQIAAAQIECBAgQIAAAQIECBAgQIAAAQIEBH1ugAABAgQIECBAgAABAgQIECBAgAABAgQIECBAgAABAgQIECBAgAABAgQIBAQEfYElGIEAAQIECBAgQIAAAQIECBAgQIAAAQIECBAgQIAAAQIECBAgQIAAAQIECAj63AABAgQIECBAgAABAgQIECBAgAABAgQIECBAgAABAgQIECBAgAABAgQIEAgICPoCSzACAQIECBAgQIAAAQIECBAgQIAAAQIECBAgQIAAAQIECBAgQIAAAQIECBAQ9LkBAgQIECBAgAABAgQIECBAgAABAgQIECBAgAABAgQIECBAgAABAgQIECAQEBD0BZZgBAIECBAgQIAAAQIECBAgQIAAAQIECBAgQIAAAQIECBAgQIAAAQIECBAgIOhzAwQIECBAgAABAgQIECBAgAABAgQIECBAgAABAgQIECBAgAABAgQIECBAICAg6AsswQgECBAgQIAAAQIECBAgQIAAAQIECBAgQIAAAQIECBAgQIAAAQIECBAgQEDQ5wYIECBAgAABAgQIECBAgAABAgQIECBAgAABAgQIECBAgAABAgQIECBAgEBAQNAXWIIRCBAgQIAAAQIECBAgQIAAAQIECBAgQIAAAQIECBAgQIAAAQIECBAgQICAoM8NECBAgAABAgQIECBAgAABAgQIECBAgAABAgQIECBAgAABAgQIECBAgACBgICgL7AEIxAgQIAAAQIECBAgQIAAAQIECBAgQIAAAQIECBAgQIAAAQIECBAgQIAAAUGfGyBAgAABAgQIECBAgAABAgQIECBAgAABAgQIECBAgAABAgQIECBAgAABAgEBQV9gCUYgQIAAAQIECBAgQIAAAQIECBAgQIAAAQIECBAgQIAAAQIECBAgQIAAAQKCPjdAgAABAgQIECBAgAABAgQIECBAgAABAgQIECBAgAABAgQIECBAgAABAgQCAoK+wBKMQIAAAQIECBAgQIAAAQIECBAgQIAAAQIECBAgQIAAAQIECBAgQIAAAQIEBH1ugAABAgQIECBAgAABAgQIECBAgAABAgQIECBAgAABAgQIECBAgAABAgQIBAQEfYElGIEAAQIECBAgQIAAAQIECBAgQIAAAQIECBAgQIAAAQIECBAgQIAAAQIECAj63AABAgQIECBAgAABAgQIECBAgAABAgQIECBAgAABAgQIECBAgAABAgQIEAgICPoCSzACAQIECBAgQIAAAQIECBAgQIAAAQIECBAgQIAAAQIECBAgQIAAAQIECBAQ9LkBAgQIECBAgAABAgQIECBAgAABAgQIECBAgAABAgQIECBAgAABAgQIECAQEBD0BZZgBAIECBAgQIAAAQIECBAgQIAAAQIECBAgQIAAAQIECBAgQIAAAQIECBAgIOhzAwQIECBAgAABAgQIECBAgAABAgQIECBAgAABAgQIECBAgAABAgQIECBAICAg6AsswQgECBAgQIAAAQIECBAgQIAAAQIECBAgQIAAAQIECBAgQIAAAQIECBAgQEDQ5wYIECBAgAABAgQIECBAgAABAgQIECBAgAABAgQIECBAgAABAgQIECBAgEBAQNAXWIIRCBAgQIAAAQIECBAgQIAAAQIECBAgQIAAAQIECBAgQIAAAQIECBAgQICAoM8NECBAgAABAgQIECBAgAABAgQIECBAgAABAgQIECBAgAABAgQIECBAgACBgICgL7AEIxAgQIAAAQIECBAgQIAAAQIECBAgQIAAAQIECBAgQIAAAQIECBAgQIAAAUGfGyBAgAABAgQIECBAgAABAgQIECBAgAABAgQIECBAgAABAgQIECBAgAABAgEBQV9gCUYgQIAAAQIECBAgQIAAAQIECBAgQIAAAQIECBAgQIAAAQIECBAgQIAAAQKCPjdAgAABAgQIECBAgAABAgQIECBAgAABAgQIECBAgAABAgQIECBAgAABAgQCAoK+wBKMQIAAAQIECBAgQIAAAQIECBAgQIAAAQIECBAgQIAAAQIECBAgQIAAAQIEBH1ugAABAgQIECBAgAABAgQIECBAgAABAgQIECBAgAABAgQIECBAgAABAgQIBAQEfYElGIEAAQIECBAgQIAAAQIECBAgQIAAAQIECBAgQIAAAQIECBAgQIAAAQIECAj63AABAgQIECBAgAABAgQIECBAgAABAgQIECBAgAABAgQIECBAgAABAgQIEAgICPoCSzACAQIECBAgQIAAAQIECBAgQIAAAQIECBAgQIAAAQIECBAgQIAAAQIECBAQ9LkBAgQIECBAgAABAgQIECBAgAABAgQIECBAgAABAgQIECBAgAABAgQIECAQEBD0BZZgBAIECBAgQIAAAQIECBAgQIAAAQIECBAgQIAAAQIECBAgQIAAAQIECBAgIOhzAwQIECBAgAABAgQIECBAgAABAgQIECBAgAABAgQIECBAgAABAgQIECBAICAg6AsswQgECBAgQIAAAQIECBAgQIAAAQIECBAgQIAAAQIECBAgQIAAAQIECBAgQEDQ5wYIECBAgAABAgQIECBAgAABAgQIECBAgAABAgQIECBAgAABAgQIECBAgEBAQNAXWIIRCBAgQIAAAQIECBAgQIAAAQIECBAgQIAAAQIECBAgQIAAAQIECBAgQICAoM8NECBAgAABAgQIECBAgAABAgQIECBAgAABAgQIECBAgAABAgQIECBAgACBgICgL7AEIxAgQIAAAQIECBAgQIAAAQIECBAgQIAAAQIECBAgQIAAAQIECBAgQIAAAUGfGyBAgAABAgQIECBAgAABAgQIECBAgAABAgQIECBAgAABAgQIECBAgAABAgEBQV9gCUYgQIAAAQIECBAgQIAAAQIECBAgQIAAAQIECBAgQIAAAQIECBAgQIAAAQKCPjdAgAABAgQIECBAgAABAgQIECBAgAABAgQIECBAgAABAgQIECBAgAABAgQCAoK+wBKMQIAAAQIECBAgQIAAAQIECBAgQIAAAQIECBAgQIAAAQIECBAgQIAAAQIEBH1ugAABAgQIECBAgAABAgQIECBAgAABAgQIECBAgAABAgQIECBAgAABAgQIBAQEfYElGIEAAQIECBAgQIAAAQIECBAgQIAAAQIECBAgQIAAAQIECBAgQIAAAQIECAj63AABAgQIECBAgAABAgQIECBAgAABAgQIECBAgAABAgQIECBAgAABAgQIEAgICPoCSzACAQIECBAgQIAAAQIECBAgQIAAAQIECBAgQIAAAQIECBAgQIAAAQIECBAQ9LkBAgQIECBAgAABAgQIECBAgAABAgQIECBAgAABAgQIECBAgAABAgQIECAQEBD0BZZgBAIECBAgQIAAAQIECBAgQIAAAQIECBAgQIAAAQIECBAgQIAAAQIECBAgIOhzAwQIECBAgAABAgQIECBAgAABAgQIECBAgAABAgQIECBAgAABAgQIECBAICAg6AsswQgECBAgQIAAAQIECBAgQIAAAQIECBAgQIAAAQIECBAgQIAAAQIECBAgQEDQ5wYIECBAgAABAgQIECBAgAABAgQIECBAgAABAgQIECBAgAABAgQIECBAgEBAQNAXWIIRCBAgQIAAAQIECBAgQIAAAQIECBAgQIAAAQIECBAgQIAAAQIECBAgQICAoM8NECBAgAABAgQIECBAgAABAgQIECBAgAABAgQIECBAgAABAgQIECBAgACBgICgL7AEIxAgQIAAAQIECBAgQIAAAQIECBAgQIAAAQIECBAgQIAAAQIECBAgQIAAAUGfGyBAgAABAgQIECBAgAABAgQIECBAgAABAgQIECBAgAABAgQIECBAgAABAgEBQV9gCUYgQIAAAQIECBAgQIAAAQIECBAgQIAAAQIECBAgQIAAAQIECBAgQIAAAQKCPjdAgAABAgQIECBAgAABAgQIECBAgAABAgQIECBAgAABAgQIECBAgAABAgQCAoK+wBKMQIAAAQIECBAgQIAAAQIECBAgQIAAAQIECBAgQIAAAQIECBAgQIAAAQIEBH1ugAABAgQIECBAgAABAgQIECBAgAABAgQIECBAgAABAgQIECBAgAABAgQIBAQEfYElGIEAAQIECBAgQIAAAQIECBAgQIAAAQIECBAgQIAAAQIECBAgQIAAAQIECAj63AABAgQIECBAgAABAgQIECBAgAABAgQIECBAgAABAgQIECBAgAABAgQIEAgICPoCSzACAQIECBAgQIAAAQIECBAgQIAAAQIECBAgQIAAAQIECBAgQIAAAQIECBAQ9LkBAgQIECBAgAABAgQIECBAgAABAgQIECBAgAABAgQIECBAgAABAgQIECAQEBD0BZZgBAIECBAgQIAAAQIECBAgQIAAAQIECBAgQIAAAQIECBAgQIAAAQIECBAgIOhzAwQIECBAgAABAgQIECBAgAABAgQIECBAgAABAgQIECBAgAABAgQIECBAICAg6AsswQgECBAgQIAAAQIECBAgQIAAAQIECBAgQIAAAQIECBAgQIAAAQIECBAgQEDQ5wYIECBAgAABAgQIECBAgAABAgQIECBAgAABAgQIECBAgAABAgQIECBAgEBAQNAXWIIRCBAgQIAAAQIECBAgQIAAAQIECBAgQIAAAQIECBAgQIAAAQIECBAgQICAoM8NECBAgAABAgQIECBAgAABAgQIECBAgAABAgQIECBAgAABAgQIECBAgACBgICgL7AEIxAgQIAAAQIECBAgQIAAAQIECBAgQIAAAQIECBAgQIAAAQIECBAgQIAAAUGfGyBAgAABAgQIECBAgAABAgQIECBAgAABAgQIECBAgAABAgQIECBAgAABAgEBQV9gCUYgQIAAAQIECBAgQIAAAQIECBAgQIAAAQIECBAgQIAAAQIECBAgQIAAAQKCPjdAgAABAgQIECBAgAABAgQIECBAgAABAgQIECBAgAABAgQIECBAgAABAgQCAoK+wBKMQIAAAQIECBAgQIAAAQIECBAgQIAAAQIECBAgQIAAAQIECBAgQIAAAQIEBH1ugAABAgQIECBAgAABAgQIECBAgAABAgQIECBAgAABAgQIECBAgAABAgQIBAQEfYElGIEAAQIECBAgQIAAAQIECBAgQIAAAQIECBAgQIAAAQIECBAgQIAAAQIECAj63AABAgQIECBAgAABAgQIECBAgAABAgQIECBAgAABAgQIECBAgAABAgQIEAgICPoCSzACAQIECBAgQIAAAQIECBAgQIAAAQIECBAgQIAAAQIECBAgQIAAAQIECBAQ9LkBAgQIECBAgAABAgQIECBAgAABAgQIECBAgAABAgQIECBAgAABAgQIECAQEBD0BZZgBAIECBAgQIAAAQIECBAgQIAAAQIECBAgQIAAAQIECBAgQIAAAQIECBAgIOhzAwQIECBAgAABAgQIECBAgAABAgQIECBAgAABAgQIECBAgAABAgQIECBAICAg6AsswQgECBAgQIAAAQIECBAgQIAAAQIECBAgQIAAAQIECBAgQIAAAQIECBAgQEDQ5wYIECBAgAABAgQIECBAgAABAgQIECBAgAABAgQIECBAgAABAgQIECBAgEBAQNAXWIIRCBAgQIAAAQIECBAgQIAAAQIECBAgQIAAAQIECBAgQIAAAQIECBAgQICAoM8NECBAgAABAgQIECBAgAABAgQIECBAgAABAgQIECBAgAABAgQIECBAgACBgICgL7AEIxAgQIAAAQIECBAgQIAAAQIECBAgQIAAAQIECBAgQIAAAQIECBAgQIAAAUGfGyBAgAABAgQIECBAgAABAgQIECBAgAABAgQIECBAgAABAgQIECBAgAABAgEBQV9gCUYgQIAAAQIECBAgQIAAAQIECBAgQIAAAQIECBAgQIAAAQIECBAgQIAAAQKCPjdAgAABAgQIECBAgAABAgQIECBAgAABAgQIECBAgAABAgQIECBAgAABAgQCAoK+wBKMQIAAAQIECBAgQIAAAQIECBAgQIAAAQIECBAgQIAAAQIECBAgQIAAAQIEBH1ugAABAgQIECBAgAABAgQIECBAgAABAgQIECBAgAABAgQIECBAgAABAgQIBAQEfYElGIEAAQIECBAgQIAAAQIECBAgQIAAAQIECBAgQIAAAQIECBAgQIAAAQIECAj63AABAgQIECBAgAABAgQIECBAgAABAgQIECBAgAABAgQIECBAgAABAgQIEAgICPoCSzACAQIECBAgQIAAAQIECBAgQIAAAQIECBAgQIAAAQIECBAgQIAAAQIECBAQ9LkBAgQIECBAgAABAgQIECBAgAABAgQIECBAgAABAgQIECBAgAABAgQIECAQEBD0BZZgBAIECBAgQIAAAQIECBAgQIAAAQIECBAgQIAAAQIECBAgQIAAAQIECBAgIOhzAwQIECBAgAABAgQIECBAgAABAgQIECBAgAABAgQIECBAgAABAgQIECBAICAg6AsswQgECBAgQIAAAQIECBAgQIAAAQIECBAgQIAAAQIECBAgQIAAAQIECBAgQEDQ5wYIECBAgAABAgQIECBAgAABAgQIECBAgAABAgQIECBAgAABAgQIECBAgEBAQNAXWIIRCBAgQIAAAQIECBAgQIAAAQIECBAgQIAAAQIECBAgQIAAAQIECBAgQICAoM8NECBAgAABAgQIECBAgAABAgQIECBAgAABAgQIECBAgAABAgQIECBAgACBgICgL7AEIxAgQIAAAQIECBAgQIAAAQIECBAgQIAAAQIECBAgQIAAAQIECBAgQIAAAUGfGyBAgAABAgQIECBAgAABAgQIECBAgAABAgQIECBAgAABAgQIECBAgAABAgEBQV9gCUYgQIAAAQIECBAgQIAAAQIECBAgQIAAAQIECBAgQIAAAQIECBAgQIAAAQKCPjdAgAABAgQIECBAgAABAgQIECBAgAABAgQIECBAgAABAgQIECBAgAABAgQCAoK+wBKMQIAAAQIECBAgQIAAAQIECBAgQIAAAQIECBAgQIAAAQIECBAgQIAAAQIEBH1ugAABAgQIECBAgAABAgQIECBAgAABAgQIECBAgAABAgQIECBAgAABAgQIBAQEfYElGIEAAQIECBAgQIAAAQIECBAgQIAAAQIECBAgQIAAAQIECBAgQIAAAQIECAj63AABAgQIECBAgAABAgQIECBAgAABAgQIECBAgAABAgQIECBAgAABAgQIEAgICPoCSzACAQIECBAgQIAAAQIECBAgQIAAAQIECBAgQIAAAQIECBAgQIAAAQIECBAQ9LkBAgQIECBAgAABAgQIECBAgAABAgQIECBAgAABAgQIECBAgAABAgQIECAQEBD0BZZgBAIECBAgQIAAAQIECBAgQIAAAQIECBAgsIfdOwAAQABJREFUQIAAAQIECBAgQIAAAQIECBAgIOhzAwQIECBAgAABAgQIECBAgAABAgQIECBAgAABAgQIECBAgAABAgQIECBAICAg6AsswQgECBAgQIAAAQIECBAgQIAAAQIECBAgQIAAAQIECBAgQIAAAQIECBAgQEDQ5wYIECBAgAABAgQIECBAgAABAgQIECBAgAABAgQIECBAgAABAgQIECBAgEBAQNAXWIIRCBAgQIAAAQIECBAgQIAAAQIECBAgQIAAAQIECBAgQIAAAQIECBAgQICAoM8NECBAgAABAgQIECBAgAABAgQIECBAgAABAgQIECBAgAABAgQIECBAgACBgICgL7AEIxAgQIAAAQIECBAgQIAAAQIECBAgQIAAAQIECBAgQIAAAQIECBAgQIAAAUGfGyBAgAABAgQIECBAgAABAgQIECBAgAABAgQIECBAgAABAgQIECBAgAABAgEBQV9gCUYgQIAAAQIECBAgQIAAAQIECBAgQIAAAQIECBAgQIAAAQIECBAgQIAAAQKCPjdAgAABAgQIECBAgAABAgQIECBAgAABAgQIECBAgAABAgQIECBAgAABAgQCAoK+wBKMQIAAAQIECBAgQIAAAQIECBAgQIAAAQIECBAgQIAAAQIECBAgQIAAAQIEBH1ugAABAgQIECBAgAABAgQIECBAgAABAgQIECBAgAABAgQIECBAgAABAgQIBAQEfYElGIEAAQIECBAgQIAAAQIECBAgQIAAAQIECBAgQIAAAQIECBAgQIAAAQIECAj63AABAgQIECBAgAABAgQIECBAgAABAgQIECBAgAABAgQIECBAgAABAgQIEAgICPoCSzACAQIECBAgQIAAAQIECBAgQIAAAQIECBAgQIAAAQIECBAgQIAAAQIECBAQ9LkBAgQIECBAgAABAgQIECBAgAABAgQIECBAgAABAgQIECBAgAABAgQIECAQEBD0BZZgBAIECBAgQIAAAQIECBAgQIAAAQIECBAgQIAAAQIECBAgQIAAAQIECBAgIOhzAwQIECBAgAABAgQIECBAgAABAgQIECBAgAABAgQIECBAgAABAgQIECBAICAg6AsswQgECBAgQIAAAQIECBAgQIAAAQIECBAgQIAAAQIECBAgQIAAAQIECBAgQEDQ5wYIECBAgAABAgQIECBAgAABAgQIECBAgAABAgQIECBAgAABAgQIECBAgEBAQNAXWIIRCBAgQIAAAQIECBAgQIAAAQIECBAgQIAAAQIECBAgQIAAAQIECBAgQICAoM8NECBAgAABAgQIECBAgAABAgQIECBAgAABAgQIECBAgAABAgQIECBAgACBgICgL7AEIxAgQIAAAQIECBAgQIAAAQIECBAgQIAAAQIECBAgQIAAAQIECBAgQIAAAUGfGyBAgAABAgQIECBAgAABAgQIECBAgAABAgQIECBAgAABAgQIECBAgAABAgEBQV9gCUYgQIAAAQIECBAgQIAAAQIECBAgQIAAAQIECBAgQIAAAQIECBAgQIAAAQKCPjdAgAABAgQIECBAgAABAgQIECBAgAABAgQIECBAgAABAgQIECBAgAABAgQCAoK+wBKMQIAAAQIECBAgQIAAAQIECBAgQIAAAQIECBAgQIAAAQIECBAgQIAAAQIEBH1ugAABAgQIECBAgAABAgQIECBAgAABAgQIECBAgAABAgQIECBAgAABAgQIBAQEfYElGIEAAQIECBAgQIAAAQIECBAgQIAAAQIECBAgQIAAAQIECBAgQIAAAQIECAj63AABAgQIECBAgAABAgQIECBAgAABAgQIECBAgAABAgQIECBAgAABAgQIEAgICPoCSzACAQIECBAgQIAAAQIECBAgQIAAAQIECBAgQIAAAQIECBAgQIAAAQIECBAQ9LkBAgQIECBAgAABAgQIECBAgAABAgQIECBAgAABAgQIECBAgAABAgQIECAQEBD0BZZgBAIECBAgQIAAAQIECBAgQIAAAQIECBAgQIAAAQIECBAgQIAAAQIECBAgIOhzAwQIECBAgAABAgQIECBAgAABAgQIECBAgAABAgQIECBAgAABAgQIECBAICAg6AsswQgECBAgQIAAAQIECBAgQIAAAQIECBAgQIAAAQIECBAgQIAAAQIECBAgQEDQ5wYIECBAgAABAgQIECBAgAABAgQIECBAgAABAgQIECBAgAABAgQIECBAgEBAQNAXWIIRCBAgQIAAAQIECBAgQIAAAQIECBAgQIAAAQIECBAgQIAAAQIECBAgQICAoM8NECBAgAABAgQIECBAgAABAgQIECBAgAABAgQIECBAgAABAgQIECBAgACBgICgL7AEIxAgQIAAAQIECBAgQIAAAQIECBAgQIAAAQIECBAgQIAAAQIECBAgQIAAAUGfGyBAgAABAgQIECBAgAABAgQIECBAgAABAgQIECBAgAABAgQIECBAgAABAgEBQV9gCUYgQIAAAQIECBAgQIAAAQIECBAgQIAAAQIECBAgQIAAAQIECBAgQIAAAQKCPjdAgAABAgQIECBAgAABAgQIECBAgAABAgQIECBAgAABAgQIECBAgAABAgQCAoK+wBKMQIAAAQIECBAgQIAAAQIECBAgQIAAAQIECBAgQIAAAQIECBAgQIAAAQIEBH1ugAABAgQIECBAgAABAgQIECBAgAABAgQIECBAgAABAgQIECBAgAABAgQIBAQEfYElGIEAAQIECBAgQIAAAQIECBAgQIAAAQIECBAgQIAAAQIECBAgQIAAAQIECAj63AABAgQIECBAgAABAgQIECBAgAABAgQIECBAgAABAgQIECBAgAABAgQIEAgICPoCSzACAQIECBAgQIAAAQIECBAgQIAAAQIECBAgQIAAAQIECBAgQIAAAQIECBAQ9LkBAgQIECBAgAABAgQIECBAgAABAgQIECBAgAABAgQIECBAgAABAgQIECAQEBD0BZZgBAIECBAgQIAAAQIECBAgQIAAAQIECBAgQIAAAQIECBAgQIAAAQIECBAgIOhzAwQIECBAgAABAgQIECBAgAABAgQIECBAgAABAgQIECBAgAABAgQIECBAICAg6AsswQgECBAgQIAAAQIECBAgQIAAAQIECBAgQIAAAQIECBAgQIAAAQIECBAgQEDQ5wYIECBAgAABAgQIECBAgAABAgQIECBAgAABAgQIECBAgAABAgQIECBAgEBAQNAXWIIRCBAgQIAAAQIECBAgQIAAAQIECBAgQIAAAQIECBAgQIAAAQIECBAgQICAoM8NECBAgAABAgQIECBAgAABAgQIECBAgAABAgQIECBAgAABAgQIECBAgACBgICgL7AEIxAgQIAAAQIECBAgQIAAAQIECBAgQIAAAQIECBAgQIAAAQIECBAgQIAAAUGfGyBAgAABAgQIECBAgAABAgQIECBAgAABAgQIECBAgAABAgQIECBAgAABAgEBQV9gCUYgQIAAAQIECBAgQIAAAQIECBAgQIAAAQIECBAgQIAAAQIECBAgQIAAAQKCPjdAgAABAgQIECBAgAABAgQIECBAgAABAgQIECBAgAABAgQIECBAgAABAgQCAoK+wBKMQIAAAQIECBAgQIAAAQIECBAgQIAAAQIECBAgQIAAAQIECBAgQIAAAQIEBH1ugAABAgQIECBAgAABAgQIECBAgAABAgQIECBAgAABAgQIECBAgAABAgQIBAQEfYElGIEAAQIECBAgQIAAAQIECBAgQIAAAQIECBAgQIAAAQIECBAgQIAAAQIECAj63AABAgQIECBAgAABAgQIECBAgAABAgQIECBAgAABAgQIECBAgAABAgQIEAgICPoCSzACAQIECBAgQIAAAQIECBAgcNq1Y+OEgTAIo3dVmGpwFzA2VakO7B4ggLbOg5vQN8MLlCjR6v0bLgECBAgQIECAAAECBAgQIECAAAECBAgQIEDAoE8HCBAgQIAAAQIECBAgQIAAAQIECBAgQIAAAQIECBAgQIAAAQIECBAgQIBAQMCgL3AEEQgQIECAAAECBAgQIECAAAECBAgQIECAAAECBAgQIECAAAECBAgQIECAgEGfDhAgQIAAAQIECBAgQIAAAQIECBAgQIAAAQIECBAgQIAAAQIECBAgQIAAgYCAQV/gCCIQIECAAAECBAgQIECAAAECBAgQIECAAAECBAgQIECAAAECBAgQIECAAAGDPh0gQIAAAQIECBAgQIAAAQIECBAgQIAAAQIECBAgQIAAAQIECBAgQIAAAQIBAYO+wBFEIECAAAECBAgQIECAAAECBAgQIECAAAECBAgQIECAAAECBAgQIECAAAECBn06QIAAAQIECBAgQIAAAQIECBAgQIAAAQIECBAgQIAAAQIECBAgQIAAAQIEAgIGfYEjiECAAAECBAgQIECAAAECBAgQIECAAAECBAgQIECAAAECBAgQIECAAAECBAz6dIAAAQIECBAgQIAAAQIECBAgQIAAAQIECBAgQIAAAQIECBAgQIAAAQIECAQEDPoCRxCBAAECBAgQIECAAAECBAgQIECAAAECBAgQIECAAAECBAgQIECAAAECBAgY9OkAAQIECBAgQIAAAQIECBAgQIAAAQIECBAgQIAAAQIECBAgQIAAAQIECBAICBj0BY4gAgECBAgQIECAAAECBAgQIECAAAECBAgQIECAAAECBAgQIECAAAECBAgQMOjTAQIECBAgQIAAAQIECBAgQIAAAQIECBAgQIAAAQIECBAgQIAAAQIECBAgEBAw6AscQQQCBAgQIECAAAECBAgQIECAAAECBAgQIECAAAECBAgQIECAAAECBAgQIGDQpwMECBAgQIAAAQIECBAgQIAAAQIECBAgQIAAAQIECBAgQIAAAQIECBAgQCAgYNAXOIIIBAgQIECAAAECBAgQIECAAAECBAgQIECAAAECBAgQIECAAAECBAgQIEDAoE8HCBAgQIAAAQIECBAgQIAAAQIECBAgQIAAAQIECBAgQIAAAQIECBAgQIBAQMCgL3AEEQgQIECAAAECBAgQIECAAAECBAgQIECAAAECBAgQIECAAAECBAgQIECAgEGfDhAgQIAAAQIECBAgQIAAAQIECBAgQIAAAQIECBAgQIAAAQIECBAgQIAAgYCAQV/gCCIQIECAAAECBAgQIECAAAECBAgQIECAAAECBAgQIECAAAECBAgQIECAAAGDPh0gQIAAAQIECBAgQIAAAQIECBAgQIAAAQIECBAgQIAAAQIECBAgQIAAAQIBAYO+wBFEIECAAAECBAgQIECAAAECBAgQIECAAAECBAgQIECAAAECBAgQIECAAAECBn06QIAAAQIECBAgQIAAAQIECBAgQIAAAQIECBAgQIAAAQIECBAgQIAAAQIEAgIGfYEjiECAAAECBAgQIECAAAECBAgQIECAAAECBAgQIECAAAECBAgQIECAAAECBAz6dIAAAQIECBAgQIAAAQIECBAgQIAAAQIECBAgQIAAAQIECBAgQIAAAQIECAQEDPoCRxCBAAECBAgQIECAAAECBAgQIECAAAECBAgQIECAAAECBAgQIECAAAECBAgY9OkAAQIECBAgQIAAAQIECBAgQIAAAQIECBAgQIAAAQIECBAgQIAAAQIECBAICBj0BY4gAgECBAgQIECAAAECBAgQIECAAAECBAgQIECAAAECBAgQIECAAAECBAgQMOjTAQIECBAgQIAAAQIECBAgQIAAAQIECBAgQIAAAQIECBAgQIAAAQIECBAgEBAw6AscQQQCBAgQIECAAAECBAgQIECAAAECBAgQIECAAAECBAgQIECAAAECBAgQIGDQpwMECBAgQIAAAQIECBAgQIAAAQIECBAgQIAAAQIECBAgQIAAAQIECBAgQCAgYNAXOIIIBAgQIECAAAECBAgQIECAAAECBAgQIECAAAECBAgQIECAAAECBAgQIEDAoE8HCBAgQIAAAQIECBAgQIAAAQIECBAgQIAAAQIECBAgQIAAAQIECBAgQIBAQMCgL3AEEQgQIECAAAECBAgQIECAAAECBAgQIECAAAECBAgQIECAAAECBAgQIECAgEGfDhAgQIAAAQIECBAgQIAAAQIECBAgQIAAAQIECBAgQIAAAQIECBAgQIAAgYCAQV/gCCIQIECAAAECBAgQIECAAAECBAgQIECAAAECBAgQIECAAAECBAgQIECAAAGDPh0gQIAAAQIECBAgQIAAAQIECBAgQIAAAQIECBAgQIAAAQIECBAgQIAAAQIBAYO+wBFEIECAAAECBAgQIECAAAECBAgQIECAAAECBAgQIECAAAECBAgQIECAAAECBn06QIAAAQIECBAgQIAAAQIECBAgQIAAAQIECBAgQIAAAQIECBAgQIAAAQIEAgIGfYEjiECAAAECBAgQIECAAAECBAgQIECAAAECBAgQIECAAAECBAgQIECAAAECBAz6dIAAAQIECBAgQIAAAQIECBAgQIAAAQIECBAgQIAAAQIECBAgQIAAAQIECAQEDPoCRxCBAAECBAgQIECAAAECBAgQIECAAAECBAgQIECAAAECBAgQIECAAAECBAgY9OkAAQIECBAgQIAAAQIECBAgQIAAAQIECBAgQIAAAQIECBAgQIAAAQIECBAICBj0BY4gAgECBAgQIECAAAECBAgQIECAAAECBAgQIECAAAECBAgQIECAAAECBAgQMOjTAQIECBAgQIAAAQIECBAgQIAAAQIECBAgQIAAAQIECBAgQIAAAQIECBAgEBAw6AscQQQCBAgQIECAAAECBAgQIECAAAECBAgQIECAAAECBAgQIECAAAECBAgQIGDQpwMECBAgQIAAAQIECBAgQIAAAQIECBAgQIAAAQIECBAgQIAAAQIECBAgQCAgYNAXOIIIBAgQIECAAAECBAgQIECAAAECBAgQIECAAAECBAgQIECAAAECBAgQIEDAoE8HCBAgQIAAAQIECBAgQIAAAQIECBAgQIAAAQIECBAgQIAAAQIECBAgQIBAQMCgL3AEEQgQIECAAAECBAgQIECAAAECBAgQIECAAAECBAgQIECAAAECBAgQIECAgEGfDhAgQIAAAQIECBAgQIAAAQIECBAgQIAAAQIECBAgQIAAAQIECBAgQIAAgYCAQV/gCCIQIECAAAECBAgQIECAAAECBAgQIECAAAECBAgQIECAAAECBAgQIECAAAGDPh0gQIAAAQIECBAgQIAAAQIECBAgQIAAAQIECBAgQIAAAQIECBAgQIAAAQIBAYO+wBFEIECAAAECBAgQIECAAAECBAgQIECAAAECBAgQIECAAAECBAgQIECAAAECBn06QIAAAQIECBAgQIAAAQIECBAgQIAAAQIECBAgQIAAAQIECBAgQIAAAQIEAgIGfYEjiECAAAECBAgQIECAAAECBAgQIECAAAECBAgQIECAAAECBAgQIECAAAECBAz6dIAAAQIECBAgQIAAAQIECBAgQIAAAQIECBAgQIAAAQIECBAgQIAAAQIECAQEDPoCRxCBAAECBAgQIECAAAECBAgQIECAAAECBAgQIECAAAECBAgQIECAAAECBAgY9OkAAQIECBAgQIAAAQIECBAgQIAAAQIECBAgQIAAAQIECBAgQIAAAQIECBAICBj0BY4gAgECBAgQIECAAAECBAgQIECAAAECBAgQIECAAAECBAgQIECAAAECBAgQMOjTAQIECBAgQIAAAQIECBAgQIAAAQIECBAgQIAAAQIECBAgQIAAAQIECBAgEBAw6AscQQQCBAgQIECAAAECBAgQIECAAAECBAgQIECAAAECBAgQIECAAAECBAgQIGDQpwMECBAgQIAAAQIECBAgQIAAAQIECBAgQIAAAQIECBAgQIAAAQIECBAgQCAgYNAXOIIIBAgQIECAAAECBAgQIECAAAECBAgQIECAAAECBAgQIECAAAECBAgQIEDAoE8HCBAgQIAAAQIECBAgQIAAAQIECBAgQIAAAQIECBAgQIAAAQIECBAgQIBAQMCgL3AEEQgQIECAAAECBAgQIECAAAECBAgQIECAAAECBAgQIECAAAECBAgQIECAgEGfDhAgQIAAAQIECBAgQIAAAQIECBAgQIAAAQIECBAgQIAAAQIECBAgQIAAgYCAQV/gCCIQIECAAAECBAgQIECAAAECBAgQIECAAAECBAgQIECAAAECBAgQIECAAAGDPh0gQIAAAQIECBAgQIAAAQIECBAgQIAAAQIECBAgQIAAAQIECBAgQIAAAQIBAYO+wBFEIECAAAECBAgQIECAAAECBAgQIECAAAECBAgQIECAAAECBAgQIECAAAECBn06QIAAAQIECBAgQIAAAQIECBAgQIAAAQIECBAgQIAAAQIECBAgQIAAAQIEAgIGfYEjiECAAAECBAgQIECAAAECBAgQIECAAAECBAgQIECAAAECBAgQIECAAAECBAz6dIAAAQIECBAgQIAAAQIECBAgQIAAAQIECBAgQIAAAQIECBAgQIAAAQIECAQEDPoCRxCBAAECBAgQIECAAAECBAgQIECAAAECBAgQIECAAAECBAgQIECAAAECBAgY9OkAAQIECBAgQIAAAQIECBAgQIAAAQIECBAgQIAAAQIECBAgQIAAAQIECBAICBj0BY4gAgECBAgQIECAAAECBAgQIECAAAECBAgQIECAAAECBAgQIECAAAECBAgQMOjTAQIECBAgQIAAAQIECBAgQIAAAQIECBAgQIAAAQIECBAgQIAAAQIECBAgEBAw6AscQQQCBAgQIECAAAECBAgQIECAAAECBAgQIECAAAECBAgQIECAAAECBAgQIGDQpwMECBAgQIAAAQIECBAgQIAAAQIECBAgQIAAAQIECBAgQIAAAQIECBAgQCAgYNAXOIIIBAgQIECAAAECBAgQIECAAAECBAgQIECAAAECBAgQIECAAAECBAgQIEDAoE8HCBAgQIAAAQIECBAgQIAAAQIECBAgQIAAAQIECBAgQIAAAQIECBAgQIBAQMCgL3AEEQgQIECAAAECBAgQIECAAAECBAgQIECAAAECBAgQIECAAAECBAgQIECAgEGfDhAgQIAAAQIECBAgQIAAAQIECBAgQIAAAQIECBAgQIAAAQIECBAgQIAAgYCAQV/gCCIQIECAAAECBAgQIECAAAECBAgQIECAAAECBAgQIECAAAECBAgQIECAAAGDPh0gQIAAAQIECBAgQIAAAQIECBAgQIAAAQIECBAgQIAAAQIECBAgQIAAAQIBAYO+wBFEIECAAAECBAgQIECAAAECBAgQIECAAAECBAgQIECAAAECBAgQIECAAAECBn06QIAAAQIECBAgQIAAAQIECBAgQIAAAQIECBAgQIAAAQIECBAgQIAAAQIEAgIGfYEjiECAAAECBAgQIECAAAECBAgQIECAAAECBAgQIECAAAECBAgQIECAAAECBAz6dIAAAQIECBAgQIAAAQIECBAgQIAAAQIECBAgQIAAAQIECBAgQIAAAQIECAQEDPoCRxCBAAECBAgQIECAAAECBAgQIECAAAECBAgQIECAAAECBAgQIECAAAECBAgY9OkAAQIECBAgQIAAAQIECBAgQIAAAQIECBAgQIAAAQIECBAgQIAAAQIECBAICBj0BY4gAgECBAgQIECAAAECBAgQIECAAAECBAgQIECAAAECBAgQIECAAAECBAgQMOjTAQIECBAgQIAAAQIECBAgQIAAAQIECBAgQIAAAQIECBAgQIAAAQIECBAgEBAw6AscQQQCBAgQIECAAAECBAgQIECAAAECBAgQIECAAAECBAgQIECAAAECBAgQIGDQpwMECBAgQIAAAQIECBAgQIAAAQIECBAgQIAAAQIECBAgQIAAAQIECBAgQCAgYNAXOIIIBAgQIECAAAECBAgQIECAAAECBAgQIECAAAECBAgQIECAAAECBAgQIEDAoE8HCBAgQIAAAQIECBAgQIAAAQIECBAgQIAAAQIECBAgQIAAAQIECBAgQIBAQMCgL3AEEQgQIECAAAECBAgQIECAAAECBAgQIECAAAECBAgQIECAAAECBAgQIECAgEGfDhAgQIAAAQIECBAgQIAAAQIECBAgQIAAAQIECBAgQIAAAQIECBAgQIAAgYCAQV/gCCIQIECAAAECBAgQIECAAAECBAgQIECAAAECBAgQIECAAAECBAgQIECAAAGDPh0gQIAAAQIECBAgQIAAAQIECBAgQIAAAQIECBAgQIAAAQIECBAgQIAAAQIBAYO+wBFEIECAAAECBAgQIECAAAECBAgQIECAAAECBAgQIECAAAECBAgQIECAAAECBn06QIAAAQIECBAgQIAAAQIECBAgQIAAAQIECBAgQIAAAQIECBAgQIAAAQIEAgIGfYEjiECAAAECBAgQIECAAAECBAgQIECAAAECBAgQIECAAAECBAgQIECAAAECBAz6dIAAAQIECBAgQIAAAQIECBAgQIAAAQIECBAgQIAAAQIECBAgQIAAAQIECAQEDPoCRxCBAAECBAgQIECAAAECBAgQIECAAAECBAgQIECAAAECBAgQIECAAAECBAgY9OkAAQIECBAgQIAAAQIECBAgQIAAAQIECBAgQIAAAQIECBAgQIAAAQIECBAICBj0BY4gAgECBAgQIECAAAECBAgQIECAAAECBAgQIECAAAECBAgQIECAAAECBAgQMOjTAQIECBAgQIAAAQIECBAgQIAAAQIECBAgQIAAAQIECBAgQIAAAQIECBAgEBAw6AscQQQCBAgQIECAAAECBAgQIECAAAECBAgQIECAAAECBAgQIECAAAECBAgQIGDQpwMECBAgQIAAAQIECBAgQIAAAQIECBAgQIAAAQIECBAgQIAAAQIECBAgQCAgYNAXOIIIBAgQIECAAAECBAgQIECAAAECBAgQIECAAAECBAgQIECAAAECBAgQIEDAoE8HCBAgQIAAAQIECBAgQIAAAQIECBAgQIAAAQIECBAgQIAAAQIECBAgQIBAQMCgL3AEEQgQIECAAAECBAgQIECAAAECBAgQIECAAAECBAgQIECAAAECBAgQIECAgEGfDhAgQIAAAQIECBAgQIAAAQIECBAgQIAAAQIECBAgQIAAAQIECBAgQIAAgYCAQV/gCCIQIECAAAECBAgQIECAAAECBAgQIECAAAECBAgQIECAAAECBAgQIECAAAGDPh0gQIAAAQIECBAgQIAAAQIECBAgQIAAAQIECBAgQIAAAQIECBAgQIAAAQIBAYO+wBFEIECAAAECBAgQIECAAAECBAgQIECAAAECBAgQIECAAAECBAgQIECAAAECBn06QIAAAQIECBAgQIAAAQIECBAgQIAAAQIECBAgQIAAAQIECBAgQIAAAQIEAgIGfYEjiECAAAECBAgQIECAAAECBAgQIECAAAECBAgQIECAAAECBAgQIECAAAECBAz6dIAAAQIECBAgQIAAAQIECBAgQIAAAQIECBAgQIAAAQIECBAgQIAAAQIECAQEDPoCRxCBAAECBAgQIECAAAECBAgQIECAAAECBAgQIECAAAECBAgQIECAAAECBAgY9OkAAQIECBAgQIAAAQIECBAgQIAAAQIECBAgQIAAAQIECBAgQIAAAQIECBAICBj0BY4gAgECBAgQIECAAAECBAgQIECAAAECBAgQIECAAAECBAgQIECAAAECBAgQMOjTAQIECBAgQIAAAQIECBAgQIAAAQIECBAgQIAAAQIECBAgQIAAAQIECBAgEBAw6AscQQQCBAgQIECAAAECBAgQIECAAAECBAgQIECAAAECBAgQIECAAAECBAgQIGDQpwMECBAgQIAAAQIECBAgQIAAAQIECBAgQIAAAQIECBAgQIAAAQIECBAgQCAgYNAXOIIIBAgQIECAAAECBAgQIECAAAECBAgQIECAAAECBAgQIECAAAECBAgQIEDAoE8HCBAgQIAAAQIECBAgQIAAAQIECBAgQIAAAQIECBAgQIAAAQIECBAgQIBAQMCgL3AEEQgQIECAAAECBAgQIECAAAECBAgQIECAAAECBAgQIECAAAECBAgQIECAgEGfDhAgQIAAAQIECBAgQIAAAQIECBAgQIAAAQIECBAgQIAAAQIECBAgQIAAgYCAQV/gCCIQIECAAAECBAgQIECAAAECBAgQIECAAAECBAgQIECAAAECBAgQIECAAAGDPh0gQIAAAQIECBAgQIAAAQIECBAgQIAAAQIECBAgQIAAAQIECBAgQIAAAQIBAYO+wBFEIECAAAECBAgQIECAAAECBAgQIECAAAECBAgQIECAAAECBAgQIECAAAECBn06QIAAAQIECBAgQIAAAQIECBAgQIAAAQIECBAgQIAAAQIECBAgQIAAAQIEAgIGfYEjiECAAAECBAgQIECAAAECBAgQIECAAAECBAgQIECAAAECBAgQIECAAAECBAz6dIAAAQIECBAgQIAAAQIECBAgQIAAAQIECBAgQIAAAQIECBAgQIAAAQIECAQEDPoCRxCBAAECBAgQIECAAAECBAgQIECAAAECBAgQIECAAAECBAgQIECAAAECBAgY9OkAAQIECBAgQIAAAQIECBAgQIAAAQIECBAgQIAAAQIECBAgQIAAAQIECBAICBj0BY4gAgECBAgQIECAAAECBAgQIECAAAECBAgQIECAAAECBAgQIECAAAECBAgQMOjTAQIECBAgQIAAAQIECBAgQIAAAQIECBAgQIAAAQIECBAgQIAAAQIECBAgEBAw6AscQQQCBAgQIECAAAECBAgQIECAAAECBAgQIECAAAECBAgQIECAAAECBAgQIGDQpwMECBAgQIAAAQIECBAgQIAAAQIECBAgQIAAAQIECBAgQIAAAQIECBAgQCAgYNAXOIIIBAgQIECAAAECBAgQIECAAAECBAgQIECAAAECBAgQIECAAAECBAgQIEDAoE8HCBAgQIAAAQIECBAgQIAAAQIECBAgQIAAAQIECBAgQIAAAQIECBAgQIBAQMCgL3AEEQgQIECAAAECBAgQIECAAAECBAgQIECAAAECBAgQIECAAAECBAgQIECAgEGfDhAgQIAAAQIECBAgQIAAAQIECBAgQIAAAQIECBAgQIAAAQIECBAgQIAAgYCAQV/gCCIQIECAAAECBAgQIECAAAECBAgQIECAAAECBAgQIECAAAECBAgQIECAAAGDPh0gQIAAAQIECBAgQIAAAQIECBAgQIAAAQIECBAgQIAAAQIECBAgQIAAAQIBAYO+wBFEIECAAAECBAgQIECAAAECBAgQIECAAAECBAgQIECAAAECBAgQIECAAAECBn06QIAAAQIECBAgQIAAAQIECBAgQIAAAQIECBAgQIAAAQIECBAgQIAAAQIEAgIGfYEjiECAAAECBAgQIECAAAECBAgQIECAAAECBAgQIECAAAECBAgQIECAAAECBAz6dIAAAQIECBAgQIAAAQIECBAgQIAAAQIECBAgQIAAAQIECBAgQIAAAQIECAQEDPoCRxCBAAECBAgQIECAAAECBAgQIECAAAECBAgQIECAAAECBAgQIECAAAECBAgY9OkAAQIECBAgQIAAAQIECBAgQIAAAQIECBAgQIAAAQIECBAgQIAAAQIECBAICBj0BY4gAgECBAgQIECAAAECBAgQIECAAAECBAgQIECAAAECBAgQIECAAAECBAgQMOjTAQIECBAgQIAAAQIECBAgQIAAAQIECBAgQIAAAQIECBAgQIAAAQIECBAgEBAw6AscQQQCBAgQIECAAAECBAgQIECAAAECBAgQIECAAAECBAgQIECAAAECBAgQIGDQpwMECBAgQIAAAQIECBAgQIAAAQIECBAgQIAAAQIECBAgQIAAAQIECBAgQCAgYNAXOIIIBAgQIECAAAECBAgQIECAAAECBAgQIECAAAECBAgQIECAAAECBAgQIEDAoE8HCBAgQIAAAQIECBAgQIAAAQIECBAgQIAAAQIECBAgQIAAAQIECBAgQIBAQMCgL3AEEQgQIECAAAECBAgQIECAAAECBAgQIECAAAECBAgQIECAAAECBAgQIECAgEGfDhAgQIAAAQIECBAgQIAAAQIECBAgQIAAAQIECBAgQIAAAQIECBAgQIAAgYCAQV/gCCIQIECAAAECBAgQIECAAAECBAgQIECAAAECBAgQIECAAAECBAgQIECAAAGDPh0gQIAAAQIECBAgQIAAAQIECBAgQIAAAQIECBAgQIAAAQIECBAgQIAAAQIBAYO+wBFEIECAAAECBAgQIECAAAECBAgQIECAAAECBAgQIECAAAECBAgQIECAAAECBn06QIAAAQIECBAgQIAAAQIECBAgQIAAAQIECBAgQIAAAQIECBAgQIAAAQIEAgIGfYEjiECAAAECBAgQIECAAAECBAgQIECAAAECBAgQIECAAAECBAgQIECAAAECBAz6dIAAAQIECBAgQIAAAQIECBAgQIAAAQIECBAgQIAAAQIECBAgQIAAAQIECAQEDPoCRxCBAAECBAgQIECAAAECBAgQIECAAAECBAgQIECAAAECBAgQIECAAAECBAgY9OkAAQIECBAgQIAAAQIECBAgQIAAAQIECBAgQIAAAQIECBAgQIAAAQIECBAICBj0BY4gAgECBAgQIECAAAECBAgQIECAAAECBAgQIECAAAECBAgQIECAAAECBAgQMOjTAQIECBAgQIAAAQIECBAgQIAAAQIECBAgQIAAAQIECBAgQIAAAQIECBAgEBAw6AscQQQCBAgQIECAAAECBAgQIECAAAECBAgQIECAAAECBAgQIECAAAECBAgQIGDQpwMECBAgQIAAAQIECBAgQIAAAQIECBAgQIAAAQIECBAgQIAAAQIECBAgQCAgYNAXOIIIBAgQIECAAAECBAgQIECAAAECBAgQIECAAAECBAgQIECAAAECBAgQIEDAoE8HCBAgQIAAAQIECBAgQIAAAQIECBAgQIAAAQIECBAgQIAAAQIECBAgQIBAQMCgL3AEEQgQIECAAAECBAgQIECAAAECBAgQIECAAAECBAgQIECAAAECBAgQIECAgEGfDhAgQIAAAQIECBAgQIAAAQIECBAgQIAAAQIECBAgQIAAAQIECBAgQIAAgYCAQV/gCCIQIECAAAECBAgQIECAAAECBAgQIECAAAECBAgQIECAAAECBAgQIECAAAGDPh0gQIAAAQIECBAgQIAAAQIECBAgQIAAAQIECBAgQIAAAQIECBAgQIAAAQIBAYO+wBFEIECAAAECBAgQIECAAAECBAgQIECAAAECBAgQIECAAAECBAgQIECAAAECBn06QIAAAQIECBAgQIAAAQIECBAgQIAAAQIECBAgQIAAAQIECBAgQIAAAQIEAgIGfYEjiECAAAECBAgQIECAAAECBAgQIECAAAECBAgQIECAAAECBAgQIECAAAECBAz6dIAAAQIECBAgQIAAAQIECBAgQIAAAQIECBAgQIAAAQIECBAgQIAAAQIECAQEDPoCRxCBAAECBAgQIECAAAECBAgQIECAAAECBAgQIECAAAECBAgQIECAAAECBAgY9OkAAQIECBAgQIAAAQIECBAgQIAAAQIECBAgQIAAAQIECBAgQIAAAQIECBAICBj0BY4gAgECBAgQIECAAAECBAgQIECAAAECBAgQIECAAAECBAgQIECAAAECBAgQMOjTAQIECBAgQIAAAQIECBAgQIAAAQIECBAgQIAAAQIECBAgQIAAAQIECBAgEBAw6AscQQQCBAgQIECAAAECBAgQIECAAAECBAgQIECAAAECBAgQIECAAAECBAgQIGDQpwMECBAgQIAAAQIECBAgQIAAAQIECBAgQIAAAQIECBAgQIAAAQIECBAgQCAgYNAXOIIIBAgQIECAAAECBAgQIECAAAECBAgQIECAAAECBAgQIECAAAECBAgQIEDAoE8HCBAgQIAAAQIECBAgQIAAAQIECBAgQIAAAQIECBAgQIAAAQIECBAgQIBAQMCgL3AEEQgQIECAAAECBAgQIECAAAECBAgQIECAAAECBAgQIECAAAECBAgQIECAgEGfDhAgQIAAAQIECBAgQIAAAQIECBAgQIAAAQIECBAgQIAAAQIECBAgQIAAgYCAQV/gCCIQIECAAAECBAgQIECAAAECBAgQIECAAAECBAgQIECAAAECBAgQIECAAAGDPh0gQIAAAQIECBAgQIAAAQIECBAgQIAAAQIECBAgQIAAAQIECBAgQIAAAQIBAYO+wBFEIECAAAECBAgQIECAAAECBAgQIECAAAECBAgQIECAAAECBAgQIECAAAECBn06QIAAAQIECBAgQIAAAQIECBAgQIAAAQIECBAgQIAAAQIECBAgQIAAAQIEAgIGfYEjiECAAAECBAgQIECAAAECBAgQIECAAAECBAgQIECAAAECBAgQIECAAAECBAz6dIAAAQIECBAgQIAAAQIECBAgQIAAAQIECBAgQIAAAQIECBAgQIAAAQIECAQEDPoCRxCBAAECBAgQIECAAAECBAgQIECAAAECBAgQIECAAAECBAgQIECAAAECBAgY9OkAAQIECBAgQIAAAQIECBAgQIAAAQIECBAgQIAAAQIECBAgQIAAAQIECBAICBj0BY4gAgECBAgQIECAAAECBAgQIECAAAECBAgQIECAAAECBAgQIECAAAECBAgQMOjTAQIECBAgQIAAAQIECBAgQIAAAQIECBAgQIAAAQIECBAgQIAAAQIECBAgEBAw6AscQQQCBAgQIECAAAECBAgQIECAAAECBAgQIECAAAECBAgQIECAAAECBAgQIGDQpwMECBAgQIAAAQIECBAgQIAAAQIECBAgQIAAAQIECBAgQIAAAQIECBAgQCAgYNAXOIIIBAgQIECAAAECBAgQIECAAAECBAgQIECAAAECBAgQIECAAAECBAgQIEDAoE8HCBAgQIAAAQIECBAgQIAAAQIECBAgQIAAAQIECBAgQIAAAQIECBAgQIBAQMCgL3AEEQgQIECAAAECBAgQIECAAAECBAgQIECAAAECBAgQIECAAAECBAgQIECAgEGfDhAgQIAAAQIECBAgQIAAAQIECBAgQIAAAQIECBAgQIAAAQIECBAgQIAAgYCAQV/gCCIQIECAAAECBAgQIECAAAECBAgQIECAAAECBAgQIECAAAECBAgQIECAAAGDPh0gQIAAAQIECBAgQIAAAQIECBAgQIAAAQIECBAgQIAAAQIECBAgQIAAAQIBAYO+wBFEIECAAAECBAgQIECAAAECBAgQIECAAAECBAgQIECAAAECBAgQIECAAAECBn06QIAAAQIECBAgQIAAAQIECBAgQIAAAQIECBAgQIAAAQIECBAgQIAAAQIEAgIGfYEjiECAAAECBAgQIECAAAECBAgQIECAAAECBAgQIECAAAECBAgQIECAAAECBAz6dIAAAQIECBAgQIAAAQIECBAgQIAAAQIECBAgQIAAAQIECBAgQIAAAQIECAQEDPoCRxCBAAECBAgQIECAAAECBAgQIECAAAECBAgQIECAAAECBAgQIECAAAECBAgY9OkAAQIECBAgQIAAAQIECBAgQIAAAQIECBAgQIAAAQIECBAgQIAAAQIECBAICBj0BY4gAgECBAgQIECAAAECBAgQIECAAAECBAgQIECAAAECBAgQIECAAAECBAgQMOjTAQIECBAgQIAAAQIECBAgQIAAAQIECBAgQIAAAQIECBAgQIAAAQIECBAgEBAw6AscQQQCBAgQIECAAAECBAgQIECAAAECBAgQIECAAAECBAgQIECAAAECBAgQIGDQpwMECBAgQIAAAQIECBAgQIAAAQIECBAgQIAAAQIECBAgQIAAAQIECBAgQCAgYNAXOIIIBAgQIECAAAECBAgQIECAAAECBAgQIECAAAECBAgQIECAAAECBAgQIEDAoE8HCBAgQIAAAQIECBAgQIAAAQIECBAgQIAAAQIECBAgQIAAAQIECBAgQIBAQMCgL3AEEQgQIECAAAECBAgQIECAAAECBAgQIECAAAECBAgQIECAAAECBAgQIECAgEGfDhAgQIAAAQIECBAgQIAAAQIECBAgQIAAAQIECBAgQIAAAQIECBAgQIAAgYCAQV/gCCIQIECAAAECBAgQIECAAAECBAgQIECAAAECBAgQIECAAAECBAgQIECAAAGDPh0gQIAAAQIECBAgQIAAAQIECBAgQIAAAQIECBAgQIAAAQIECBAgQIAAAQIBAYO+wBFEIECAAAECBAgQIECAAAECBAgQIECAAAECBAgQIECAAAECBAgQIECAAAECBn06QIAAAQIECBAgQIAAAQIECBAgQIAAAQIECBAgQIAAAQIECBAgQIAAAQIEAgIGfYEjiECAAAECBAgQIECAAAECBAgQIECAAAECBAgQIECAAAECBAgQIECAAAECBAz6dIAAAQIECBAgQIAAAQIECBAgQIAAAQIECBAgQIAAAQIECBAgQIAAAQIECAQEDPoCRxCBAAECBAgQIECAAAECBAgQIECAAAECBAgQIECAAAECBAgQIECAAAECBAgY9OkAAQIECBAgQIAAAQIECBAgQIAAAQIECBAgQIAAAQIECBAgQIAAAQIECBAICBj0BY4gAgECBAgQIECAAAECBAgQIECAAAECBAgQIECAAAECBAgQIECAAAECBAgQMOjTAQIECBAgQIAAAQIECBAgQIAAAQIECBAgQIAAAQIECBAgQIAAAQIECBAgEBAw6AscQQQCBAgQIECAAAECBAgQIECAAAECBAgQIECAAAECBAgQIECAAAECBAgQIGDQpwMECBAgQIAAAQIECBAgQIAAAQIECBAgQIAAAQIECBAgQIAAAQIECBAgQCAgYNAXOIIIBAgQIECAAAECBAgQIECAAAECBAgQIECAAAECBAgQIECAAAECBAgQIEDAoE8HCBAgQIAAAQIECBAgQIAAAQIECBAgQIAAAQIECBAgQIAAAQIECBAgQIBAQMCgL3AEEQgQIECAAAECBAgQIECAAAECBAgQIECAAAECBAgQIECAAAECBAgQIECAgEGfDhAgQIAAAQIECBAgQIAAAQIECBAgQIAAAQIECBAgQIAAAQIECBAgQIAAgYCAQV/gCCIQIECAAAECBAgQIECAAAECBAgQIECAAAECBAgQIECAAAECBAgQIECAAAGDPh0gQIAAAQIECBAgQIAAAQIECBAgQIAAAQIECBAgQIAAAQIECBAgQIAAAQIBAYO+wBFEIECAAAECBAgQIECAAAECBAgQIECAAAECBAgQIECAAAECBAgQIECAAAECBn06QIAAAQIECBAgQIAAAQIECBAgQIAAAQIECBAgQIAAAQIECBAgQIAAAQIEAgIGfYEjiECAAAECBAgQIECAAAECBAgQIECAAAECBAgQIECAAAECBAgQIECAAAECBAz6dIAAAQIECBAgQIAAAQIECBAgQIAAAQIECBAgQIAAAQIECBAgQIAAAQIECAQEDPoCRxCBAAECBAgQIECAAAECBAgQIECAAAECBAgQIECAAAECBAgQIECAAAECBAgY9OkAAQIECBAgQIAAAQIECBAgQIAAAQIECBAgQIAAAQIECBAgQIAAAQIECBAICBj0BY4gAgECBAgQIECAAAECBAgQIECAAAECBAgQIECAAAECBAgQIECAAAECBAgQMOjTAQIECBAgQIAAAQIECBAgQIAAAQIECBAgQIAAAQIECBAgQIAAAQIECBAgEBAw6AscQQQCBAgQIECAAAECBAgQIECAAAECBAgQIECAAAECBAgQIECAAAECBAgQIGDQpwMECBAgQIAAAQIECBAgQIAAAQIECBAgQIAAAQIECBAgQIAAAQIECBAgQCAgYNAXOIIIBAgQIECAAAECBAgQIECAAAECBAgQIECAAAECBAgQIECAAAECBAgQIEDAoE8HCBAgQIAAAQIECBAgQIAAAQIECBAgQIAAAQIECBAgQIAAAQIECBAgQIBAQMCgL3AEEQgQIECAAAECBAgQIECAAAECBAgQIECAAAECBAgQIECAAAECBAgQIECAgEGfDhAgQIAAAQIECBAgQIAAAQIECBAgQIAAAQIECBAgQIAAAQIECBAgQIAAgYCAQV/gCCIQIECAAAECBAgQIECAAAECBAgQIECAAAECBAgQIECAAAECBAgQIECAAAGDPh0gQIAAAQIECBAgQIAAAQIECBAgQIAAAQIECBAgQIAAAQIECBAgQIAAAQIBAYO+wBFEIECAAAECBAgQIECAAAECBAgQIECAAAECBAgQIECAAAECBAgQIECAAAECBn06QIAAAQIECBAgQIAAAQIECBAgQIAAAQIECBAgQIAAAQIECBAgQIAAAQIEAgIGfYEjiECAAAECBAgQIECAAAECBAgQIECAAAECBAgQIECAAAECBAgQIECAAAECBAz6dIAAAQIECBAgQIAAAQIECBAgQIAAAQIECBAgQIAAAQIECBAgQIAAAQIECAQEDPoCRxCBAAECBAgQIECAAAECBAgQIECAAAECBAgQIECAAAECBAgQIECAAAECBAgY9OkAAQIECBAgQIAAAQIECBAgQIAAAQIECBAgQIAAAQIECBAgQIAAAQIECBAICBj0BY4gAgECBAgQIECAAAECBAgQIECAAAECBAgQIECAAAECBAgQIECAAAECBAgQMOjTAQIECBAgQIAAAQIECBAgQIAAAQIECBAgQIAAAQIECBAgQIAAAQIECBAgEBAw6AscQQQCBAgQIECAAAECBAgQIECAAAECBAgQIECAAAECBAgQIECAAAECBAgQIGDQpwMECBAgQIAAAQIECBAgQIAAAQIECBAgQIAAAQIECBAgQIAAAQIECBAgQCAgYNAXOIIIBAgQIECAAAECBAgQIECAAAECBAgQIECAAAECBAgQIECAAAECBAgQIEDAoE8HCBAgQIAAAQIECBAgQIAAAQIECBAgQIAAAQIECBAgQIAAAQIECBAgQIBAQMCgL3AEEQgQIECAAAECBAgQIECAAAECBAgQIECAAAECBAgQIECAAAECBAgQIECAgEGfDhAgQIAAAQIECBAgQIAAAQIECBAgQIAAAQIECBAgQIAAAQIECBAgQIAAgYCAQV/gCCIQIECAAAECBAgQIECAAAECBAgQIECAAAECBAgQIECAAAECBAgQIECAAAGDPh0gQIAAAQIECBAgQIAAAQIECBAgQIAAAQIECBAgQIAAAQIECBAgQIAAAQIBAYO+wBFEIECAAAECBAgQIECAAAECBAgQIECAAAECBAgQIECAAAECBAgQIECAAAECBn06QIAAAQIECBAgQIAAAQIECBAgQIAAAQIECBAgQIAAAQIECBAgQIAAAQIEAgIGfYEjiECAAAECBAgQIECAAAECBAgQIECAAAECBAgQIECAAAECBAgQIECAAAECBAz6dIAAAQIECBAgQIAAAQIECBAgQIAAAQIECBAgQIAAAQIECBAgQIAAAQIECAQEDPoCRxCBAAECBAgQIECAAAECBAgQIECAAAECBAgQIECAAAECBAgQIECAAAECBAgY9OkAAQIECBAgQIAAAQIECBAgQIAAAQIECBAgQIAAAQIECBAgQIAAAQIECBAICBj0BY4gAgECBAgQIECAAAECBAgQIECAAAECBAgQIECAAAECBAgQIECAAAECBAgQMOjTAQIECBAgQIAAAQIECBAgQIAAAQIECBAgQIAAAQIECBAgQIAAAQIECJAw+qMAAA4qSURBVBAgEBAw6AscQQQCBAgQIECAAAECBAgQIECAAAECBAgQIECAAAECBAgQIECAAAECBAgQIGDQpwMECBAgQIAAAQIECBAgQIAAAQIECBAgQIAAAQIECBAgQIAAAQIECBAgQCAgYNAXOIIIBAgQIECAAAECBAgQIECAAAECBAgQIECAAAECBAgQIECAAAECBAgQIEDAoE8HCBAgQIAAAQIECBAgQIAAAQIECBAgQIAAAQIECBAgQIAAAQIECBAgQIBAQMCgL3AEEQgQIECAAAECBAgQIECAAAECBAgQIECAAAECBAgQIECAAAECBAgQIECAgEGfDhAgQIAAAQIECBAgQIAAAQIECBAgQIAAAQIECBAgQIAAAQIECBAgQIAAgYCAQV/gCCIQIECAAAECBAgQIECAAAECBAgQIECAAAECBAgQIECAAAECBAgQIECAAAGDPh0gQIAAAQIECBAgQIAAAQIECBAgQIAAAQIECBAgQIAAAQIECBAgQIAAAQIBAYO+wBFEIECAAAECBAgQIECAAAECBAgQIECAAAECBAgQIECAAAECBAgQIECAAAECBn06QIAAAQIECBAgQIAAAQIECBAgQIAAAQIECBAgQIAAAQIECBAgQIAAAQIEAgIGfYEjiECAAAECBAgQIECAAAECBAgQIECAAAECBAgQIECAAAECBAgQIECAAAECBAz6dIAAAQIECBAgQIAAAQIECBAgQIAAAQIECBAgQIAAAQIECBAgQIAAAQIECAQEDPoCRxCBAAECBAgQIECAAAECBAgQIECAAAECBAgQIECAAAECBAgQIECAAAECBAgY9OkAAQIECBAgQIAAAQIECBAgQIAAAQIECBAgQIAAAQIECBAgQIAAAQIECBAICBj0BY4gAgECBAgQIECAAAECBAgQIECAAAECBAgQIECAAAECBAgQIECAAAECBAgQMOjTAQIECBAgQIAAAQIECBAgQIAAAQIECBAgQIAAAQIECBAgQIAAAQIECBAgEBAw6AscQQQCBAgQIECAAAECBAgQIECAAAECBAgQIECAAAECBAgQIECAAAECBAgQIGDQpwMECBAgQIAAAQIECBAgQIAAAQIECBAgQIAAAQIECBAgQIAAAQIECBAgQCAgYNAXOIIIBAgQIECAAAECBAgQIECAAAECBAgQIECAAAECBAgQIECAAAECBAgQIEDAoE8HCBAgQIAAAQIECBAgQIAAAQIECBAgQIAAAQIECBAgQIAAAQIECBAgQIBAQMCgL3AEEQgQIECAAAECBAgQIECAAAECBAgQIECAAAECBAgQIECAAAECBAgQIECAgEGfDhAgQIAAAQIECBAgQIAAAQIECBAgQIAAAQIECBAgQIAAAQIECBAgQIAAgYCAQV/gCCIQIECAAAECBAgQIECAAAECBAgQIECAAAECBAgQIECAAAECBAgQIECAAAGDPh0gQIAAAQIECBAgQIAAAQIECBAgQIAAAQIECBAgQIAAAQIECBAgQIAAAQIBAYO+wBFEIECAAAECBAgQIECAAAECBAgQIECAAAECBAgQIECAAAECBAgQIECAAAECBn06QIAAAQIECBAgQIAAAQIECBAgQIAAAQIECBAgQIAAAQIECBAgQIAAAQIEAgIGfYEjiECAAAECBAgQIECAAAECBAgQIECAAAECBAgQIECAAAECBAgQIECAAAECBAz6dIAAAQIECBAgQIAAAQIECBAgQIAAAQIECBAgQIAAAQIECBAgQIAAAQIECAQEDPoCRxCBAAECBAgQIECAAAECBAgQIECAAAECBAgQIECAAAECBAgQIECAAAECBAgY9OkAAQIECBAgQIAAAQIECBAgQIAAAQIECBAgQIAAAQIECBAgQIAAAQIECBAICBj0BY4gAgECBAgQIECAAAECBAgQIECAAAECBAgQIECAAAECBAgQIECAAAECBAgQMOjTAQIECBAgQIAAAQIECBAgQIAAAQIECBAgQIAAAQIECBAgQIAAAQIECBAgEBAw6AscQQQCBAgQIECAAAECBAgQIECAAAECBAgQIECAAAECBAgQIECAAAECBAgQIGDQpwMECBAgQIAAAQIECBAgQIAAAQIECBAgQIAAAQIECBAgQIAAAQIECBAgQCAgYNAXOIIIBAgQIECAAAECBAgQIECAAAECBAgQIECAAAECBAgQIECAAAECBAgQIEDAoE8HCBAgQIAAAQIECBAgQIAAAQIECBAgQIAAAQIECBAgQIAAAQIECBAgQIBAQMCgL3AEEQgQIECAAAECBAgQIECAAAECBAgQIECAAAECBAgQIECAAAECBAgQIECAgEGfDhAgQIAAAQIECBAgQIAAAQIECBAgQIAAAQIECBAgQIAAAQIECBAgQIAAgYCAQV/gCCIQIECAAAECBAgQIECAAAECBAgQIECAAAECBAgQIECAAAECBAgQIECAAAGDPh0gQIAAAQIECBAgQIAAAQIECBAgQIAAAQIECBAgQIAAAQIECBAgQIAAAQIBAYO+wBFEIECAAAECBAgQIECAAAECBAgQIECAAAECBAgQIECAAAECBAgQIECAAAECBn06QIAAAQIECBAgQIAAAQIECBAgQIAAAQIECBAgQIAAAQIECBAgQIAAAQIEAgIGfYEjiECAAAECBAgQIECAAAECBAgQIECAAAECBAgQIECAAAECBAgQIECAAAECBAz6dIAAAQIECBAgQIAAAQIECBAgQIAAAQIECBAgQIAAAQIECBAgQIAAAQIECAQEDPoCRxCBAAECBAgQIECAAAECBAgQIECAAAECBAgQIECAAAECBAgQIECAAAECBAgY9OkAAQIECBAgQIAAAQIECBAgQIAAAQIECBAgQIAAAQIECBAgQIAAAQIECBAICBj0BY4gAgECBAgQIECAAAECBAgQIECAAAECBAgQIECAAAECBAgQIECAAAECBAgQMOjTAQIECBAgQIAAAQIECBAgQIAAAQIECBAgQIAAAQIECBAgQIAAAQIECBAgEBAw6AscQQQCBAgQIECAAAECBAgQIECAAAECBAgQIECAAAECBAgQIECAAAECBAgQIGDQpwMECBAgQIAAAQIECBAgQIAAAQIECBAgQIAAAQIECBAgQIAAAQIECBAgQCAgYNAXOIIIBAgQIECAAAECBAgQIECAAAECBAgQIECAAAECBAgQIECAAAECBAgQIEDAoE8HCBAgQIAAAQIECBAgQIAAAQIECBAgQIAAAQIECBAgQIAAAQIECBAgQIBAQMCgL3AEEQgQIECAAAECBAgQIECAAAECBAgQIECAAAECBAgQIECAAAECBAgQIECAgEGfDhAgQIAAAQIECBAgQIAAAQIECBAgQIAAAQIECBAgQIAAAQIECBAgQIAAgYCAQV/gCCIQIECAAAECBAgQIECAAAECBAgQIECAAAECBAgQIECAAAECBAgQIECAAAGDPh0gQIAAAQIECBAgQIAAAQIECBAgQIAAAQIECBAgQIAAAQIECBAgQIAAAQIBAYO+wBFEIECAAAECBAgQIECAAAECBAgQIECAAAECBAgQIECAAAECBAgQIECAAAECBn06QIAAAQIECBAgQIAAAQIECBAgQIAAAQIECBAgQIAAAQIECBAgQIAAAQIEAgIGfYEjiECAAAECBAgQIECAAAECBAgQIECAAAECBAgQIECAAAECBAgQIECAAAECBAz6dIAAAQIECBAgQIAAAQIECBAgQIAAAQIECBAgQIAAAQIECBAgQIAAAQIECAQEDPoCRxCBAAECBAgQIECAAAECBAgQIECAAAECBAgQIECAAAECBAgQIECAAAECBAgY9OkAAQIECBAgQIAAAQIECBAgQIAAAQIECBAgQIAAAQIECBAgQIAAAQIECBAICBj0BY4gAgECBAgQIECAAAECBAgQIECAAAECBAgQIECAAAECBAgQIECAAAECBAgQMOjTAQIECBAgQIAAAQIECBAgQIAAAQIECBAgQIAAAQIECBAgQIAAAQIECBAgEBAw6AscQQQCBAgQIECAAAECBAgQIECAAAECBAgQIECAAAECBAgQIECAAAECBAgQIGDQpwMECBAgQIAAAQIECBAgQIAAAQIECBAgQIAAAQIECBAgQIAAAQIECBAgQCAgYNAXOIIIBAgQIECAAAECBAgQIECAAAECBAgQIECAAAECBAgQIECAAAECBAgQIEDAoE8HCBAgQIAAAQIECBAgQIAAAQIECBAgQIAAAQIECBAgQIAAAQIECBAgQIBAQMCgL3AEEQgQIECAAAECBAgQIECAAAECBAgQIECAAAECBAgQIECAAAECBAgQIECAgEGfDhAgQIAAAQIECBAgQIAAAQIECBAgQIAAAQIECBAgQIAAAQIECBAgQIAAgYCAQV/gCCIQIECAAAECBAgQIECAAAECBAgQIECAAAECBAgQIECAAAECBAgQIECAAAGDPh0gQIAAAQIECBAgQIAAAQIECBAgQIAAAQIECBAgQIAAAQIECBAgQIAAAQIBAYO+wBFEIECAAAECBAgQIECAAAECBAgQIECAAAECBAgQIECAAAECBAgQIECAAAECBn06QIAAAQIECBAgQIAAAQIECBAgQIAAAQIECBAgQIAAAQIECBAgQIAAAQIEdhZYa415u9/X5/G4cxSfJ0CAAAECBAgQIECAAAECBAgQIECAAAECBAgQIECAAAECBAgQIECAAAEC7yfwGvK9nsfzOebH4bC2bRvn0+n/5Zzz/UT8MQECBAgQIECAAAECBAgQIECAAAECBAgQIECAAAECBAgQIECAAAECBAgQ2Eng+vM7Lt9f4w+woVKUoYQx5wAAAABJRU5ErkJggg==;clipPath=inset(0% 10% 9.34% 0%);container=0;" parent="HKS1n0-_ATYg36Mik8ny-39" vertex="1">
          <mxGeometry x="635.69" y="199.36" width="213.78" height="130.64" as="geometry" />
        </mxCell>
        <mxCell id="HKS1n0-_ATYg36Mik8ny-37" style="edgeStyle=orthogonalEdgeStyle;rounded=0;orthogonalLoop=1;jettySize=auto;html=1;entryX=0.048;entryY=0.081;entryDx=0;entryDy=0;entryPerimeter=0;" parent="HKS1n0-_ATYg36Mik8ny-39" source="HKS1n0-_ATYg36Mik8ny-36" target="HKS1n0-_ATYg36Mik8ny-30" edge="1">
          <mxGeometry relative="1" as="geometry" />
        </mxCell>
        <mxCell id="HKS1n0-_ATYg36Mik8ny-38" value="Click" style="edgeLabel;html=1;align=center;verticalAlign=middle;resizable=0;points=[];" parent="HKS1n0-_ATYg36Mik8ny-37" vertex="1" connectable="0">
          <mxGeometry x="0.2939" y="-1" relative="1" as="geometry">
            <mxPoint x="1" y="-18" as="offset" />
          </mxGeometry>
        </mxCell>
        <mxCell id="HKS1n0-_ATYg36Mik8ny-36" value="&lt;font color=&quot;#2572f8&quot;&gt;User&lt;/font&gt;" style="shape=umlActor;verticalLabelPosition=bottom;verticalAlign=top;html=1;outlineConnect=0;strokeWidth=4;fillColor=#1ba1e2;fontColor=#ffffff;strokeColor=#006EAF;" parent="HKS1n0-_ATYg36Mik8ny-39" vertex="1">
          <mxGeometry x="630.69" y="60" width="30" height="60" as="geometry" />
        </mxCell>
      </root>
    </mxGraphModel>
  </diagram>
</mxfile>
